<svg width="65" height="64" viewBox="0 0 65 64" fill="none" xmlns="http://www.w3.org/2000/svg">
<g clip-path="url(#clip0_141_220)">
<path d="M51.2452 41.3001L35.2629 41.2885L35.2643 39.4128L51.2459 39.4245C54.3038 39.4245 57.1706 38.2243 59.3174 36.0453C61.4638 33.8667 62.6207 30.9811 62.5751 27.9201C62.4833 21.7722 57.4045 16.767 51.2538 16.7625C51.2512 16.7625 51.2485 16.7625 51.246 16.7625C50.7619 16.7625 50.2744 16.7934 49.797 16.8542L49.0538 16.9491L48.7972 16.245C47.3187 12.1872 43.4223 9.46074 39.1016 9.46074C38.1921 9.46074 37.2883 9.57978 36.415 9.81461L35.6301 10.0257L35.3096 9.2788C34.2705 6.85759 32.437 4.80063 30.1466 3.48693L31.0798 1.85986C33.4916 3.24322 35.4642 5.34157 36.701 7.8223C37.4893 7.66462 38.2935 7.58509 39.1014 7.58509C43.9615 7.58509 48.3674 10.5045 50.2874 14.9213C50.6063 14.8984 50.9269 14.8869 51.246 14.8869H51.2552C58.4241 14.8921 64.3434 20.7263 64.4505 27.8921C64.5037 31.4595 63.1553 34.8225 60.6537 37.3618C58.1514 39.9015 54.81 41.3001 51.2452 41.3001Z" fill="#FF8764"/>
<path d="M14.7192 41.2865H12.6978C5.99848 41.2865 0.548096 35.8361 0.548096 29.1368C0.548096 23.2665 4.68515 18.3203 10.336 17.2158C10.1044 16.1942 9.98748 15.1474 9.98748 14.0914C9.98748 6.32131 16.3089 0 24.0789 0C25.8257 0 27.5309 0.315984 29.147 0.9392L28.4721 2.6893C27.0721 2.14937 25.594 1.87565 24.0789 1.87565C17.3432 1.87565 11.8633 7.35554 11.8633 14.0912C11.8633 15.3235 12.0467 16.541 12.4086 17.7095L12.7463 18.8005L11.6105 18.9197C6.37323 19.4695 2.42374 23.862 2.42374 29.1368C2.42374 34.802 7.03259 39.4109 12.6978 39.4109H14.7192V41.2865Z" fill="#FF8764"/>
<path d="M17.5531 8.72484L16.101 7.53768C16.536 7.00562 17.026 6.51558 17.5577 6.08105L18.7446 7.53343C18.3097 7.8888 17.9088 8.28969 17.5531 8.72484Z" fill="#FF8764"/>
<path d="M20.1497 6.59893L19.2708 4.94186C19.8777 4.61999 20.5192 4.3579 21.1774 4.16309L21.7097 5.96158C21.1712 6.12101 20.6464 6.33546 20.1497 6.59893Z" fill="#FF8764"/>
<path d="M21.5392 38.3828L22.8653 37.0567L24.2129 38.4044L22.8868 39.7305L21.5392 38.3828Z" fill="#FF8764"/>
<path d="M40.255 43.2542C37.5102 43.2542 35.0615 44.5399 33.4744 46.5391V43.2616C33.4744 37.0335 28.4075 31.9668 22.1796 31.9668H16.4978V37.6686C16.4978 41.0942 18.0267 44.2959 20.6924 46.4531L21.8723 44.995C19.6488 43.1957 18.3735 40.5254 18.3735 37.6686V33.8424H22.1796C27.3734 33.8424 31.5988 38.0679 31.5988 43.2616V45.7853L25.5764 39.7629L24.2502 41.0893L30.2486 47.0878H27.7926C26.2573 47.0878 24.7938 46.7305 23.4427 46.0257L22.5752 47.6886C24.1738 48.5226 25.978 48.9634 27.7925 48.9634H31.593L31.5508 63.9949L33.4264 64.0002L33.4478 56.3987H36.0718C40.845 56.3987 44.7282 52.5155 44.7282 47.7424V43.2542H40.255ZM42.8527 47.7424C42.8527 51.4812 39.8109 54.5231 36.0719 54.5231H34.8006L39.785 49.5387L38.4588 48.2124L33.4744 53.1969V51.9106C33.4744 48.1718 36.5162 45.1298 40.255 45.1298H42.8527V47.7424Z" fill="#FF8764"/>
<path d="M28.7134 31.0529C23.5423 31.0529 19.3352 26.8458 19.3352 21.6746C19.3352 16.5035 23.5423 12.2964 28.7134 12.2964C33.8846 12.2964 38.0917 16.5035 38.0917 21.6746C38.0917 26.8458 33.8846 31.0529 28.7134 31.0529ZM28.7134 14.172C24.5765 14.172 21.2109 17.5377 21.2109 21.6746C21.2109 25.8116 24.5765 29.1772 28.7134 29.1772C32.8504 29.1772 36.216 25.8116 36.216 21.6746C36.216 17.5377 32.8504 14.172 28.7134 14.172Z" fill="#FF8764"/>
<path d="M28.7135 27.2674C25.6298 27.2674 23.1212 24.7588 23.1212 21.675C23.1212 18.5911 25.6298 16.0825 28.7135 16.0825C31.7972 16.0825 34.306 18.5911 34.306 21.675C34.306 24.7588 31.7971 27.2674 28.7135 27.2674ZM28.7135 17.9583C26.6642 17.9583 24.9969 19.6256 24.9969 21.6751C24.9969 23.7245 26.6642 25.3919 28.7135 25.3919C30.763 25.3919 32.4303 23.7245 32.4303 21.6751C32.4303 19.6256 30.7629 17.9583 28.7135 17.9583Z" fill="#FF8764"/>
<path d="M44.7043 32.9027H39.0547V30.1695L42.5156 27.083C42.7205 26.9003 42.8379 26.6381 42.8379 26.3638C42.8379 25.8323 42.4055 25.4001 41.8742 25.4001C41.3537 25.4001 40.9303 25.8235 40.9303 26.3439V26.7848H39.0547V26.3439C39.0547 24.7892 40.3195 23.5244 41.8742 23.5244C43.4398 23.5244 44.7135 24.7982 44.7135 26.3638C44.7135 27.1723 44.3674 27.9447 43.7641 28.4828L40.9303 31.0098V31.027H44.7043V32.9027Z" fill="#FF8764"/>
</g>
<defs>
<clipPath id="clip0_141_220">
<rect width="64" height="64" fill="white" transform="translate(0.5)"/>
</clipPath>
</defs>
</svg>
