<svg width="65" height="64" viewBox="0 0 65 64" fill="none" xmlns="http://www.w3.org/2000/svg">
<g clip-path="url(#clip0_141_233)">
<path d="M57.0413 30.2932C56.1498 29.671 55.0145 29.6903 54.1496 30.3414C52.5055 31.576 50.7028 32.5459 48.7841 33.2309C46.9193 31.2603 44.2828 30.0272 41.3621 30.0272H38.3758C38.2043 28.6242 37.4422 27.3478 36.2647 26.5325C34.9197 25.6013 33.2027 25.3892 31.6717 25.9649L26.9103 27.7553C23.5008 24.015 21.6121 19.2248 21.58 14.1973C21.5612 11.3879 22.1051 8.66305 23.1963 6.09817C23.6246 5.09192 23.3701 3.97692 22.548 3.2573C21.7362 2.5468 20.6122 2.44317 19.6841 2.99355C12.0498 7.5233 7.27145 15.5087 6.90208 24.3544C6.88045 24.8718 7.28233 25.3087 7.7997 25.3303C8.3182 25.3507 8.75395 24.95 8.77558 24.4327C9.11845 16.2229 13.5542 8.81105 20.6408 4.60617C20.9642 4.41417 21.2188 4.58555 21.3132 4.66817C21.3908 4.73605 21.6316 4.98705 21.4712 5.36392C20.279 8.16617 19.6847 11.1424 19.7052 14.2094C19.7417 19.923 21.9705 25.3553 25.9802 29.5049C26.6705 30.2182 27.4166 30.8927 28.1971 31.5089C29.3542 32.4225 30.0177 33.7798 30.0177 35.2328V49.5143C19.299 48.1769 10.5426 39.6652 9.00308 28.9165C8.98983 28.8242 8.97708 28.7317 8.9652 28.6379C8.90008 28.1243 8.43095 27.7602 7.91733 27.8257C7.4037 27.8908 7.04008 28.3599 7.10508 28.8735C7.1182 28.9774 7.13245 29.0799 7.14708 29.1824C8.8167 40.84 18.3653 50.0544 30.0177 51.4013V61.2754C30.0177 62.7775 31.2397 63.9995 32.7418 63.9995H37.2083C41.2856 63.9995 44.6026 60.6824 44.6026 56.6052V55.8385H45.8033C47.8237 55.8385 49.725 54.7611 50.7651 53.0264C51.0313 52.5824 50.8872 52.0065 50.4432 51.7403C49.9991 51.474 49.4232 51.618 49.157 52.0622C48.4431 53.2527 47.1895 53.9635 45.8033 53.9635H44.6026V46.1022C44.6026 45.5844 44.183 45.1647 43.6651 45.1647C43.1472 45.1647 42.7276 45.5844 42.7276 46.1022V56.605C42.7276 59.6484 40.2516 62.1244 37.2083 62.1244H32.7418C32.2736 62.1244 31.8927 61.7435 31.8927 61.2753V35.2329C31.8927 33.2025 30.9692 31.3089 29.359 30.0375C29.023 29.7722 28.694 29.4952 28.374 29.2082L32.3318 27.7199C33.3013 27.3554 34.346 27.4844 35.1977 28.074C36.0495 28.6637 36.5378 29.596 36.5378 30.6319V39.1609C36.5378 39.6787 36.9575 40.0984 37.4753 40.0984C37.9932 40.0984 38.4128 39.6787 38.4128 39.1609V31.902H41.3623C45.9655 31.902 49.7105 35.6469 49.7105 40.2502V48.3144C49.7105 48.8322 50.1301 49.2519 50.648 49.2519C51.1658 49.2519 51.5855 48.8322 51.5855 48.3144V43.7848C54.5591 40.7674 56.7716 37.0532 57.9903 33.0143C58.3018 31.9809 57.9292 30.9128 57.0413 30.2932ZM56.195 32.4728C55.2546 35.5892 53.677 38.4984 51.5852 41.0008V40.2502C51.5852 38.2395 50.9993 36.3642 49.9928 34.7814C51.8737 34.0499 53.6463 33.0642 55.2763 31.84C55.5822 31.6097 55.8623 31.7568 55.9682 31.8308C56.0727 31.9037 56.3037 32.112 56.195 32.4728Z" fill="#FF8764"/>
<path d="M37.7646 15.225C37.7646 15.7427 38.1843 16.1625 38.7021 16.1625H41.1566L38.2229 20.8355C37.9784 21.2252 37.9649 21.7175 38.1876 22.1201C38.4103 22.5227 38.8345 22.7728 39.2945 22.7728H42.852C43.3699 22.7728 43.7895 22.3531 43.7895 21.8353C43.7895 21.3176 43.3699 20.8978 42.852 20.8978H40.3975L43.331 16.2252C43.5758 15.8355 43.5894 15.3431 43.3668 14.9405C43.1441 14.5378 42.7199 14.2876 42.2598 14.2876H38.7021C38.1843 14.2875 37.7646 14.7072 37.7646 15.225Z" fill="#FF8764"/>
<path d="M33.3805 1.875H35.835L32.9012 6.548C32.6567 6.93775 32.6432 7.43 32.866 7.83262C33.0886 8.23525 33.5129 8.48538 33.9729 8.48538H37.5304C38.0482 8.48538 38.4679 8.06563 38.4679 7.54787C38.4679 7.03012 38.0482 6.61037 37.5304 6.61037H35.0759L38.0094 1.93775C38.2541 1.548 38.2677 1.05575 38.0451 0.653C37.8225 0.25025 37.3982 0 36.938 0H33.3804C32.8625 0 32.4429 0.41975 32.4429 0.9375C32.4429 1.45525 32.8626 1.875 33.3805 1.875Z" fill="#FF8764"/>
<path d="M49.7998 8.18835H52.2543L49.3208 12.861C49.0761 13.2507 49.0624 13.743 49.2851 14.1457C49.5077 14.5485 49.9321 14.7987 50.3922 14.7987H53.9497C54.4676 14.7987 54.8872 14.379 54.8872 13.8612C54.8872 13.3435 54.4676 12.9237 53.9497 12.9237H51.4952L54.4287 8.2511C54.6734 7.86135 54.6871 7.3691 54.4644 6.96635C54.2418 6.5636 53.8176 6.31348 53.3574 6.31348H49.7998C49.2819 6.31348 48.8623 6.73323 48.8623 7.25098C48.8623 7.76873 49.2819 8.18835 49.7998 8.18835Z" fill="#FF8764"/>
</g>
<defs>
<clipPath id="clip0_141_233">
<rect width="64" height="64" fill="white" transform="translate(0.5)"/>
</clipPath>
</defs>
</svg>
