<svg width="65" height="64" viewBox="0 0 65 64" fill="none" xmlns="http://www.w3.org/2000/svg">
<g clip-path="url(#clip0_141_239)">
<path d="M52.9338 52.0729C52.7779 51.5792 52.2514 51.305 51.7578 51.4607C51.2639 51.6164 50.9898 52.1429 51.1455 52.6367C51.4003 53.4447 51.6956 54.3023 52.0234 55.1861C52.1821 55.6137 52.1533 56.0712 51.9425 56.4746C51.7328 56.876 51.3758 57.1593 50.9371 57.2723L32.3031 62.0756C31.5394 62.2726 30.7401 61.8706 30.444 61.1408C29.3321 58.4021 26.7295 51.9879 20.1073 52.8858C19.643 52.9487 19.1798 53.0137 18.7236 53.0778C16.4658 53.3949 14.1314 53.7227 13.0815 53.5509C10.8567 53.1867 9.6354 52.2653 9.23802 50.651C8.98277 49.6262 9.29902 48.8787 9.73391 48.1726C10.2238 47.2966 9.81491 46.2616 9.1554 45.8052C8.71414 45.4997 8.22225 45.301 7.86375 45.1832C7.85425 44.9804 7.95 44.6728 8.43501 44.3232C8.64064 44.1748 8.77739 43.9496 8.81414 43.6989C8.85102 43.448 8.78476 43.193 8.63039 42.992C8.63676 42.9338 7.77287 42.0666 6.83573 41.2565C7.61249 40.7046 9.0949 39.4549 8.90239 38.0729C8.82177 37.4948 8.42476 36.713 6.99048 36.2719C5.42058 35.7891 5.20295 35.1819 5.20158 34.5976C5.2002 34.0017 5.55396 33.6331 6.40072 32.9812C7.73912 31.9509 9.2684 30.6108 10.4635 28.4833C10.8624 27.773 10.9101 26.9057 10.591 26.1628C10.4019 25.7228 10.1393 25.3068 9.88528 24.9047C9.49503 24.2866 9.0914 23.6472 9.18527 23.2442C9.2364 23.0247 9.37465 22.7325 9.53465 22.3941C9.92266 21.5743 10.4539 20.4514 10.5652 18.745C10.6057 18.1223 10.6762 17.5043 10.7745 16.9084C10.8588 16.3975 10.5129 15.9152 10.002 15.8308C9.4909 15.7474 9.00877 16.0925 8.92439 16.6033C8.81614 17.2597 8.73876 17.9393 8.69401 18.623C8.60601 19.9727 8.19888 20.8332 7.83975 21.5924C7.64224 22.0099 7.45562 22.4041 7.35899 22.819C7.08736 23.9855 7.73137 25.0058 8.29963 25.9058C8.52489 26.2625 8.73751 26.5992 8.86827 26.9033C8.95839 27.1132 8.94364 27.3605 8.82876 27.5651C7.99863 29.0428 6.96386 30.1817 5.25695 31.4956C4.48681 32.0884 3.32304 32.9845 3.32667 34.6019C3.33042 36.2653 4.37769 37.4302 6.43935 38.0642C6.83961 38.1872 6.99348 38.307 7.04098 38.3529C6.98361 38.6667 6.26122 39.4004 5.53646 39.8732C5.43433 39.9395 5.34595 40.0251 5.27645 40.1251C4.85982 40.725 4.65594 41.9491 5.80171 42.8628C6.11409 43.1118 6.36947 43.339 6.57048 43.5301C5.72409 44.6199 5.94246 45.8313 6.39072 46.4886C6.73748 46.9595 7.30474 46.8579 8.05838 47.3267C7.65137 48.0402 6.97661 49.2372 7.41737 51.0994C8.00013 53.4671 9.80391 54.9146 12.7786 55.4015C14.1099 55.6194 16.3689 55.3021 18.9843 54.9348C19.4378 54.8711 19.898 54.8066 20.3592 54.744C24.9108 54.1282 27.0611 57.793 28.7067 61.8462C29.2439 63.1697 30.5368 64.0003 31.9143 64.0001C32.1982 64.0001 32.4858 63.9649 32.7711 63.8914L51.4051 59.088C52.3505 58.8444 53.152 58.2084 53.6043 57.3434C54.0576 56.4762 54.1222 55.4524 53.7814 54.5341C53.4644 53.6793 53.1792 52.8513 52.9338 52.0729Z" fill="#FF8764"/>
<path d="M51.7926 5.21409C46.6108 1.90041 39.4875 0 32.2492 0C27.3903 0 22.8154 1.04989 19.0193 3.03643C14.9442 5.16872 11.9013 8.33252 10.2192 12.1858C10.012 12.6605 10.2288 13.2131 10.7033 13.4202C11.1779 13.6269 11.7304 13.4106 11.9377 12.9361C14.916 6.11336 22.6987 1.87503 32.2492 1.87503C39.1392 1.87503 45.8943 3.66781 50.7825 6.79374C56.6811 10.5658 59.7989 16.19 59.7989 23.0585C59.7989 31.5712 58.6799 35.0589 51.2719 41.7631C49.9431 42.9655 49.5486 45.096 50.0661 48.2763C50.141 48.7365 50.5387 49.0635 50.9904 49.0635C51.0402 49.0635 51.0911 49.0595 51.142 49.0511C51.6531 48.968 51.9999 48.4862 51.9168 47.9753C51.521 45.542 51.733 43.8745 52.53 43.1533C60.3523 36.0741 61.6739 31.9269 61.6739 23.0585C61.6738 15.5184 58.2569 9.34779 51.7926 5.21409Z" fill="#FF8764"/>
<path d="M19.2233 32.1192C19.5623 32.1729 19.9031 32.1993 20.2421 32.1993C21.4716 32.1993 22.6803 31.8512 23.723 31.2057C24.4674 32.8526 26.0013 34.1038 27.8887 34.4028C28.4179 34.4865 28.9485 34.4938 29.4726 34.4245C29.7043 34.6593 29.9605 34.8645 30.2343 35.0417L33.1722 42.2485C33.5588 43.1971 34.4275 43.886 35.4395 44.0463L38.4962 44.5304C38.5937 44.5459 38.691 44.5535 38.7874 44.5535C39.3137 44.5535 39.8146 44.3279 40.1673 43.9216C40.5848 43.4406 40.7222 42.7901 40.5352 42.1813L39.4447 38.6325C39.7297 38.684 40.0308 38.7099 40.5856 38.6893C41.4436 39.5509 42.5545 40.1212 43.7646 40.3128C44.07 40.3613 44.3754 40.3851 44.6788 40.3851C45.8858 40.3851 47.0588 40.0063 48.0542 39.283C49.2999 38.3782 50.1184 37.0424 50.359 35.5221C50.3865 35.3485 50.4048 35.1733 50.4165 34.9981C50.894 34.776 51.3538 34.5063 51.7893 34.1898C53.5563 32.9061 54.7176 31.011 55.0591 28.8539C55.3435 27.0587 55.0266 25.2447 54.1653 23.666C55.1172 22.646 55.7492 21.3596 55.9692 19.9706C56.2631 18.1155 55.8168 16.2571 54.713 14.7377C53.7177 13.3678 52.2953 12.4213 50.664 12.0326C49.8154 9.60265 47.6992 7.81474 45.1253 7.40711C43.3943 7.13248 41.65 7.51074 40.2029 8.44975C39.1513 7.12973 37.7185 6.16934 36.0816 5.70333C35.5836 5.56083 35.065 5.85021 34.9232 6.34822C34.7814 6.8461 35.0702 7.36486 35.5681 7.50661C37.0813 7.93749 38.3684 8.91926 39.1924 10.2709C39.3367 10.5077 39.5784 10.6683 39.8524 10.7098C40.1276 10.7517 40.4051 10.6694 40.613 10.4862C41.7711 9.46515 43.3086 9.01814 44.8319 9.25902C46.8668 9.5814 48.5117 11.0803 49.0224 13.0777C49.1157 13.4431 49.419 13.7168 49.792 13.7727L49.8307 13.7777C51.1911 13.9934 52.386 14.7256 53.1957 15.8399C54.0053 16.9542 54.3326 18.3171 54.1171 19.6773C53.9247 20.8916 53.3026 21.9991 52.3655 22.796C52.0009 23.106 51.9284 23.6409 52.1972 24.0369C53.0998 25.3665 53.4584 26.973 53.2069 28.5605C52.9437 30.223 52.0485 31.6834 50.6869 32.6728C49.325 33.6622 47.6591 34.0621 45.9969 33.7988C44.9869 33.6388 44.0468 33.2428 43.2379 32.6436C43.4549 32.285 43.6379 31.8998 43.7796 31.4898C43.9488 31.0004 43.689 30.4665 43.1996 30.2975C42.7101 30.1285 42.1764 30.3883 42.0074 30.8775C41.3528 32.7724 39.4373 33.9202 37.4559 33.6056C36.8594 33.5109 36.3034 33.2932 35.8036 32.9582C35.4272 32.7059 34.9242 32.7589 34.6087 33.0841C34.0047 33.7067 33.1347 33.9974 32.2802 33.8626C31.5983 33.7546 30.9929 33.3912 30.5754 32.8397C30.3503 32.5422 29.9706 32.406 29.6071 32.4943C29.1398 32.6076 28.6599 32.6264 28.1815 32.5507C26.3142 32.2549 24.9697 30.5484 25.1207 28.6659C25.1578 28.2035 24.8513 27.7835 24.3995 27.678C23.4734 27.4617 22.8369 26.6141 22.8861 25.6629C22.9185 25.0355 23.2375 24.4757 23.7612 24.1267C24.192 23.8394 24.3085 23.2574 24.0214 22.8266C23.7343 22.3957 23.1522 22.2795 22.7214 22.5664C21.7144 23.2375 21.0761 24.3589 21.0136 25.5662C20.9312 27.1613 21.8363 28.6072 23.2394 29.2525C22.1994 30.1116 20.8652 30.4808 19.5161 30.2673C16.9528 29.8613 15.1976 27.4455 15.6035 24.8823C15.7195 24.1509 15.9965 23.4764 16.4268 22.8773C16.6367 22.5851 16.6608 22.1986 16.4889 21.8826C15.9035 20.8058 15.6955 19.5962 15.8873 18.3846C16.2548 16.0643 18.0552 14.2265 20.3672 13.8112C20.7519 13.7421 21.0534 13.4416 21.1237 13.0571C21.5634 10.6518 23.8859 9.00651 26.3013 9.38864C26.8122 9.4694 27.3013 9.63515 27.7551 9.8809C28.1552 10.0977 28.6532 9.99578 28.936 9.63927C29.6783 8.70388 30.6665 8.00212 31.7937 7.61011C32.2827 7.43999 32.5411 6.90548 32.3711 6.41647C32.2008 5.92771 31.6669 5.66945 31.1774 5.83908C29.9503 6.26609 28.8499 6.97573 27.9582 7.90974C27.5201 7.73574 27.0637 7.61074 26.5946 7.53661C24.9286 7.27273 23.2529 7.66486 21.8773 8.64176C20.6779 9.4934 19.8222 10.7063 19.4233 12.1027C16.6247 12.8545 14.4946 15.1916 14.0354 18.0913C13.8084 19.5251 13.9994 20.957 14.5876 22.266C14.1637 22.9789 13.8832 23.7578 13.7516 24.5889C13.1846 28.1735 15.6389 31.5514 19.2233 32.1192ZM47.0008 35.7534C47.4802 35.7534 47.9555 35.7097 48.4228 35.6265C48.1942 36.4864 47.6821 37.2359 46.9523 37.766C46.1119 38.3765 45.0848 38.6235 44.0583 38.4609C43.1224 38.3125 42.2744 37.8283 41.6705 37.0973C41.4505 36.8309 41.1016 36.7069 40.7632 36.7751C40.4493 36.8383 40.1281 36.8446 39.8087 36.794C39.4311 36.7341 39.0718 36.5941 38.7549 36.3875L38.4884 35.5203C39.8083 35.4373 41.0472 34.9211 42.0255 34.0788C43.0972 34.8981 44.353 35.437 45.7043 35.651C46.1374 35.7195 46.5704 35.7534 47.0008 35.7534ZM35.3886 34.8843C35.7316 35.0585 36.0895 35.1981 36.4603 35.303L38.7234 42.668L35.733 42.1943C35.3651 42.136 35.0492 41.8856 34.9087 41.5407L32.5541 35.7646C33.3965 35.8042 34.5303 35.5136 35.3886 34.8843Z" fill="#FF8764"/>
<path d="M41.2279 22.828C40.8615 23.1939 40.861 23.7874 41.227 24.1538C41.5929 24.5203 42.1866 24.5204 42.5528 24.1546C43.8336 22.8435 44.9154 22.0705 45.1242 19.449C45.122 16.2647 42.5762 13.6743 39.4493 13.6743C37.9206 13.6743 36.4927 14.2801 35.4419 15.338C34.3913 14.2801 32.9638 13.6743 31.4355 13.6743C28.3059 13.6743 25.7596 16.2206 25.7595 19.3503C25.7594 20.8198 26.2834 22.1163 27.2725 23.0977L33.8275 29.643C34.2727 30.0876 34.8572 30.3096 35.4418 30.3096C36.0263 30.3096 36.6111 30.0875 37.0561 29.6431L39.4465 27.2562C39.8129 26.8903 39.8134 26.2967 39.4475 25.9303C39.0815 25.5639 38.488 25.5634 38.1216 25.9293L35.7312 28.3163C35.5718 28.4755 35.3119 28.4756 35.1526 28.3162L28.5953 21.7687C27.9667 21.1451 27.6343 20.3088 27.6344 19.3504C27.6346 17.2545 29.3397 15.5493 31.4354 15.5493C32.7456 15.5493 33.9464 16.2171 34.6472 17.3356C34.8186 17.6091 35.1187 17.7754 35.4416 17.7754C35.7644 17.7754 36.0645 17.6093 36.236 17.3356C36.9368 16.2171 38.138 15.5493 39.4489 15.5493C41.5073 15.5493 43.2475 17.3358 43.2488 19.4503C43.1503 21.1801 42.1467 21.8803 41.2279 22.828Z" fill="#FF8764"/>
</g>
<defs>
<clipPath id="clip0_141_239">
<rect width="64" height="64" fill="white" transform="translate(0.5)"/>
</clipPath>
</defs>
</svg>
