<svg width="65" height="64" viewBox="0 0 65 64" fill="none" xmlns="http://www.w3.org/2000/svg">
<g clip-path="url(#clip0_141_261)">
<path d="M63.1341 33.6769L63.0026 33.5976C61.8926 32.9267 60.6345 32.1663 58.2289 32.1663C55.8232 32.1663 54.5654 32.9268 53.4554 33.5978C52.4249 34.2207 51.5349 34.7588 49.652 34.7588C47.7691 34.7588 46.879 34.2207 45.8484 33.5978C44.7385 32.9268 43.4805 32.1663 41.0749 32.1663C38.6694 32.1663 37.4114 32.9268 36.3015 33.5978C35.271 34.2207 34.381 34.7588 32.4982 34.7588C30.6155 34.7588 29.7255 34.2207 28.695 33.5978C27.5851 32.9268 26.3272 32.1663 23.9217 32.1663C23.8902 32.1663 23.8608 32.1681 23.8295 32.1683L25.9346 28.5219C26.213 28.0402 26.2131 27.4413 25.9347 26.9593L21.3831 19.0759C21.105 18.5939 20.5865 18.2944 20.0299 18.2944H10.9268C10.3701 18.2944 9.8515 18.5939 9.57362 19.0757L8.65788 20.6617C8.399 21.1101 8.55263 21.6834 9.001 21.9423C9.44938 22.2009 10.0227 22.0477 10.2816 21.5992L11.1071 20.1694H19.8496L24.2209 27.7406L19.8496 35.3118H11.1071L6.73588 27.7406L8.09412 25.3882C8.353 24.9398 8.19938 24.3664 7.751 24.1076C7.30262 23.8487 6.72925 24.0022 6.47038 24.4507L5.02187 26.9596C4.74375 27.4414 4.74388 28.0402 5.022 28.5218L7.12975 32.1724C7.0115 32.1686 6.892 32.1662 6.77012 32.1662C4.3645 32.1662 3.1065 32.9267 1.99662 33.5977L1.866 33.6766C1.02338 34.1842 0.5 35.1083 0.5 36.0886V56.3752C0.5 57.9259 1.76163 59.1877 3.3125 59.1877H61.6875C63.2384 59.1877 64.5 57.9259 64.5 56.3752V36.0888C64.5 35.1086 63.9766 34.1844 63.1341 33.6769ZM62.625 40.6037C61.5983 39.9989 60.367 39.3983 58.2289 39.3983C55.8231 39.3983 54.5645 40.1586 53.454 40.8292C52.8611 41.1872 52.3011 41.5254 51.5737 41.7406C51.0773 41.8874 50.7938 42.4089 50.9406 42.9054C51.0874 43.4021 51.6091 43.6858 52.1055 43.5386C53.0641 43.2549 53.7551 42.8377 54.4234 42.4341C55.4548 41.8112 56.3454 41.2732 58.2289 41.2732C60.1121 41.2732 61.0024 41.8113 62.0331 42.4343C62.2249 42.5503 62.4202 42.6683 62.625 42.7847V56.3752C62.625 56.8922 62.2045 57.3127 61.6875 57.3127H3.3125C2.7955 57.3127 2.375 56.8922 2.375 56.3752V42.7846C2.5795 42.6682 2.77475 42.5503 2.96625 42.4344C3.99687 41.8114 4.88688 41.2733 6.76988 41.2733C8.65263 41.2733 9.54263 41.8114 10.573 42.4343C11.6829 43.1053 12.9408 43.8658 15.3464 43.8658C17.7516 43.8658 19.0094 43.1053 20.1191 42.4343C21.1495 41.8114 22.0394 41.2733 23.9219 41.2733C25.8046 41.2733 26.6946 41.8114 27.725 42.4343C28.8349 43.1053 30.0928 43.8658 32.4984 43.8658C34.904 43.8658 36.1619 43.1053 37.2718 42.4343C38.3022 41.8114 39.1922 41.2733 41.075 41.2733C42.9585 41.2733 43.8493 41.8113 44.8806 42.4342C45.549 42.8378 46.24 43.2551 47.1987 43.5387C47.6952 43.6857 48.2169 43.4019 48.3636 42.9056C48.5105 42.4089 48.227 41.8874 47.7305 41.7407C47.003 41.5256 46.443 41.1873 45.8501 40.8293C44.7396 40.1586 43.4809 39.3984 41.0751 39.3984C38.6696 39.3984 37.4116 40.1589 36.3018 40.8299C35.2713 41.4528 34.3813 41.9909 32.4985 41.9909C30.6158 41.9909 29.7257 41.4528 28.6952 40.8299C27.5854 40.1589 26.3275 39.3984 23.922 39.3984C21.5168 39.3984 20.2589 40.1589 19.1491 40.8299C18.1187 41.4528 17.2289 41.9909 15.3465 41.9909C13.4638 41.9909 12.5738 41.4528 11.5433 40.8299C10.4334 40.1589 9.1755 39.3984 6.77 39.3984C4.63262 39.3984 3.40175 39.9988 2.37513 40.6033V36.0886C2.37513 35.7618 2.55062 35.4531 2.83337 35.2828L2.9665 35.2024C3.99713 34.5794 4.88713 34.0413 6.77 34.0413C7.3305 34.0413 7.8325 34.0912 8.29525 34.1914L9.5735 36.4054C9.85162 36.8874 10.3701 37.1869 10.9268 37.1869H20.0301C20.5868 37.1869 21.1054 36.8874 21.3832 36.4057L22.6941 34.1352C23.0724 34.0732 23.4756 34.0413 23.9219 34.0413C25.8046 34.0413 26.6946 34.5794 27.725 35.2023C28.8349 35.8733 30.0928 36.6338 32.4984 36.6338C34.904 36.6338 36.1619 35.8733 37.2718 35.2023C38.3022 34.5794 39.1922 34.0413 41.075 34.0413C42.9579 34.0413 43.848 34.5794 44.8785 35.2023C45.9884 35.8733 47.2464 36.6338 49.652 36.6338C52.0576 36.6338 53.3155 35.8733 54.4255 35.2023C55.456 34.5794 56.346 34.0413 58.2289 34.0413C60.1119 34.0413 61.0021 34.5793 62.0329 35.2023L62.1668 35.2831C62.4494 35.4533 62.625 35.7621 62.625 36.0887V40.6037Z" fill="#FF8764"/>
<path d="M32.499 46.8125C30.6789 46.8125 29.198 48.2934 29.198 50.1134C29.198 51.9336 30.6789 53.4144 32.499 53.4144C34.3191 53.4144 35.8 51.9335 35.8 50.1134C35.7999 48.2934 34.3191 46.8125 32.499 46.8125ZM32.499 51.5394C31.7127 51.5394 31.073 50.8996 31.073 50.1134C31.073 49.3271 31.7127 48.6875 32.499 48.6875C33.2852 48.6875 33.925 49.3271 33.925 50.1134C33.925 50.8996 33.2852 51.5394 32.499 51.5394Z" fill="#FF8764"/>
<path d="M46.3518 50.1134C46.3518 51.9336 47.8327 53.4144 49.6528 53.4144C51.4729 53.4144 52.9537 51.9335 52.9537 50.1134C52.9537 48.2933 51.4729 46.8125 49.6528 46.8125C47.8327 46.8125 46.3518 48.2934 46.3518 50.1134ZM51.0787 50.1134C51.0787 50.8996 50.4391 51.5394 49.6528 51.5394C48.8666 51.5394 48.2268 50.8996 48.2268 50.1134C48.2268 49.3271 48.8666 48.6875 49.6528 48.6875C50.4391 48.6875 51.0787 49.3271 51.0787 50.1134Z" fill="#FF8764"/>
<path d="M15.3469 46.8125C13.5268 46.8125 12.0459 48.2934 12.0459 50.1134C12.0459 51.9336 13.5268 53.4144 15.3469 53.4144C17.167 53.4144 18.6478 51.9335 18.6478 50.1134C18.6478 48.2934 17.167 46.8125 15.3469 46.8125ZM15.3469 51.5394C14.5606 51.5394 13.9209 50.8996 13.9209 50.1134C13.9209 49.3271 14.5606 48.6875 15.3469 48.6875C16.1331 48.6875 16.7728 49.3271 16.7728 50.1134C16.7728 50.8996 16.1331 51.5394 15.3469 51.5394Z" fill="#FF8764"/>
<path d="M31.4136 15.9435C31.1546 15.495 30.5813 15.3416 30.1329 15.6003C29.6846 15.8592 29.5309 16.4326 29.7898 16.881L32.0388 20.7763C32.2063 21.0663 32.5157 21.2451 32.8507 21.2451H37.3487C37.8664 21.2451 38.2862 20.8255 38.2862 20.3076C38.2862 19.7897 37.8664 19.3701 37.3487 19.3701H33.3919L31.4136 15.9435Z" fill="#FF8764"/>
<path d="M13.2295 32.5733L17.7275 32.5732C18.2454 32.5732 18.665 32.1534 18.665 31.6357C18.665 31.1178 18.2452 30.6982 17.7275 30.6982L13.7707 30.6983L11.7922 27.2715C11.5334 26.823 10.96 26.6698 10.5116 26.9284C10.0632 27.1873 9.9096 27.7607 10.1685 28.209L12.4176 32.1045C12.5851 32.3945 12.8946 32.5733 13.2295 32.5733Z" fill="#FF8764"/>
<path d="M49.25 15.5434H50.9184V17.2118C50.9184 17.7296 51.3381 18.1493 51.8559 18.1493C52.3736 18.1493 52.7934 17.7296 52.7934 17.2118V15.5434H54.4616C54.9794 15.5434 55.3991 15.1238 55.3991 14.6059C55.3991 14.088 54.9794 13.6684 54.4616 13.6684H52.7934V12C52.7934 11.4821 52.3736 11.0625 51.8559 11.0625C51.3381 11.0625 50.9184 11.4821 50.9184 12V13.6684H49.25C48.7322 13.6684 48.3125 14.088 48.3125 14.6059C48.3125 15.1238 48.7322 15.5434 49.25 15.5434Z" fill="#FF8764"/>
<path d="M5.875 13.75H7.125V15C7.125 15.5179 7.54475 15.9375 8.0625 15.9375C8.58025 15.9375 9 15.5179 9 15V13.75H10.25C10.7677 13.75 11.1875 13.3304 11.1875 12.8125C11.1875 12.2946 10.7677 11.875 10.25 11.875H9V10.625C9 10.1071 8.58025 9.6875 8.0625 9.6875C7.54475 9.6875 7.125 10.1071 7.125 10.625V11.875H5.875C5.35725 11.875 4.9375 12.2946 4.9375 12.8125C4.9375 13.3304 5.35725 13.75 5.875 13.75Z" fill="#FF8764"/>
<path d="M32.5 32.5625C33.0178 32.5625 33.4375 32.1429 33.4375 31.625V31H34.0625C34.5802 31 35 30.5804 35 30.0625C35 29.5446 34.5802 29.125 34.0625 29.125H33.4375V28.5C33.4375 27.9821 33.0178 27.5625 32.5 27.5625C31.9822 27.5625 31.5625 27.9821 31.5625 28.5V29.125H30.9375C30.4197 29.125 30 29.5446 30 30.0625C30 30.5804 30.4197 31 30.9375 31H31.5625V31.625C31.5625 32.1429 31.9822 32.5625 32.5 32.5625Z" fill="#FF8764"/>
<path d="M29.1947 25.0768C29.4729 25.5588 29.9914 25.8583 30.548 25.8583H39.6514C40.208 25.8583 40.7266 25.5588 41.0045 25.0771L45.5562 17.1933C45.8344 16.7116 45.8345 16.1129 45.5562 15.6308L41.0046 7.74732C40.7265 7.26532 40.208 6.96582 39.6514 6.96582H37.2871C36.7694 6.96582 36.3496 7.38545 36.3496 7.90332C36.3496 8.4212 36.7694 8.84082 37.2871 8.84082H39.4709L43.8421 16.4119L39.4709 23.9832H30.7284L26.3571 16.4119L30.7284 8.84082H32.9121C33.4299 8.84082 33.8496 8.4212 33.8496 7.90332C33.8496 7.38545 33.4299 6.96582 32.9121 6.96582H30.5479C29.9912 6.96582 29.4726 7.26532 29.1947 7.74707L24.6429 15.6309C24.3647 16.1128 24.3649 16.7116 24.643 17.1932L29.1947 25.0768Z" fill="#FF8764"/>
<path d="M15.0853 14.0297C15.3634 14.5118 15.8819 14.8112 16.4385 14.8112H20.4071C20.9638 14.8112 21.4824 14.5117 21.7603 14.03L23.7445 10.5934C24.023 10.1114 24.023 9.5125 23.7446 9.03063L21.7603 5.59375C21.482 5.11187 20.9635 4.8125 20.4071 4.8125H16.4385C15.882 4.8125 15.3635 5.11187 15.0854 5.59375L13.101 9.03063C12.8228 9.5125 12.8228 10.1113 13.101 10.5931L15.0853 14.0297ZM16.619 6.6875H20.2268L22.0306 9.81188L20.2268 12.9362H16.619L14.8151 9.81188L16.619 6.6875Z" fill="#FF8764"/>
<path d="M44.8969 27.8431L46.8812 31.2798C47.1593 31.7618 47.6778 32.0612 48.2344 32.0612H52.203C52.7595 32.0612 53.278 31.7619 53.5563 31.28L55.5404 27.8434C55.8189 27.3614 55.8189 26.7625 55.5405 26.2806L53.5562 22.8435C53.2779 22.3618 52.7594 22.0625 52.203 22.0625H48.2344C47.6779 22.0625 47.1594 22.3619 46.8813 22.8438L44.8969 26.2806C44.6187 26.7626 44.6187 27.3612 44.8969 27.8431ZM48.4148 23.9375H52.0225L53.8264 27.0619L52.0225 30.1863H48.4148L46.6109 27.0619L48.4148 23.9375Z" fill="#FF8764"/>
<path d="M6.77002 50.9839C7.28779 50.9839 7.70752 50.5642 7.70752 50.0464C7.70752 49.5286 7.28779 49.1089 6.77002 49.1089C6.25225 49.1089 5.83252 49.5286 5.83252 50.0464C5.83252 50.5642 6.25225 50.9839 6.77002 50.9839Z" fill="#FF8764"/>
<path d="M23.9226 50.9839C24.4404 50.9839 24.8601 50.5642 24.8601 50.0464C24.8601 49.5286 24.4404 49.1089 23.9226 49.1089C23.4048 49.1089 22.9851 49.5286 22.9851 50.0464C22.9851 50.5642 23.4048 50.9839 23.9226 50.9839Z" fill="#FF8764"/>
<path d="M41.075 50.9839C41.5927 50.9839 42.0125 50.5642 42.0125 50.0464C42.0125 49.5286 41.5927 49.1089 41.075 49.1089C40.5572 49.1089 40.1375 49.5286 40.1375 50.0464C40.1375 50.5642 40.5572 50.9839 41.075 50.9839Z" fill="#FF8764"/>
<path d="M58.23 50.9839C58.7477 50.9839 59.1675 50.5642 59.1675 50.0464C59.1675 49.5286 58.7477 49.1089 58.23 49.1089C57.7122 49.1089 57.2925 49.5286 57.2925 50.0464C57.2925 50.5642 57.7122 50.9839 58.23 50.9839Z" fill="#FF8764"/>
</g>
<defs>
<clipPath id="clip0_141_261">
<rect width="64" height="64" fill="white" transform="translate(0.5)"/>
</clipPath>
</defs>
</svg>
