<svg width="66" height="66" viewBox="0 0 66 66" fill="none" xmlns="http://www.w3.org/2000/svg">
<g clip-path="url(#clip0_284_11)">
<path d="M63.1146 14.9033L33.6021 0.655808C33.3404 0.529617 33.0357 0.529617 32.7742 0.655808L3.26154 14.9033C2.93248 15.0621 2.72339 15.3953 2.72339 15.7607V50.3616C2.72339 50.727 2.93248 51.0603 3.26154 51.2191L32.7741 65.4665C32.9048 65.5296 33.0465 65.5612 33.1881 65.5612C33.3296 65.5612 33.4712 65.5296 33.6021 65.4665L63.1146 51.2191C63.4437 51.0603 63.6528 50.727 63.6528 50.3616V15.7608C63.6528 15.3952 63.4435 15.0622 63.1146 14.9033ZM33.1881 2.57064L60.5105 15.7607L52.5903 19.5843C52.5402 19.5461 52.4872 19.5108 52.4291 19.4827L25.2922 6.38241L33.1881 2.57064ZM23.1419 7.45897L50.4246 20.6299L44.8368 23.3275L17.5654 10.1619L23.1419 7.45897ZM51.0629 22.4361V32.4078L45.8435 34.9276V24.9559L51.0629 22.4361ZM61.7485 49.7642L34.1402 63.092V30.6057L40.7257 27.4265C41.1992 27.1979 41.3978 26.6288 41.1691 26.1551C40.9405 25.6817 40.3713 25.4829 39.8977 25.7117L33.1881 28.9509L30.548 27.6763C30.0743 27.4474 29.5052 27.6462 29.2765 28.1197C29.0479 28.5932 29.2464 29.1625 29.72 29.3911L32.2359 30.6057V63.092L4.62769 49.7639V17.2777L25.6511 27.4269C25.7846 27.4914 25.9256 27.5219 26.0644 27.5219C26.4183 27.5219 26.7583 27.3236 26.9224 26.9835C27.1511 26.5099 26.9525 25.9407 26.479 25.712L5.86561 15.7607L15.3242 11.1944L43.926 25.0022C43.9302 25.0081 43.9349 25.0133 43.9392 25.019V36.4447C43.9392 36.7723 44.1077 37.0769 44.3852 37.2512C44.5393 37.3479 44.7152 37.3968 44.8915 37.3968C45.0327 37.3968 45.1742 37.3654 45.3054 37.3021L52.4291 33.8631C52.7582 33.7042 52.9672 33.3711 52.9672 33.0056V21.517L61.7485 17.2778V49.7642Z" fill="#FF8764"/>
<path d="M12.4853 46.0713L8.15433 43.9805C7.68054 43.7516 7.11153 43.9504 6.88289 44.4239C6.65425 44.8974 6.8528 45.4667 7.32634 45.6954L11.6573 47.7861C11.7908 47.8506 11.9318 47.8811 12.0706 47.8811C12.4245 47.8811 12.7645 47.6828 12.9287 47.3427C13.1574 46.869 12.9589 46.3 12.4853 46.0713Z" fill="#FF8764"/>
<path d="M16.4713 43.4767L8.16035 39.4645C7.68669 39.2358 7.11756 39.4344 6.88892 39.9081C6.6604 40.3816 6.85895 40.9509 7.33249 41.1795L15.6435 45.1917C15.7769 45.2561 15.9179 45.2867 16.0567 45.2867C16.4107 45.2867 16.7506 45.0884 16.9148 44.7483C17.1434 44.2745 16.9449 43.7052 16.4713 43.4767Z" fill="#FF8764"/>
</g>
<defs>
<clipPath id="clip0_284_11">
<rect width="65" height="65" fill="white" transform="translate(0.68811 0.56123)"/>
</clipPath>
</defs>
</svg>
