<svg width="64" height="64" viewBox="0 0 64 64" fill="none" xmlns="http://www.w3.org/2000/svg">
<g clip-path="url(#clip0_120_388)">
<path d="M61.4436 36.1072L60.8404 35.6943C60.3464 35.3564 59.9687 34.9025 59.7481 34.3821C59.4171 33.6013 58.8748 32.9213 58.1878 32.4011L59.2928 31.5345C59.8296 31.1136 60.1187 30.4859 60.0862 29.8126C60.0487 29.0389 59.5887 28.2975 58.8556 27.8294L58.1111 27.354C54.2622 24.8965 49.8446 24.0368 46.3641 24.4565L47.3568 23.5131C47.9345 22.9644 48.6661 22.6031 49.314 22.5469L49.6055 22.5215C51.2627 22.3778 53.0204 21.1418 53.7845 19.5827C53.994 19.1554 54.348 18.7346 54.7816 18.3978L54.97 18.2516C55.8522 17.5664 56.1997 16.5562 55.8346 15.7379C55.526 15.0467 54.7788 14.6989 53.9318 14.8503C53.6158 14.904 53.3277 14.8866 53.1207 14.8006L52.6545 14.607C51.3349 14.0591 49.5226 14.535 48.1447 15.7908L47.7226 16.1755C47.1519 16.6955 46.4476 17.0321 45.8258 17.0858C46.0917 15.8877 46.3323 13.9768 46.3094 12.4798C46.2939 11.4599 45.8114 10.6531 45.0183 10.3218C44.2256 9.99043 43.3122 10.214 42.5757 10.9198C41.6457 11.8113 40.7182 12.9317 39.7404 14.3452C39.244 15.0628 38.9067 15.9004 38.7648 16.7675L38.6657 17.3737C38.5314 18.194 38.1184 19.0098 37.5609 19.5561L37.2188 19.8912C36.6618 19.1357 36.5331 18.0774 36.8929 17.1847L37.1211 16.6184C37.6559 15.2917 37.5541 13.7638 36.8488 12.5312L36.1413 11.2947C35.7514 10.6132 35.6683 9.78649 35.9132 9.02639C35.9172 9.01364 36.1771 8.18365 36.1607 8.23604C36.2984 7.73677 36.005 7.22049 35.5058 7.08282C35.0061 6.94541 34.4901 7.23862 34.3525 7.73777C34.3485 7.75027 34.1132 8.49836 34.1281 8.4511C33.7219 9.71197 33.8623 11.0879 34.5135 12.226L35.2209 13.4624C35.6434 14.2008 35.7034 15.1184 35.3816 15.917L35.1534 16.4833C34.5391 18.0075 34.7642 19.7565 35.7407 21.0478L35.932 21.3006C35.3855 22.0996 35.0201 23.0621 34.9175 24.022L34.8547 24.6095C34.76 25.4961 34.3323 26.3909 33.7374 26.9808C33.6221 26.3638 33.3876 25.7682 33.0345 25.2399C32.457 24.3756 32.4075 23.199 32.9116 22.312L33.3763 21.4945C34.1761 20.087 34.1711 18.3237 33.3632 16.8924L33.063 16.3607C32.6397 15.6111 32.5796 14.6934 32.9022 13.9061C33.0987 13.4268 32.8694 12.8791 32.3901 12.6828C31.9111 12.4864 31.363 12.7157 31.1669 13.195C30.6282 14.5092 30.7266 16.0373 31.4298 17.2828L31.73 17.8145C32.2084 18.662 32.2145 19.7427 31.7456 20.5678L31.281 21.3853C30.4216 22.8976 30.4978 24.8196 31.4753 26.2821C31.8934 26.9076 32.0396 27.689 31.8929 28.4167C31.6758 28.1621 31.4409 27.9321 31.191 27.7358L30.5153 27.2051C29.0727 26.0725 29.13 24.1977 29.0825 24.0222C28.98 23.0623 28.6145 22.0996 28.0679 21.3006L28.2593 21.0478C29.2359 19.7565 29.4609 18.0077 28.8465 16.4832L28.6182 15.917C28.2964 15.1183 28.3564 14.2008 28.7789 13.4624L29.4864 12.2261C30.1376 11.0881 30.2781 9.71234 29.8718 8.45123L29.6793 7.85355C29.5071 7.31864 29.4962 6.73185 29.649 6.20132C30.0929 4.65937 30.6107 3.39775 31.2322 2.34431C31.4081 2.04622 31.688 1.8753 32.0001 1.8753C32.3121 1.8753 32.5919 2.04622 32.7678 2.34431C33.1622 3.01276 33.5084 3.7511 33.8261 4.6016C34.0073 5.08699 34.5476 5.33331 35.0327 5.15176C35.5179 4.97058 35.7643 4.43017 35.5829 3.94516C35.2263 2.99075 34.8339 2.15551 34.3832 1.39141C33.8691 0.520277 32.9783 0 32 0C31.0217 0 30.1308 0.520277 29.6166 1.39153C28.9137 2.58301 28.3346 3.98679 27.8466 5.68266C27.5882 6.58043 27.6044 7.52983 27.894 8.42872L28.0866 9.02652C28.3314 9.78674 28.2482 10.6134 27.8584 11.2948L27.1509 12.5313C26.4456 13.7637 26.3439 15.2916 26.8786 16.6185L27.1069 17.1847C27.4668 18.0775 27.338 19.1359 26.7811 19.8913L26.4391 19.5562C25.8814 19.0097 25.4684 18.1938 25.3343 17.3737L25.235 16.7675C25.0933 15.9005 24.756 15.0629 24.2596 14.3452C23.2818 12.9317 22.3543 11.8112 21.4241 10.9198C20.6877 10.2141 19.7748 9.9903 18.9817 10.3218C18.1887 10.6529 17.7059 11.4597 17.6904 12.4798C17.6709 13.7673 17.8162 15.2146 18.1345 16.9043C18.146 16.9651 18.1607 17.0254 18.1742 17.0858C17.5522 17.0321 16.848 16.6955 16.2774 16.1755L15.8554 15.7909C14.4773 14.535 12.6649 14.0594 11.3454 14.607L10.8797 14.8005C10.6717 14.887 10.3824 14.9044 10.073 14.8512C9.22317 14.6976 8.47458 15.0454 8.16549 15.7379C7.80038 16.5562 8.14786 17.5663 9.02999 18.2513L9.21855 18.3979C9.65205 18.7346 10.0062 19.1555 10.2156 19.5826C10.9797 21.1418 12.7373 22.3777 14.3943 22.5215C14.4838 22.5452 15.5542 22.4785 16.6431 23.5131L17.6358 24.4565C14.1636 24.0374 9.7442 24.8925 5.88882 27.3541L5.14461 27.8295C4.41139 28.2977 3.95126 29.0391 3.91375 29.8127C3.88111 30.4862 4.17032 31.1137 4.7071 31.5347L5.81093 32.4002C5.1331 32.9131 4.58844 33.5882 4.25184 34.3819C4.03115 34.9026 3.65354 35.3564 3.15965 35.6943L2.5566 36.1072C1.86502 36.5803 1.57569 37.4176 1.83651 38.1907C2.10897 38.9974 2.88532 39.5084 3.76808 39.4644L5.39893 39.3815C7.13294 39.2934 7.37939 40.2934 9.50388 40.3745C8.99723 40.9036 8.51709 41.4646 8.06671 42.0573C7.75337 42.4697 7.83364 43.058 8.24601 43.3715C8.41556 43.5002 8.615 43.5626 8.81268 43.5625C9.09576 43.5625 9.3756 43.4348 9.56015 43.1922C11.237 40.9855 13.4699 39.0854 16.1044 38.0593C17.2168 37.626 18.2917 36.9372 19.2134 36.0671C19.6349 35.6688 20.0896 35.3143 20.5649 35.0133C21.3278 34.5297 22.2284 34.4016 23.1006 34.6527C23.7739 34.8465 24.3577 35.2557 24.7684 35.807C24.0608 36.2052 23.258 36.5093 22.372 36.7098C22.1492 36.7601 21.9209 36.8265 21.6932 36.9068C19.6401 37.6316 18.0243 39.6507 17.6724 41.9313C17.6334 42.1836 17.5552 42.4392 17.4402 42.6909C17.046 43.5525 16.2601 44.243 15.3897 44.4932C14.0768 44.8706 13.0737 45.5378 12.4079 46.4766C11.7338 47.4271 10.687 47.9977 9.80297 47.8989L7.46153 47.6343C7.37563 47.6247 7.34162 47.5922 7.31437 47.5428C7.2546 47.4348 7.23284 47.2096 7.36776 46.9305L7.6866 46.2704C7.91179 45.8042 7.71636 45.2434 7.24997 45.0181C6.78371 44.7925 6.22292 44.9883 5.99761 45.4547L5.67889 46.1146C5.3004 46.8981 5.2979 47.7706 5.67214 48.4489C5.99786 49.0392 6.5734 49.4216 7.2511 49.4981C9.57778 49.7539 9.64255 49.7855 10.0008 49.7855C11.4483 49.7855 12.9569 48.9448 13.9377 47.5617C14.3571 46.9704 15.0014 46.5564 15.9076 46.2958C17.0851 45.9575 18.1258 45.1579 18.7997 44.1022C18.8049 44.4059 18.8136 44.7056 18.8264 45.0008C17.3919 47.6971 16.5212 50.7205 16.2941 53.823L16.2241 54.7767C16.1547 55.7257 16.4927 56.5891 17.1285 57.0862C17.4815 57.3623 17.9006 57.5047 18.334 57.5047C18.5472 57.5047 18.7638 57.4702 18.9778 57.4002L21.2682 56.6502C21.4715 56.5837 21.6689 56.4981 21.8606 56.397C22.1566 56.9817 22.4827 57.588 22.8412 58.2217H20.1529C19.6676 58.2217 19.2176 58.4409 18.9179 58.823C18.6183 59.2051 18.513 59.6944 18.6288 60.1659C18.6991 60.4512 18.7889 60.7283 18.896 60.9895C19.6455 62.8183 21.438 64 23.4625 64H34.8686C35.3866 64 35.8063 63.5802 35.8063 63.0622C35.8063 62.5442 35.3866 62.1245 34.8686 62.1245H23.4625C22.2217 62.1245 21.0842 61.3825 20.6314 60.278C20.6073 60.2191 20.5844 60.1587 20.5627 60.0972H43.4367C43.4151 60.1587 43.3923 60.2191 43.368 60.278C42.9153 61.3824 41.7776 62.1245 40.537 62.1245H38.6178C38.0998 62.1245 37.68 62.5442 37.68 63.0622C37.68 63.5802 38.0998 64 38.6178 64H40.537C42.5612 64 44.3536 62.8183 45.1034 60.9895C45.2106 60.7279 45.3005 60.4506 45.3706 60.1657C45.4865 59.6946 45.3811 59.2052 45.0816 58.8232C44.782 58.4409 44.3318 58.2217 43.8464 58.2217H41.1583C41.517 57.5877 41.8431 56.9813 42.1388 56.3971C42.3304 56.4982 42.5279 56.5838 42.7311 56.6503L45.0217 57.4003C45.2356 57.4703 45.4522 57.5048 45.6655 57.5048C46.0989 57.5048 46.518 57.3623 46.8711 57.0862C47.5068 56.5891 47.8447 55.7257 47.7752 54.7768L47.7053 53.8231C47.4781 50.7206 46.6074 47.6971 45.173 45.0009C45.1857 44.7057 45.1945 44.4059 45.1996 44.102C45.8734 45.1577 46.914 45.9575 48.0917 46.2959C48.9981 46.5565 49.6424 46.9706 50.0618 47.5618C51.0624 48.9731 52.7374 49.9513 54.4072 49.7628L56.7483 49.4985C57.426 49.422 58.0015 49.0396 58.3273 48.4493C58.7015 47.771 58.6992 46.8985 58.3207 46.115L57.9367 45.3198C57.0522 43.4884 55.888 41.8194 54.5008 40.3745C56.6164 40.2918 56.8694 39.2933 58.6008 39.3817L60.2315 39.4646C61.1136 39.5088 61.8909 38.9978 62.1631 38.1908C62.4244 37.4178 62.1351 36.5806 61.4436 36.1072ZM57.1016 28.9349L57.8459 29.4102H57.846C58.1071 29.5769 58.2068 29.7801 58.2128 29.9034C58.2154 29.9597 58.2035 30.0053 58.1355 30.0588L56.2816 31.5125C55.5813 32.0615 54.39 32.1247 53.3178 31.6693C52.7347 31.4218 52.1077 31.2979 51.4425 31.2979C50.899 31.2979 50.3301 31.3806 49.7385 31.546C48.8668 31.7902 47.8352 31.6145 47.0474 31.088C46.8173 30.9343 46.6168 30.7578 46.451 30.5633C45.2215 29.1204 43.3583 28.2753 41.5524 28.2752C41.9204 27.5618 42.3659 27.244 42.8166 26.5065C43.8147 26.6361 44.8177 26.6158 45.7533 26.4444C49.6333 25.7342 53.9115 26.8979 57.1016 28.9349ZM43.1494 39.6292C43.2258 40.505 43.2775 41.3366 43.3054 42.132C42.9796 41.7282 42.6313 41.3334 42.2595 40.9509C41.5713 40.2429 40.9772 39.3493 40.5326 38.3616C41.3347 38.5933 42.1621 38.6379 43.1494 39.6292ZM48.9858 17.5619L49.4079 17.1772C50.3321 16.3353 51.3998 16.1168 51.9352 16.3394L52.4014 16.5331C52.8313 16.7113 53.3257 16.7838 53.8481 16.7475C53.2336 17.2569 52.6084 17.7212 52.1004 18.7572C51.6223 19.7325 50.4553 20.5653 49.4431 20.653L49.1516 20.6784C48.0786 20.7715 46.9535 21.3091 46.0648 22.1536C44.9759 23.1299 44.5805 23.7298 43.6536 24.1386C43.7239 23.5825 43.6834 23.1519 43.6899 22.1169C43.6836 20.5739 44.6312 19.6249 45.024 19.0124C45.4232 18.9312 47.1655 19.2208 48.9858 17.5619ZM34.6427 28.6807C35.7627 27.8014 36.5586 26.318 36.7197 24.809L36.7825 24.2215C36.8764 23.342 37.3103 22.4274 37.9147 21.8353L38.8735 20.8957C39.7184 20.0679 40.3172 18.8945 40.5166 17.6766L40.6157 17.0703C40.7117 16.4843 40.9486 15.8954 41.2828 15.4121C42.188 14.1036 43.0355 13.0771 43.8735 12.274C43.9335 12.2163 43.9902 12.1738 44.0412 12.1422C44.1817 12.0555 44.3692 12.1276 44.408 12.288C44.4225 12.3481 44.4329 12.421 44.4341 12.5082C44.4519 13.6683 44.3171 14.9926 44.0222 16.5567C43.8027 17.7211 43.1226 18.4163 42.9498 18.6932C40.7254 21.7485 42.8231 23.6165 40.9182 25.9491C40.0313 27.0479 39.4814 27.8096 39.2792 29.2851C39.2131 29.7312 39.2008 30.1771 39.2497 30.6051L39.3471 31.4585C39.4218 32.112 39.2675 32.8592 38.927 33.5344C38.4731 33.8445 38.0728 34.2279 37.7413 34.6687C37.0811 34.268 36.3396 34.0226 35.5623 33.9601C34.2516 33.8545 32.9774 34.2923 32.0001 35.1668C31.8893 35.0676 31.775 34.9741 31.657 34.8863C32.2047 34.0255 32.5351 33.0104 32.5813 32.0143C32.6008 31.5936 32.7004 31.1638 32.861 30.7593C32.8629 30.7549 32.8645 30.7505 32.8664 30.7461C33.4078 29.3941 34.2718 29.0325 34.6427 28.6807ZM19.5942 12.2787C19.6322 12.1291 19.805 12.0532 19.9387 12.1306C19.9948 12.1631 20.0585 12.2091 20.1264 12.2741C20.9645 13.0772 21.8119 14.1036 22.7171 15.4123C23.0515 15.8955 23.2882 16.4845 23.3841 17.0705L23.4834 17.6768C23.6825 18.8944 24.2813 20.0678 25.1263 20.896C25.5818 21.4539 27.0091 22.2701 27.2174 24.2217C27.2665 24.3938 27.2298 27.0105 29.3571 28.6807L30.0326 29.2113C30.4101 29.5075 30.7414 29.9329 30.9884 30.4279C30.8285 30.9168 30.7309 31.4245 30.7076 31.928C30.6732 32.6706 30.387 33.4576 29.9359 34.079C29.4521 33.9621 28.948 33.9194 28.4378 33.9604C27.6603 34.0228 26.9187 34.2684 26.2585 34.6692C25.9272 34.2287 25.5271 33.8453 25.0734 33.5353C24.7328 32.86 24.5785 32.1117 24.6529 31.4588L24.7504 30.6055C24.9119 29.1907 24.4158 27.582 23.4557 26.407L23.0819 25.9496C22.0378 24.6719 22.1825 23.3445 22.1855 22.1246C22.1903 20.9418 21.7765 19.6913 21.0501 18.6934C20.8406 18.3868 20.6053 18.1323 20.3681 17.6743C20.3228 17.5696 20.091 17.1576 19.9777 16.5571C19.683 14.9929 19.5482 13.6685 19.5658 12.5085C19.5671 12.4166 19.5785 12.3406 19.5942 12.2787ZM14.5566 20.653C13.5447 20.5653 12.3776 19.7325 11.8996 18.7571C11.4336 17.8066 10.8449 17.3128 10.1518 16.7475C10.6751 16.784 11.1689 16.7113 11.5987 16.533L12.0646 16.3394C12.5999 16.1168 13.668 16.3353 14.592 17.1772L15.014 17.5618C15.9236 18.3909 17.0576 18.9018 18.1249 18.9633L18.9758 19.0123C19.0386 19.1102 19.1038 19.2066 19.1722 19.3007L19.5339 19.7972C20.0231 20.469 20.3131 21.3363 20.3099 22.1169C20.3219 23.1754 20.271 23.5406 20.3463 24.1386C19.9582 23.9675 19.5772 23.7139 19.254 23.4069L17.9351 22.1536C16.3434 20.6412 14.6453 20.6764 14.5566 20.653ZM5.86432 30.0588C5.7963 30.0054 5.78429 29.9598 5.78704 29.9034C5.79305 29.7802 5.8927 29.577 6.15403 29.4102L6.89824 28.9349C10.0777 26.9048 14.3562 25.7324 18.2468 26.4445C19.182 26.6159 20.1849 26.6336 21.1832 26.504C21.2941 26.6857 21.415 26.86 21.544 27.0264L20.9504 27.4698C20.3401 27.9256 19.5708 28.1711 18.7825 28.1549L17.3508 28.1297C15.9763 28.1061 14.6744 28.5824 13.6794 29.4723L12.5376 30.4931C11.8821 31.0792 10.9807 31.3918 10.0637 31.3559L9.2917 31.3241C8.74328 31.3015 8.20538 31.3613 7.69423 31.4934L5.86432 30.0588ZM19.5608 33.4292C18.9844 33.7944 18.4341 34.2231 17.9256 34.7034C17.2343 35.356 16.4419 35.8785 15.6233 36.2276C13.356 36.2607 12.1146 37.6155 11.9685 37.7042C10.9139 38.5911 9.36909 38.7624 8.12448 38.1303C8.04596 38.1022 6.94413 37.4252 5.30353 37.5082L3.71181 37.5891L4.21908 37.242C5.00932 36.7011 5.61787 35.9652 5.97873 35.1139C6.47825 33.9359 7.76712 33.1386 9.2143 33.1978L9.98615 33.2297C11.3886 33.2889 12.772 32.7997 13.7879 31.8911L14.9296 30.8703C15.5619 30.3046 16.429 29.9865 17.3178 30.0049L18.7495 30.03C19.9483 30.0486 21.1308 29.6757 22.0727 28.9724L22.593 28.5839C22.8415 29.1774 22.9523 29.8206 22.8872 30.3924L22.7898 31.2457C22.7368 31.7099 22.7553 32.2003 22.8393 32.6916C21.7006 32.5533 20.54 32.8085 19.5608 33.4292ZM22.3175 38.6756C22.4764 38.6196 22.6342 38.5735 22.7861 38.5392C23.0181 38.4866 23.2442 38.426 23.4674 38.3615C23.0228 39.349 22.4288 40.2427 21.7403 40.9507C21.3686 41.3332 21.0204 41.7281 20.6945 42.1318C20.7225 41.3364 20.7737 40.5057 20.8501 39.6297C21.2773 39.2005 21.7785 38.866 22.3175 38.6756ZM20.6847 54.8677L18.3942 55.6177C18.3245 55.6405 18.3066 55.6267 18.284 55.6088C18.1745 55.5233 18.0686 55.2693 18.0946 54.9136L18.1647 53.9601C18.4655 49.8534 20.1322 45.2965 23.0852 42.258C23.9594 41.3589 24.7065 40.226 25.2456 38.9822C25.4989 38.3974 25.8 37.8418 26.1404 37.3309C26.7238 36.4549 27.6161 35.9078 28.588 35.8297C29.2189 35.7785 29.8508 35.9263 30.4039 36.2938C29.8672 37.0435 29.1908 37.7339 28.3887 38.3499C28.2011 38.4939 28.0136 38.6562 27.8311 38.8326C26.205 40.4053 25.4432 43.0494 25.9356 45.4118C25.9933 45.6895 26.0142 45.9881 25.9973 46.2997C25.9399 47.3644 25.4383 48.4271 24.688 49.0732C23.6154 49.9971 22.9326 51.0665 22.6587 52.2518C22.3644 53.5263 21.571 54.5776 20.6847 54.8677ZM25.0075 58.2217C24.3512 57.1121 23.7987 56.0978 23.3308 55.1432C23.8633 54.4656 24.2676 53.6208 24.4863 52.6742C24.6711 51.8747 25.1373 51.1617 25.9121 50.4945C27.053 49.5119 27.785 47.9814 27.8703 46.4008C27.8958 45.9273 27.8625 45.4658 27.7717 45.0294C27.4113 43.2997 27.972 41.306 29.1348 40.1811C29.2662 40.0541 29.3995 39.9387 29.5311 39.8375C30.516 39.0811 31.344 38.2221 32 37.282C32.6559 38.2222 33.4839 39.0811 34.4691 39.8378C34.6005 39.9387 34.7337 40.0541 34.8648 40.1809C36.028 41.306 36.5887 43.2997 36.2282 45.0293C36.1372 45.4653 36.1042 45.9267 36.1296 46.4008C36.215 47.9817 36.9469 49.512 38.0878 50.4944C38.8625 51.1617 39.329 51.8747 39.5137 52.6742C39.7324 53.6208 40.1367 54.4656 40.6691 55.1433C40.2018 56.0968 39.6492 57.1112 38.9923 58.2218H25.0075V58.2217ZM45.9052 54.9137C45.9312 55.2694 45.8254 55.5234 45.716 55.6089C45.6934 55.6269 45.6751 55.6407 45.6057 55.6178L43.3152 54.8678C42.4289 54.5777 41.6355 53.5264 41.3412 52.2519C41.0674 51.0667 40.3846 49.9973 39.3119 49.0734C38.5616 48.4273 38.0599 47.3645 38.0025 46.3001C37.9857 45.988 38.0065 45.6893 38.0642 45.4119C38.5566 43.0494 37.7949 40.4055 36.1687 38.8328C35.9865 38.6565 35.7987 38.4939 35.6112 38.35C34.809 37.7339 34.1327 37.0436 33.5961 36.2939C34.1292 35.9398 34.7549 35.7764 35.412 35.8299C36.3839 35.9079 37.2761 36.4551 37.8596 37.3311C38.1997 37.8415 38.5008 38.397 38.7543 38.9823C39.2935 40.2263 40.0406 41.3591 40.9146 42.2581C43.8581 45.2865 45.5334 49.8378 45.8353 53.9601L45.9052 54.9137ZM56.6323 46.9306C56.7671 47.2097 56.7452 47.4349 56.6857 47.5431C56.6584 47.5924 56.6244 47.6248 56.5384 47.6346L54.1971 47.899C53.3143 47.9972 52.2663 47.4274 51.5922 46.4769C50.9265 45.538 49.9231 44.8705 48.6101 44.4933C47.7397 44.2431 46.9541 43.5526 46.56 42.6911C46.4447 42.4392 46.3666 42.1836 46.3277 41.9314C45.9758 39.651 44.36 37.6318 42.3067 36.9069C42.0793 36.8265 41.8509 36.7603 41.6278 36.7098C40.7418 36.5092 39.9372 36.2067 39.2296 35.8082C39.6391 35.2577 40.2219 34.8492 40.8937 34.6544C41.7678 34.401 42.6705 34.5285 43.4353 35.0133C43.9105 35.3143 44.3652 35.6689 44.7868 36.0671C45.7082 36.9371 46.7833 37.6259 47.8956 38.0592C51.5722 39.4912 54.6035 42.73 56.2483 46.1353L56.6323 46.9306ZM58.6964 37.5084C57.107 37.4275 55.9125 38.117 55.8756 38.1303C54.6309 38.7622 53.086 38.5912 52.0313 37.7043C51.8873 37.617 50.6382 36.2561 48.3745 36.2269C47.5565 35.8776 46.7649 35.3556 46.0742 34.7035C45.5656 34.2231 45.0154 33.7944 44.4391 33.4293C43.4596 32.8085 42.2991 32.5534 41.1607 32.6921C41.359 31.5329 41.1245 30.8747 41.0976 30.1793C42.4784 30.0102 44.052 30.64 45.0233 31.7799C45.3012 32.106 45.6316 32.398 46.0053 32.6477C47.2541 33.4821 48.8388 33.7453 50.2436 33.3524C51.1518 33.0984 51.9178 33.1127 52.5849 33.3959C53.2968 33.6982 54.0429 33.8467 54.761 33.8467C55.3602 33.8467 55.9385 33.7409 56.4621 33.5371C57.1745 33.8737 57.733 34.4343 58.0211 35.1143C58.3821 35.9655 58.9905 36.7012 59.7809 37.2424L60.2881 37.5895L58.6964 37.5084Z" fill="#FF8764"/>
</g>
<defs>
<clipPath id="clip0_120_388">
<rect width="64" height="64" fill="white"/>
</clipPath>
</defs>
</svg>
