<svg width="64" height="64" viewBox="0 0 64 64" fill="none" xmlns="http://www.w3.org/2000/svg">
<g clip-path="url(#clip0_123_165)">
<path d="M37.9253 20.1305V7.50342C37.9253 6.98554 37.5056 6.56592 36.9878 6.56592H11.7336C11.2159 6.56592 10.7961 6.98554 10.7961 7.50342V20.1305C10.7961 20.6484 11.2159 21.068 11.7336 21.068H36.9876C37.5055 21.068 37.9253 20.6484 37.9253 20.1305ZM36.0503 19.193H12.6711V8.44092H36.0501V19.193H36.0503Z" fill="#008055"/>
<path d="M19.3099 41.4165H11.7336C11.2159 41.4165 10.7961 41.8361 10.7961 42.354C10.7961 42.8719 11.2159 43.2915 11.7336 43.2915H19.3098C19.8275 43.2915 20.2473 42.8719 20.2473 42.354C20.2473 41.8361 19.8276 41.4165 19.3099 41.4165Z" fill="#008055"/>
<path d="M19.3099 45.4573H11.7336C11.2159 45.4573 10.7961 45.8769 10.7961 46.3948C10.7961 46.9127 11.2159 47.3323 11.7336 47.3323H19.3098C19.8275 47.3323 20.2473 46.9127 20.2473 46.3948C20.2473 45.8769 19.8276 45.4573 19.3099 45.4573Z" fill="#008055"/>
<path d="M49.4887 18.94C47.8723 18.94 46.3185 19.2121 44.8699 19.712V9.25625C44.8699 8.73838 44.4503 8.31875 43.9324 8.31875C43.4145 8.31875 42.9949 8.73838 42.9949 9.25625V20.5146C38.4243 22.8758 35.2924 27.647 35.2924 33.1362C35.2924 35.6839 35.9705 38.1666 37.2577 40.3461L35.3405 46.0988C35.2283 46.4355 35.316 46.807 35.567 47.0581C35.7458 47.2367 35.9854 47.3326 36.2302 47.3326C36.3293 47.3326 36.4294 47.3169 36.5264 47.2845L42.279 45.3674C42.514 45.5061 42.7533 45.6365 42.9952 45.761V50.0025H27.9374C27.4197 50.0025 26.9999 50.4221 26.9999 50.94C26.9999 51.4579 27.4197 51.8775 27.9374 51.8775H42.9949V54.0438H7.31404C5.68316 54.0438 4.35616 55.3706 4.35616 57.0015C4.35616 58.6325 5.68304 59.9594 7.31404 59.9594H42.9949V62.125H7.31366C4.48904 62.125 2.19116 59.8265 2.19116 57.0013C2.19116 54.176 4.48904 51.8775 7.31366 51.8775H23.5624C24.0802 51.8775 24.4999 51.4579 24.4999 50.94C24.4999 50.4221 24.0802 50.0025 23.5624 50.0025H7.31366C5.29241 50.0025 3.46979 50.865 2.19116 52.2402V6.99875C2.19116 4.1735 4.48916 1.875 7.31366 1.875H42.9949V4.88125C42.9949 5.39913 43.4145 5.81875 43.9324 5.81875C44.4503 5.81875 44.8699 5.39913 44.8699 4.88125V0.9375C44.8699 0.419625 44.4503 0 43.9324 0H7.31366C3.45516 0 0.316162 3.13963 0.316162 6.99875V57.0013C0.316162 60.8604 3.45516 64 7.31366 64H43.9324C44.4503 64 44.8699 63.5804 44.8699 63.0625V46.5625C46.3463 47.07 47.9049 47.3325 49.4887 47.3325C53.2395 47.3325 56.776 45.8831 59.4467 43.2515C59.8154 42.8881 59.8197 42.2946 59.4563 41.9258C59.0928 41.5569 58.4992 41.5525 58.1305 41.9161C55.813 44.2 52.7439 45.4576 49.4887 45.4576C47.1462 45.4576 44.8672 44.7975 42.8983 43.5485C42.6602 43.3974 42.367 43.3616 42.0997 43.4507L37.7119 44.913L39.1742 40.5252C39.2633 40.2579 39.2274 39.9647 39.0764 39.7266C37.8274 37.7577 37.1673 35.4789 37.1673 33.1362C37.1673 26.3422 42.6947 20.815 49.4885 20.815C56.2818 20.815 61.8085 26.3424 61.8085 33.1362C61.8085 35.071 61.3734 36.9215 60.5152 38.6369C60.2834 39.0999 60.4709 39.663 60.934 39.8946C61.3974 40.1264 61.9604 39.9389 62.1919 39.4756C63.1817 37.4976 63.6835 35.3646 63.6835 33.1361C63.6837 25.3084 57.3159 18.94 49.4887 18.94ZM7.31404 58.0844C6.71704 58.0844 6.23116 57.5985 6.23116 57.0015C6.23116 56.4045 6.71691 55.9188 7.31404 55.9188H42.9949V58.0844H7.31404Z" fill="#008055"/>
<path d="M49.4883 22.9812C47.8574 22.9812 46.5305 24.3081 46.5305 25.9389C46.5305 27.5699 47.8574 28.8968 49.4883 28.8968C51.1193 28.8968 52.4461 27.5699 52.4461 25.9389C52.4463 24.3081 51.1193 22.9812 49.4883 22.9812ZM49.4883 27.0218C48.8913 27.0218 48.4055 26.5359 48.4055 25.9389C48.4055 25.3419 48.8913 24.8562 49.4883 24.8562C50.0853 24.8562 50.5711 25.3419 50.5711 25.9389C50.5711 26.5359 50.0854 27.0218 49.4883 27.0218Z" fill="#008055"/>
<path d="M49.4883 31.0625C47.8574 31.0625 46.5305 32.3894 46.5305 34.0202V40.3339C46.5305 41.9647 47.8574 43.2916 49.4883 43.2916C51.1193 43.2916 52.4461 41.9647 52.4461 40.3339V34.0202C52.4463 32.3894 51.1193 31.0625 49.4883 31.0625ZM50.5713 40.3339C50.5713 40.9309 50.0854 41.4166 49.4884 41.4166C48.8914 41.4166 48.4056 40.9309 48.4056 40.3339V34.0202C48.4056 33.4232 48.8914 32.9375 49.4884 32.9375C50.0854 32.9375 50.5713 33.4232 50.5713 34.0202V40.3339Z" fill="#008055"/>
</g>
<defs>
<clipPath id="clip0_123_165">
<rect width="64" height="64" fill="white"/>
</clipPath>
</defs>
</svg>
