<svg width="64" height="64" viewBox="0 0 64 64" fill="none" xmlns="http://www.w3.org/2000/svg">
<path d="M8.98225 51.0144L15 54.0226V60.75C15 61.4404 15.5597 62 16.25 62H29.5C30.1903 62 30.75 61.4404 30.75 60.75V44.4313C30.75 40.6016 27.8771 37.4256 24.0761 37.0446C24.0614 37.0405 18.7886 36.2173 16.3424 33.771L13.5351 30.965C12.5906 30.0204 11.3351 29.5 10 29.5V19.5C10 16.743 7.757 14.5 5 14.5C2.243 14.5 0 16.743 0 19.5V36.48C0 39.4998 0.83925 42.4539 2.42688 45.0228C4.01438 47.5916 6.28125 49.6635 8.98225 51.0144ZM2.5 19.5C2.5 18.1215 3.6215 17 5 17C6.3785 17 7.5 18.1215 7.5 19.5V30.1701C5.9755 31.0516 5 32.6951 5 34.5C5 35.835 5.52025 37.0904 6.46488 38.035L12.8661 44.4375C13.354 44.9256 14.1456 44.9259 14.6339 44.4376C15.122 43.9495 15.1221 43.1581 14.634 42.6699L8.23275 36.2673C7.76025 35.7949 7.5 35.1672 7.5 34.5C7.5 33.442 8.16963 32.4945 9.1665 32.1424C9.16687 32.1423 9.16725 32.142 9.16763 32.1419C10.0296 31.8364 11.0524 32.0176 11.7676 32.7329L14.5749 35.539C17.4731 38.4371 23.8053 39.5278 23.8179 39.5312C26.3446 39.7845 28.25 41.8911 28.25 44.4313V59.5H17.5V53.25C17.5 52.7765 17.2324 52.3436 16.809 52.132L10.1004 48.7783C5.41237 46.4338 2.5 41.7214 2.5 36.48V19.5Z" fill="#8ED926"/>
<path d="M30.75 30.75C30.75 31.4404 31.3097 32 32 32C32.6903 32 33.25 31.4404 33.25 30.75V27H38.035C45.0461 27 50.75 21.2961 50.75 14.285V8.25C50.75 7.7445 50.4454 7.28862 49.9784 7.09512C49.5112 6.90162 48.9736 7.00862 48.6161 7.36612C47.2401 8.74225 45.4108 9.5 43.465 9.5C39.2844 9.5 35.5689 11.5284 33.25 14.6524V3.25C33.25 2.55962 32.6903 2 32 2C31.3097 2 30.75 2.55962 30.75 3.25V9.6525C28.4311 6.5285 24.7156 4.5 20.535 4.5C18.5892 4.5 16.7599 3.74225 15.3839 2.36612C15.0265 2.00862 14.4887 1.9015 14.0216 2.09512C13.5546 2.28875 13.25 2.7445 13.25 3.25V9.285C13.25 16.2961 18.9539 22 25.965 22H30.75V30.75ZM43.465 12C45.1681 12 46.805 11.5677 48.25 10.7551V14.285C48.25 19.9176 43.6676 24.5 38.035 24.5H35.75L42.75 19.25C43.3022 18.8359 43.4141 18.0522 43 17.5C42.5859 16.9477 41.8024 16.8356 41.25 17.25L33.25 23.25V22.215C33.25 16.5825 37.8324 12 43.465 12ZM15.75 9.285V5.75512C17.1951 6.56775 18.8319 7 20.535 7C26.1676 7 30.75 11.5825 30.75 17.215V18.25L22.75 12.25C22.1978 11.8359 21.4143 11.9477 21 12.5C20.5859 13.0522 20.6978 13.8359 21.25 14.25L28.25 19.5H25.965C20.3324 19.5 15.75 14.9176 15.75 9.285Z" fill="#8ED926"/>
<path d="M57.375 49.25C58.0654 49.25 58.625 48.6904 58.625 48C58.625 47.3096 58.0654 46.75 57.375 46.75C56.6846 46.75 56.125 47.3096 56.125 48C56.125 48.6904 56.6846 49.25 57.375 49.25Z" fill="#8ED926"/>
<path d="M59 14.5C56.243 14.5 54 16.743 54 19.5V29.5C52.6649 29.5 51.4094 30.0202 50.4651 30.9646L47.6574 33.7711C45.2653 36.1635 39.9455 37.0401 39.9329 37.0438C36.1229 37.4258 33.25 40.6016 33.25 44.4314V60.75C33.25 61.4404 33.8098 62 34.5 62H47.75C48.4403 62 49 61.4404 49 60.75V54.0226L53.0913 51.9774C53.7086 51.6686 53.959 50.9179 53.6504 50.3003C53.3418 49.6829 52.5912 49.4325 51.9734 49.7411L47.191 52.1317C46.7676 52.3438 46.5 52.7765 46.5 53.25V59.5H35.75V44.4313C35.75 41.8911 37.6554 39.7845 40.1911 39.5303C40.2037 39.5268 46.3694 38.5946 49.4249 35.539L52.2326 32.7325C52.9481 32.017 53.9717 31.8368 54.8322 32.1418H54.8324C54.8328 32.1419 54.8331 32.1421 54.8335 32.1423C55.8304 32.4946 56.5 33.4421 56.5 34.5C56.5 35.1672 56.2398 35.7949 55.7674 36.2675L49.3661 42.67C48.878 43.1582 48.8781 43.9496 49.3662 44.4378C49.8542 44.9258 50.6459 44.9259 51.134 44.4376L57.5353 38.0351C58.4798 37.0905 59 35.835 59 34.5C59 32.6951 58.0245 31.0516 56.5 30.1701V19.5C56.5 18.1215 57.6215 17 59 17C60.3785 17 61.5 18.1215 61.5 19.5V36.48C61.5 38.767 60.9229 41.0375 59.8309 43.046C59.501 43.6525 59.7254 44.4115 60.332 44.7412C60.9384 45.0709 61.6976 44.8466 62.0272 44.2401C63.3179 41.8664 64 39.183 64 36.48V19.5C64 16.743 61.757 14.5 59 14.5Z" fill="#8ED926"/>
</svg>
