<svg width="64" height="64" viewBox="0 0 64 64" fill="none" xmlns="http://www.w3.org/2000/svg">
<g clip-path="url(#clip0_120_307)">
<path d="M39.7817 10.8515C38.7705 11.8207 38.085 12.9973 37.7439 14.3484L39.5625 14.8074C39.8159 13.8027 40.3263 12.9273 41.0796 12.2053C43.5461 9.84088 43.9064 8.40064 43.9537 8.13595L42.1072 7.80662C42.1072 7.80662 42.1085 7.79649 42.1134 7.77661C42.1107 7.78749 41.8192 8.89839 39.7817 10.8515Z" fill="#008055"/>
<path d="M45.698 15.6852L44.4943 14.2468C41.559 16.7032 41.3888 20.6701 41.3831 20.8377L43.2573 20.9027C43.2587 20.87 43.3973 17.6105 45.698 15.6852Z" fill="#008055"/>
<path d="M44.9231 24.7625L46.2884 21.1423L48.0438 21.8043L46.6785 25.4245L44.9231 24.7625Z" fill="#008055"/>
<path d="M53.2992 10.6139L54.5385 9.2062C53.5488 8.33486 52.3851 7.76584 51.0799 7.51478C48.3084 6.9819 47.4603 6.2077 47.4519 6.19995C47.4668 6.21395 47.4733 6.22196 47.4733 6.22196L46.1021 7.50128C46.2855 7.69795 47.3705 8.71133 50.7257 9.35649C51.6982 9.54354 52.5639 9.96664 53.2992 10.6139Z" fill="#008055"/>
<path d="M48.9681 12.9258L48.739 14.7872C51.6934 15.151 53.6049 17.817 53.6237 17.8439L55.1607 16.7692C55.0647 16.6316 52.767 13.3935 48.9681 12.9258Z" fill="#008055"/>
<path d="M50.1284 21.1829L51.2424 19.6731L54.356 21.9705L53.2419 23.4803L50.1284 21.1829Z" fill="#008055"/>
<path d="M49.2676 25.5244L51.0662 24.9937L51.9154 27.8714L50.1168 28.4021L49.2676 25.5244Z" fill="#008055"/>
<path d="M9.33508 7.6311C7.97349 7.96006 6.78907 8.63197 5.8147 9.6281L7.15541 10.9396C7.87996 10.1989 8.76156 9.69912 9.77569 9.45406C13.0968 8.65148 14.1329 7.58821 14.3068 7.38316L12.8768 6.16973C12.8768 6.16973 12.8828 6.16148 12.8971 6.14673C12.8893 6.15486 12.0785 6.96818 9.33508 7.6311Z" fill="#008055"/>
<path d="M7.28222 18.0663C7.29972 18.0387 9.05928 15.2915 12.0163 14.7851L11.6997 12.9365C7.927 13.5827 5.78434 16.9253 5.69507 17.0673L7.28222 18.0663Z" fill="#008055"/>
<path d="M6.7627 22.25L9.76404 19.8095L10.9475 21.2648L7.94612 23.7054L6.7627 22.25Z" fill="#008055"/>
<path d="M19.5454 11.8452C20.2917 12.496 20.8271 13.2971 21.137 14.2264L22.9162 13.6334C22.4992 12.3824 21.7797 11.3052 20.778 10.4316C18.6508 8.57662 18.3072 7.48072 18.304 7.46997C18.3097 7.4896 18.3114 7.4996 18.3114 7.4996L16.4827 7.91558C16.5424 8.1779 16.9704 9.5995 19.5454 11.8452Z" fill="#008055"/>
<path d="M15.0962 15.5385C17.4665 17.3391 17.7772 20.6049 17.7801 20.6377L18.7145 20.5587L19.6491 20.4821C19.6353 20.315 19.2786 16.3606 16.2307 14.0452L15.0962 15.5385Z" fill="#008055"/>
<path d="M13.0649 21.7678L14.7866 21.0233L16.3221 24.5738L14.6004 25.3184L13.0649 21.7678Z" fill="#008055"/>
<path d="M9.44653 28.0012L10.1607 25.0875L11.9818 25.5339L11.2676 28.4476L9.44653 28.0012Z" fill="#008055"/>
<path d="M32.4616 40.9502L30.5873 41.0131C30.5873 41.0131 30.5859 41.001 30.5871 40.9766C30.5867 40.9858 30.5318 41.9216 29.2388 43.8259C28.563 44.8213 28.1978 45.9326 28.1533 47.1289L30.0274 47.1986C30.0587 46.3595 30.3154 45.5792 30.7905 44.8796C32.4258 42.4707 32.4695 41.1836 32.4616 40.9502Z" fill="#008055"/>
<path d="M33.7023 45.7778C31.6838 48.3576 32.2487 51.7043 32.2737 51.8455L34.1204 51.5181C34.1158 51.4918 33.6708 48.8616 35.1795 46.9335L33.7023 45.7778Z" fill="#008055"/>
<path d="M35.8689 54.3958L36.3553 51.189L38.2101 51.4703L37.7237 54.6771L35.8689 54.3958Z" fill="#008055"/>
<path d="M38.0793 40.9239C38.8823 40.9085 39.6397 41.0968 40.332 41.4856L41.2505 39.8504C40.2627 39.2955 39.1791 39.0254 38.0418 39.0488C35.7401 39.0951 34.926 38.6311 34.9182 38.6265C34.9392 38.6388 34.9485 38.6466 34.9485 38.6466L33.8743 40.184C34.0657 40.3178 35.1696 40.9826 38.0793 40.9239Z" fill="#008055"/>
<path d="M37.2456 43.8551L37.4096 45.7233C39.8239 45.5106 41.8131 47.3176 41.8329 47.336L43.1117 45.964C43.007 45.8661 40.5095 43.5682 37.2456 43.8551Z" fill="#008055"/>
<path d="M39.594 50.7163L40.3686 49.0078L43.3224 50.3469L42.5479 52.0554L39.594 50.7163Z" fill="#008055"/>
<path d="M59.5576 40.4245C57.3646 37.6131 54.4895 35.7135 51.6694 35.2125C47.6776 34.5032 44.9244 35.8541 43.534 36.8313C43.2225 36.3741 42.8907 35.9443 42.537 35.5502C41.1801 34.0384 39.6458 33.1597 38.0429 32.9571L39.9428 25.1969C41.2177 26.4789 42.6269 27.6433 44.1365 28.6308C47.3017 30.7015 51.991 34.0875 52.038 34.1215L53.0225 34.8328L53.4616 33.7003C53.4813 33.6491 55.4643 28.5404 57.113 24.7968C59.54 19.2863 60.0178 12.6336 58.3602 7.43509L56.5734 8.00499C58.0981 12.7864 57.6473 18.9311 55.3967 24.041C54.2034 26.7507 52.8393 30.1615 52.1544 31.8968C50.5915 30.7803 47.4792 28.5765 45.1631 27.0614C42.2312 25.1433 39.6905 22.5412 37.816 19.5364C36.0802 16.7539 35.063 13.8327 34.9516 11.3106C34.8796 9.68191 35.1601 7.45147 36.9058 6.07513C38.5984 4.74055 40.2183 4.26005 41.7199 4.64665C42.8492 4.93734 43.5198 5.63489 43.5216 5.63664L44.7262 6.94885L45.1263 5.21316C45.1284 5.20391 45.3617 4.26405 46.1589 3.38796C47.2513 2.18728 48.8497 1.69678 50.9109 1.93184C52.9311 2.16153 54.7069 3.71216 55.9114 6.29793L57.6116 5.50599C56.1209 2.30581 53.8164 0.374578 51.123 0.0682519C47.768 -0.313093 45.8176 0.976479 44.7718 2.12564C44.3434 2.59651 44.0306 3.08288 43.8063 3.50936C43.4069 3.2693 42.9037 3.02899 42.304 2.86158C40.8379 2.4521 38.51 2.42209 35.7447 4.60226C33.8691 6.08113 32.947 8.42934 33.078 11.3933C33.2542 15.3796 35.2792 19.8077 38.4189 23.5345L36.095 33.0269C35.9092 33.0591 35.729 33.096 35.5557 33.1384C33.0414 27.7928 30.5799 17.8002 30.5541 17.6953L30.5237 17.7027V15.7459C30.5237 13.9547 29.1468 12.4797 27.3958 12.3222C27.4552 11.8072 27.4887 11.3013 27.4916 10.8093C27.5091 7.80744 26.496 5.45885 24.5615 4.01736C21.8541 1.99973 19.5194 2.13289 18.0376 2.60013C17.4305 2.79156 16.9154 3.0545 16.507 3.31031C16.2827 2.90184 15.9686 2.44097 15.5346 1.99473C14.4735 0.903586 12.4767 -0.293589 8.98997 0.19916C6.85281 0.501485 5.00847 1.83057 3.65613 4.04275C0.964085 8.4466 0.638003 15.6928 2.84468 22.0738L4.61712 21.4609C2.58336 15.58 2.8403 8.97335 5.25628 5.02099C5.98872 3.82282 7.27666 2.33582 9.25253 2.05637C11.3868 1.75442 13.0282 2.15402 14.1316 3.24367C14.9613 4.06313 15.19 5.00324 15.1906 5.00574L15.5715 6.7458L16.7904 5.44697C16.7969 5.44009 17.4713 4.74517 18.6011 4.38908C20.1493 3.90134 21.7775 4.28218 23.4406 5.52137C25.256 6.8742 25.6255 9.13789 25.6159 10.7986C25.5899 15.2656 22.6305 22.205 16.1945 26.8856C13.7999 28.627 10.9051 30.8886 9.44008 32.0436C8.65113 30.2924 7.07024 26.8221 5.8308 24.3474C5.65238 23.9911 5.48034 23.6243 5.31942 23.2571L3.60162 24.0097C3.77541 24.4062 3.96121 24.8024 4.15388 25.1874C5.84781 28.5694 8.19677 33.8548 8.22027 33.9078L8.71315 35.018L9.66238 34.2602C9.70527 34.2259 13.99 30.8078 17.2975 28.4023C17.9946 27.8955 18.6664 27.3502 19.3122 26.7736V35.2119C17.944 34.1834 15.719 33.4545 12.3814 34.8723C8.91495 36.3448 7.95946 38.8512 6.94796 41.5047C6.15726 43.5788 5.26116 45.9295 3.01247 48.3857L1.35181 50.1997L3.79854 49.952C4.24441 49.9068 13.8052 48.8968 19.3122 45.0603V49.8014H13.3732V58.3036H15.8738V64.0002H17.7493V58.3034H25.8919V56.428H15.2489V51.6768H27.2129C28.792 53.5061 30.7797 55.1521 32.991 56.428H27.6506V58.3034H37.0872C39.9283 59.447 43.3807 60.9694 43.4199 60.9866L44.5311 61.4771L44.7244 60.2779C44.7274 60.2591 44.8558 59.4647 45.0546 58.3034H49.0075V64.0001H50.8829V58.3034H53.3836V49.8013H46.5269C46.6117 48.7942 46.6281 47.7807 46.5792 46.7761C55.5834 47.0653 61.1659 50.0608 61.2221 50.0915L62.4712 50.7786L62.6075 49.3596C62.8806 46.516 61.769 43.2592 59.5576 40.4245ZM33.8072 33.8269C32.3678 34.6557 31.6057 35.8986 31.265 36.9911C31.043 36.9227 30.793 36.8646 30.5236 36.8224V24.6773C31.4338 27.7224 32.6006 31.2335 33.8072 33.8269ZM23.5188 42.8995L21.1878 42.527V35.3801L28.648 36.572V36.8738C27.5128 37.1181 26.17 37.8007 24.8451 39.3961C24.0356 40.371 23.5914 41.5571 23.5188 42.8995ZM28.6481 22.2927V27.1495L21.1879 25.9576V24.923C22.1601 23.864 23.0477 22.7253 23.8361 21.5239L28.6481 22.2927ZM28.6481 34.6728L21.1879 33.4809V27.857L28.6481 29.0489V34.6728ZM27.0715 14.183H27.0851C27.947 14.183 28.648 14.8841 28.648 15.7459V20.3935L24.8794 19.7913C25.9008 17.934 26.6453 16.0219 27.0715 14.183ZM5.92032 47.7563C7.34756 45.7219 8.08186 43.7954 8.70052 42.1727C9.67739 39.6101 10.3832 37.7587 13.1149 36.5984C15.0949 35.7574 16.7423 35.7505 18.0116 36.5781C18.7383 37.052 19.1516 37.6839 19.3124 37.9692V42.6738C15.9613 45.7162 9.40782 47.1718 5.92032 47.7563ZM21.1879 49.8013V44.4263L23.6533 44.8203C23.6979 45.0654 23.7503 45.3133 23.8158 45.5655C24.1868 46.993 24.8653 48.4273 25.7814 49.8013H21.1879ZM43.0701 58.7872C41.5441 58.1246 38.7472 56.9253 36.6649 56.1196C33.946 55.0674 31.4268 53.3906 29.3798 51.2703C27.4881 49.3108 26.1568 47.1174 25.6309 45.0939C25.296 43.8053 25.1383 41.9789 26.2879 40.5946C27.5854 39.0325 28.8172 38.6231 29.7523 38.6231C30.674 38.6231 31.3075 39.021 31.4311 39.1053L32.8828 40.1374L32.9121 38.3564C32.9142 38.2272 33.0093 35.1854 36.9445 34.8033C38.7693 34.6264 40.2344 35.7929 41.1411 36.8031C44.1688 40.1768 45.4777 46.4116 44.3243 51.9649C43.8392 54.3004 43.3381 57.1938 43.0701 58.7872ZM51.508 51.6768V56.428H45.3823C45.618 55.1086 45.8919 53.6401 46.1608 52.3462C46.2069 52.1241 46.2483 51.9008 46.287 51.6768H51.508ZM46.4113 44.895C46.1059 42.5644 45.4503 40.3443 44.4897 38.4518C45.5255 37.6913 47.8474 36.4383 51.3416 37.0591C53.6765 37.4739 56.1951 39.1633 58.079 41.578C59.635 43.5728 60.5671 45.7718 60.743 47.7959C58.4538 46.8202 53.4361 45.0823 46.4113 44.895Z" fill="#008055"/>
<path d="M47.1121 39.228L48.8636 38.5567L50.2825 42.2584L48.5309 42.9298L47.1121 39.228Z" fill="#008055"/>
<path d="M52.4343 40.2454L54.2517 39.7802L55.2118 43.5317L53.3945 43.9968L52.4343 40.2454Z" fill="#008055"/>
</g>
<defs>
<clipPath id="clip0_120_307">
<rect width="64" height="64" fill="white"/>
</clipPath>
</defs>
</svg>
