<svg width="65" height="65" viewBox="0 0 65 65" fill="none" xmlns="http://www.w3.org/2000/svg">
<g clip-path="url(#clip0_252_7)">
<mask id="path-1-inside-1_252_7" fill="white">
<path d="M52.9227 12.9653C52.9316 12.5903 52.8867 12.2125 52.7833 11.8438C52.4867 10.7857 51.7482 9.90627 50.7574 9.43122L40.1937 4.36566C40.0936 4.31767 39.9876 4.28301 39.8786 4.26245L17.344 0.0220847C16.6971 -0.0996633 16.0643 0.291606 15.884 0.924594L13.4166 9.59054C13.2663 10.1187 13.4733 10.6646 13.8954 10.9699C8.18941 15.7968 4.64006 22.6728 4.0576 30.175C4.00314 30.876 4.52732 31.4884 5.22823 31.5429C5.26175 31.5456 5.29514 31.5468 5.32815 31.5468C5.98665 31.5468 6.54423 31.0395 6.59603 30.3721C6.86948 26.8508 7.86264 23.4812 9.47304 20.441L13.2091 23.2635L10.5956 27.8369C10.4053 28.17 10.3752 28.5711 10.5138 28.9287C10.6524 29.2863 10.9449 29.5624 11.31 29.6801L16.0129 31.1975L16.2282 33.9828L13.2899 36.333C12.8907 36.6522 12.7213 37.1791 12.8594 37.671L13.8703 41.2742C13.9635 41.6065 14.1874 41.8865 14.491 42.0506L19.4027 44.7036L18.213 48.7614L17.6981 48.5625C16.1432 47.9619 14.3717 48.4566 13.3433 49.7359C10.9711 47.1821 9.12684 44.1512 7.97029 40.88C7.73594 40.217 7.00799 39.87 6.34567 40.1041C5.68273 40.3385 5.33525 41.0658 5.56974 41.7287C7.00735 45.7952 9.41007 49.5229 12.5252 52.5362C12.5477 52.7442 12.5871 52.9515 12.6443 53.1559C12.941 54.2141 13.6795 55.0935 14.6702 55.5685L25.234 60.6341C25.3341 60.6821 25.4401 60.7167 25.5491 60.7373C25.5491 60.7373 48.2422 64.9999 48.3203 64.9999C48.879 64.9999 49.3857 64.6306 49.5439 64.0753L52.0112 55.4093C52.161 54.8828 51.9557 54.339 51.5364 54.033C54.1468 51.6648 56.3266 48.8121 57.9057 45.6758C59.9236 41.6683 60.9466 37.3455 60.9466 32.8275C60.9466 25.35 58.1014 18.3217 52.9227 12.9653ZM43.1708 24.4929L42.8634 19.5141L45.9901 15.7653L47.7299 16.4374C49.1667 16.9925 50.7887 16.6116 51.8382 15.5408C55.0288 19.1266 57.1309 23.452 57.9771 28.1172L46.4753 30.0545C46.2478 30.0928 46.0349 30.1922 45.8596 30.3422L41.3767 34.1736L37.3805 32.3426L37.2814 27.9417L42.4026 25.7411C42.8966 25.529 43.204 25.0294 43.1708 24.4929ZM18.0148 2.73926L39.2433 6.7341L49.6565 11.7273C49.9915 11.888 50.2312 12.1735 50.3316 12.5314C50.4319 12.8893 50.3757 13.2578 50.1728 13.5693C49.8467 14.0705 49.2052 14.2777 48.6475 14.0622L39.4251 10.4994C39.2674 10.4385 39.0989 10.408 38.9304 10.4143L31.3026 10.6298C30.8193 10.6435 30.3854 10.9296 30.1828 11.3685C29.98 11.8075 30.0434 12.3233 30.3464 12.7003L33.6772 16.8426C34.1986 17.4911 33.9634 18.3856 33.2867 18.8025C33.0209 18.9662 32.7564 19.0969 32.4353 19.0954C32.0353 19.0934 31.747 18.9074 31.459 18.653L25.9922 13.7975C25.7586 13.5901 25.4575 13.4762 25.1468 13.4762C25.1206 13.4762 25.0945 13.477 25.0682 13.4787C23.554 13.5717 22.2858 13.1669 21.3005 12.2733C20.5357 11.5795 20.2154 10.8296 20.2153 10.8296C20.073 10.4722 19.7768 10.1984 19.4094 10.0845L16.2059 9.09136L18.0148 2.73926ZM21.5192 42.9531L16.1759 40.0669L15.5385 37.7951L18.3445 35.5505C18.6736 35.2874 18.8512 34.8783 18.8187 34.4582L18.4856 30.15C18.4457 29.6349 18.0986 29.195 17.6071 29.0365L13.5843 27.7386L15.9753 23.5548C16.2931 22.9987 16.1484 22.2932 15.6375 21.9073L10.7861 18.2419C12.3865 15.842 14.4014 13.704 16.7737 11.9333L18.1404 12.3571C18.3937 12.8018 18.8234 13.4371 19.4802 14.0578C20.4575 14.9815 22.1271 16.0384 24.6485 16.0384C24.6593 16.0384 24.6698 16.0382 24.6808 16.0382L29.7411 20.5326C30.5979 21.3781 31.8255 21.7817 33.0166 21.6003C34.0392 21.4445 35.0659 20.8374 35.7013 20.0197C36.0855 19.5254 36.3456 18.9382 36.4535 18.3215C36.6443 17.2307 36.3557 16.1102 35.6618 15.2471L33.9377 13.1028L38.7467 12.967L43.4828 14.7966L40.5842 18.2721C40.3761 18.5217 40.2711 18.8415 40.2912 19.166L40.5745 23.7556L35.487 25.9417C35.0099 26.1468 34.7051 26.6209 34.7169 27.1402L34.8534 33.197C34.8643 33.6843 35.1526 34.1226 35.5959 34.3256L41.0559 36.8273C41.2255 36.9051 41.4063 36.9431 41.586 36.9431C41.8837 36.9431 42.1782 36.8386 42.4133 36.6378L47.2462 32.5071L58.3092 30.6437C58.3688 31.3662 58.4005 32.0945 58.4005 32.8278C58.4005 35.0637 58.1234 37.2463 57.5779 39.3589L49.9044 38.645C49.687 38.625 49.468 38.6609 49.2685 38.7498L42.8392 41.6143C42.5175 41.7577 42.2696 42.028 42.1543 42.3608L40.0753 48.3652L35.6871 44.4677C34.8591 43.6509 33.6829 43.2439 32.5272 43.3839C31.4946 43.5091 30.4538 44.0941 29.7934 44.8973C29.3731 45.4085 29.0888 46.027 28.9747 46.6789C28.784 47.7697 29.0726 48.89 29.7664 49.753L31.4905 51.8973L26.6815 52.0331L20.5964 49.6823L22.136 44.4316C22.3048 43.8549 22.0479 43.2386 21.5192 42.9531ZM47.413 62.2607L26.1844 58.2659L15.7712 53.2727C15.4362 53.112 15.1965 52.8265 15.096 52.4686C14.9958 52.1107 15.052 51.7422 15.2549 51.4307C15.5811 50.9297 16.2229 50.7226 16.7803 50.9378L26.0026 54.5005C26.1603 54.5614 26.3286 54.59 26.4973 54.5855L34.125 54.3701C34.6084 54.3564 35.0422 54.0702 35.2449 53.6313C35.4476 53.1923 35.3843 52.6765 35.0813 52.2996L31.7505 48.1572C31.2298 47.5095 31.4636 46.614 32.1404 46.1976C32.4062 46.0341 32.6709 45.9031 32.9921 45.9046C33.3922 45.9065 33.6806 46.0926 33.9686 46.347L39.4354 51.2023C39.6886 51.4273 40.0208 51.5428 40.3593 51.5211C41.8722 51.4279 43.1418 51.8329 44.127 52.7267C44.8919 53.4205 45.2122 54.1704 45.2125 54.1704C45.2125 54.1704 45.2125 54.1704 45.2124 54.1704C45.3547 54.5278 45.6509 54.8016 46.0183 54.9155L49.2217 55.9086L47.413 62.2607ZM48.7274 53.0894L47.2874 52.6429C47.0342 52.1982 46.6044 51.5629 45.9476 50.9422C45.2128 50.2478 44.0864 49.4783 42.5014 49.1391L44.3794 43.7153L50 41.211L56.8 41.8436C56.4628 42.7549 56.074 43.6514 55.6312 44.5307C53.9761 47.8183 51.5966 50.7646 48.7274 53.0894Z"/>
</mask>
<path d="M52.9227 12.9653C52.9316 12.5903 52.8867 12.2125 52.7833 11.8438C52.4867 10.7857 51.7482 9.90627 50.7574 9.43122L40.1937 4.36566C40.0936 4.31767 39.9876 4.28301 39.8786 4.26245L17.344 0.0220847C16.6971 -0.0996633 16.0643 0.291606 15.884 0.924594L13.4166 9.59054C13.2663 10.1187 13.4733 10.6646 13.8954 10.9699C8.18941 15.7968 4.64006 22.6728 4.0576 30.175C4.00314 30.876 4.52732 31.4884 5.22823 31.5429C5.26175 31.5456 5.29514 31.5468 5.32815 31.5468C5.98665 31.5468 6.54423 31.0395 6.59603 30.3721C6.86948 26.8508 7.86264 23.4812 9.47304 20.441L13.2091 23.2635L10.5956 27.8369C10.4053 28.17 10.3752 28.5711 10.5138 28.9287C10.6524 29.2863 10.9449 29.5624 11.31 29.6801L16.0129 31.1975L16.2282 33.9828L13.2899 36.333C12.8907 36.6522 12.7213 37.1791 12.8594 37.671L13.8703 41.2742C13.9635 41.6065 14.1874 41.8865 14.491 42.0506L19.4027 44.7036L18.213 48.7614L17.6981 48.5625C16.1432 47.9619 14.3717 48.4566 13.3433 49.7359C10.9711 47.1821 9.12684 44.1512 7.97029 40.88C7.73594 40.217 7.00799 39.87 6.34567 40.1041C5.68273 40.3385 5.33525 41.0658 5.56974 41.7287C7.00735 45.7952 9.41007 49.5229 12.5252 52.5362C12.5477 52.7442 12.5871 52.9515 12.6443 53.1559C12.941 54.2141 13.6795 55.0935 14.6702 55.5685L25.234 60.6341C25.3341 60.6821 25.4401 60.7167 25.5491 60.7373C25.5491 60.7373 48.2422 64.9999 48.3203 64.9999C48.879 64.9999 49.3857 64.6306 49.5439 64.0753L52.0112 55.4093C52.161 54.8828 51.9557 54.339 51.5364 54.033C54.1468 51.6648 56.3266 48.8121 57.9057 45.6758C59.9236 41.6683 60.9466 37.3455 60.9466 32.8275C60.9466 25.35 58.1014 18.3217 52.9227 12.9653ZM43.1708 24.4929L42.8634 19.5141L45.9901 15.7653L47.7299 16.4374C49.1667 16.9925 50.7887 16.6116 51.8382 15.5408C55.0288 19.1266 57.1309 23.452 57.9771 28.1172L46.4753 30.0545C46.2478 30.0928 46.0349 30.1922 45.8596 30.3422L41.3767 34.1736L37.3805 32.3426L37.2814 27.9417L42.4026 25.7411C42.8966 25.529 43.204 25.0294 43.1708 24.4929ZM18.0148 2.73926L39.2433 6.7341L49.6565 11.7273C49.9915 11.888 50.2312 12.1735 50.3316 12.5314C50.4319 12.8893 50.3757 13.2578 50.1728 13.5693C49.8467 14.0705 49.2052 14.2777 48.6475 14.0622L39.4251 10.4994C39.2674 10.4385 39.0989 10.408 38.9304 10.4143L31.3026 10.6298C30.8193 10.6435 30.3854 10.9296 30.1828 11.3685C29.98 11.8075 30.0434 12.3233 30.3464 12.7003L33.6772 16.8426C34.1986 17.4911 33.9634 18.3856 33.2867 18.8025C33.0209 18.9662 32.7564 19.0969 32.4353 19.0954C32.0353 19.0934 31.747 18.9074 31.459 18.653L25.9922 13.7975C25.7586 13.5901 25.4575 13.4762 25.1468 13.4762C25.1206 13.4762 25.0945 13.477 25.0682 13.4787C23.554 13.5717 22.2858 13.1669 21.3005 12.2733C20.5357 11.5795 20.2154 10.8296 20.2153 10.8296C20.073 10.4722 19.7768 10.1984 19.4094 10.0845L16.2059 9.09136L18.0148 2.73926ZM21.5192 42.9531L16.1759 40.0669L15.5385 37.7951L18.3445 35.5505C18.6736 35.2874 18.8512 34.8783 18.8187 34.4582L18.4856 30.15C18.4457 29.6349 18.0986 29.195 17.6071 29.0365L13.5843 27.7386L15.9753 23.5548C16.2931 22.9987 16.1484 22.2932 15.6375 21.9073L10.7861 18.2419C12.3865 15.842 14.4014 13.704 16.7737 11.9333L18.1404 12.3571C18.3937 12.8018 18.8234 13.4371 19.4802 14.0578C20.4575 14.9815 22.1271 16.0384 24.6485 16.0384C24.6593 16.0384 24.6698 16.0382 24.6808 16.0382L29.7411 20.5326C30.5979 21.3781 31.8255 21.7817 33.0166 21.6003C34.0392 21.4445 35.0659 20.8374 35.7013 20.0197C36.0855 19.5254 36.3456 18.9382 36.4535 18.3215C36.6443 17.2307 36.3557 16.1102 35.6618 15.2471L33.9377 13.1028L38.7467 12.967L43.4828 14.7966L40.5842 18.2721C40.3761 18.5217 40.2711 18.8415 40.2912 19.166L40.5745 23.7556L35.487 25.9417C35.0099 26.1468 34.7051 26.6209 34.7169 27.1402L34.8534 33.197C34.8643 33.6843 35.1526 34.1226 35.5959 34.3256L41.0559 36.8273C41.2255 36.9051 41.4063 36.9431 41.586 36.9431C41.8837 36.9431 42.1782 36.8386 42.4133 36.6378L47.2462 32.5071L58.3092 30.6437C58.3688 31.3662 58.4005 32.0945 58.4005 32.8278C58.4005 35.0637 58.1234 37.2463 57.5779 39.3589L49.9044 38.645C49.687 38.625 49.468 38.6609 49.2685 38.7498L42.8392 41.6143C42.5175 41.7577 42.2696 42.028 42.1543 42.3608L40.0753 48.3652L35.6871 44.4677C34.8591 43.6509 33.6829 43.2439 32.5272 43.3839C31.4946 43.5091 30.4538 44.0941 29.7934 44.8973C29.3731 45.4085 29.0888 46.027 28.9747 46.6789C28.784 47.7697 29.0726 48.89 29.7664 49.753L31.4905 51.8973L26.6815 52.0331L20.5964 49.6823L22.136 44.4316C22.3048 43.8549 22.0479 43.2386 21.5192 42.9531ZM47.413 62.2607L26.1844 58.2659L15.7712 53.2727C15.4362 53.112 15.1965 52.8265 15.096 52.4686C14.9958 52.1107 15.052 51.7422 15.2549 51.4307C15.5811 50.9297 16.2229 50.7226 16.7803 50.9378L26.0026 54.5005C26.1603 54.5614 26.3286 54.59 26.4973 54.5855L34.125 54.3701C34.6084 54.3564 35.0422 54.0702 35.2449 53.6313C35.4476 53.1923 35.3843 52.6765 35.0813 52.2996L31.7505 48.1572C31.2298 47.5095 31.4636 46.614 32.1404 46.1976C32.4062 46.0341 32.6709 45.9031 32.9921 45.9046C33.3922 45.9065 33.6806 46.0926 33.9686 46.347L39.4354 51.2023C39.6886 51.4273 40.0208 51.5428 40.3593 51.5211C41.8722 51.4279 43.1418 51.8329 44.127 52.7267C44.8919 53.4205 45.2122 54.1704 45.2125 54.1704C45.2125 54.1704 45.2125 54.1704 45.2124 54.1704C45.3547 54.5278 45.6509 54.8016 46.0183 54.9155L49.2217 55.9086L47.413 62.2607ZM48.7274 53.0894L47.2874 52.6429C47.0342 52.1982 46.6044 51.5629 45.9476 50.9422C45.2128 50.2478 44.0864 49.4783 42.5014 49.1391L44.3794 43.7153L50 41.211L56.8 41.8436C56.4628 42.7549 56.074 43.6514 55.6312 44.5307C53.9761 47.8183 51.5966 50.7646 48.7274 53.0894Z" fill="#F0F5F0" stroke="#F0F5F0" stroke-width="2" mask="url(#path-1-inside-1_252_7)"/>
<path d="M4.68721 35.9908L4.6872 35.9907C4.63039 35.5676 4.92739 35.1785 5.35061 35.1216C5.77371 35.0648 6.16284 35.3618 6.21967 35.7851C6.27648 36.2082 5.97947 36.5973 5.55625 36.6541C5.13308 36.7109 4.74394 36.4139 4.68721 35.9908Z" fill="#F0F5F0" stroke="#F0F5F0"/>
</g>
<defs>
<clipPath id="clip0_252_7">
<rect width="65" height="65" fill="white"/>
</clipPath>
</defs>
</svg>
