<svg width="65" height="64" viewBox="0 0 65 64" fill="none" xmlns="http://www.w3.org/2000/svg">
<path d="M56.4504 31.5391C58.5041 24.4809 57.8515 18.0169 57.8227 17.7451C57.8225 17.7431 57.822 17.7411 57.8217 17.7391C57.8179 17.7044 57.8124 17.6699 57.8046 17.636C57.804 17.6334 57.8031 17.6309 57.8025 17.6283C57.7954 17.5979 57.7865 17.568 57.7764 17.5386C57.7729 17.5284 57.7687 17.5185 57.7649 17.5085C57.7564 17.4865 57.7474 17.4649 57.7372 17.4435C57.7324 17.4331 57.7274 17.423 57.7221 17.4129C57.711 17.3914 57.699 17.3705 57.6862 17.3499C57.6811 17.3416 57.6762 17.3333 57.6709 17.3251C57.654 17.2996 57.6357 17.2749 57.6162 17.251C57.6142 17.2486 57.6126 17.246 57.6106 17.2436C57.588 17.2165 57.5639 17.1906 57.538 17.166C57.535 17.1631 57.5316 17.1606 57.5286 17.1577C57.5069 17.1375 57.4841 17.1182 57.4601 17.0999C57.4515 17.0933 57.4424 17.0871 57.4334 17.0807C57.4144 17.0672 57.3949 17.0543 57.3746 17.042C57.3692 17.0387 57.3644 17.0349 57.359 17.0316C57.3527 17.028 57.3461 17.0255 57.3397 17.022C57.331 17.0173 57.323 17.0119 57.314 17.0074C57.3031 17.0019 57.2919 16.9977 57.2809 16.9926C57.2689 16.9871 57.2569 16.9815 57.2447 16.9765C57.2219 16.9671 57.1987 16.9591 57.1755 16.9516C57.1664 16.9488 57.1575 16.9454 57.1484 16.9428C57.0807 16.9233 57.0121 16.9119 56.9436 16.908C56.937 16.9076 56.9305 16.9079 56.9239 16.9076C56.8966 16.9066 56.8694 16.9067 56.8422 16.9081C56.8317 16.9086 56.8212 16.9096 56.8109 16.9105C56.7872 16.9125 56.7639 16.9154 56.7406 16.9193C56.7292 16.9211 56.7179 16.923 56.7066 16.9252C56.6826 16.9301 56.659 16.9361 56.6355 16.9428C56.626 16.9454 56.6165 16.9476 56.6071 16.9506C56.5746 16.9609 56.5427 16.9727 56.5116 16.9865C56.5109 16.9869 56.51 16.9871 56.5091 16.9874C56.4169 17.0285 55.1072 17.6194 52.1986 19.2824C53.9757 12.1033 52.1676 6.7785 51.9342 6.1405C51.9316 6.13325 51.9281 6.12663 51.9254 6.1195C51.9197 6.105 51.9136 6.09087 51.9072 6.07662C51.9009 6.0625 51.8942 6.0485 51.8872 6.03487C51.8806 6.02187 51.8735 6.00913 51.8662 5.99638C51.8582 5.98238 51.8501 5.96875 51.8415 5.95525C51.8339 5.94337 51.8259 5.93175 51.8176 5.92025C51.8082 5.90712 51.7987 5.89412 51.7889 5.8815C51.78 5.87037 51.7709 5.8595 51.7615 5.84863C51.7511 5.83663 51.7405 5.82487 51.7296 5.8135C51.7196 5.80312 51.7092 5.793 51.6987 5.783C51.6871 5.772 51.6755 5.76137 51.6634 5.75112C51.6525 5.74187 51.6415 5.73287 51.6301 5.724C51.617 5.71375 51.6036 5.704 51.5901 5.69462C51.579 5.68687 51.5677 5.67912 51.5561 5.67188C51.541 5.66237 51.5256 5.65338 51.5101 5.64475C51.5029 5.64062 51.4961 5.636 51.4886 5.63212C51.4845 5.62987 51.4801 5.62837 51.4759 5.62625C51.46 5.61825 51.4439 5.61112 51.4276 5.604C51.4152 5.59863 51.4029 5.593 51.3904 5.58813C51.3755 5.58238 51.3602 5.5775 51.345 5.5725C51.331 5.56788 51.3171 5.563 51.303 5.55912C51.2886 5.55512 51.274 5.55212 51.2594 5.54887C51.2445 5.5455 51.2297 5.54175 51.2147 5.53912C51.1995 5.5365 51.184 5.535 51.1686 5.533C51.1544 5.53125 51.1401 5.529 51.1259 5.52787C51.1084 5.5265 51.0907 5.5265 51.0732 5.52612C51.061 5.52588 51.0487 5.525 51.0365 5.52525C51.018 5.52562 50.9995 5.52737 50.9809 5.52875C50.9694 5.52962 50.9577 5.53 50.9464 5.53137C50.9295 5.53337 50.9126 5.53663 50.8957 5.5395C50.8825 5.54175 50.8691 5.54362 50.8559 5.54637C50.8417 5.5495 50.8277 5.55363 50.8136 5.55737C50.7977 5.56163 50.7817 5.56562 50.7661 5.57062C50.7635 5.5715 50.7609 5.57188 50.7582 5.57275C50.1715 5.7675 45.2601 7.51862 40.8694 12.8317C38.0017 5.17338 33.8214 0.91275 33.1531 0.2645C33.1456 0.25725 33.1375 0.251 33.1297 0.244C33.1164 0.231875 33.1031 0.219625 33.089 0.20825C33.0779 0.19925 33.0662 0.191 33.0547 0.182625C33.0419 0.173125 33.0292 0.163625 33.016 0.15475C33.0032 0.14625 32.9901 0.13875 32.977 0.131C32.964 0.123375 32.9512 0.1155 32.9379 0.108375C32.9245 0.10125 32.9107 0.095125 32.897 0.08875C32.8832 0.08225 32.8695 0.075625 32.8554 0.069875C32.8417 0.064375 32.828 0.05975 32.8141 0.05475C32.7992 0.0495 32.7846 0.044 32.7695 0.0395C32.7556 0.035375 32.7415 0.032125 32.7274 0.028625C32.7121 0.024875 32.697 0.020625 32.6815 0.017625C32.6655 0.0145 32.6494 0.012625 32.6334 0.01025C32.6195 0.00825 32.6057 0.00575 32.5916 0.004375C32.5641 0.00175 32.5364 0.0005 32.5087 0.00025C32.5057 0.000375 32.503 0 32.5 0C32.4971 0 32.4944 0.000375 32.4915 0.000375C32.4639 0.000625 32.4362 0.001875 32.4086 0.0045C32.3945 0.005875 32.3807 0.008375 32.3669 0.010375C32.3507 0.012625 32.3346 0.014625 32.3187 0.01775C32.3031 0.02075 32.2881 0.024875 32.2729 0.02875C32.2587 0.03225 32.2446 0.035375 32.2307 0.039625C32.2156 0.044125 32.201 0.049625 32.1861 0.054875C32.1722 0.05975 32.1585 0.064375 32.1449 0.07C32.1307 0.07575 32.1171 0.082375 32.1034 0.088875C32.0896 0.09525 32.076 0.1015 32.0625 0.108625C32.0491 0.115625 32.0364 0.1235 32.0234 0.13125C32.0102 0.139 31.9971 0.1465 31.9844 0.155C31.971 0.16375 31.9584 0.173375 31.9456 0.182875C31.9341 0.191375 31.9225 0.1995 31.9114 0.2085C31.8972 0.219875 31.884 0.232125 31.8706 0.24425C31.8629 0.25125 31.8547 0.2575 31.8472 0.26475C31.179 0.913125 26.9986 5.17362 24.131 12.832C19.7402 7.51887 14.8289 5.76775 14.2421 5.573C14.2394 5.57212 14.2366 5.57163 14.234 5.57075C14.2194 5.566 14.2044 5.56238 14.1895 5.55837C14.1744 5.55425 14.1592 5.54988 14.1441 5.5465C14.1326 5.544 14.1211 5.5425 14.1095 5.5405C14.0907 5.53713 14.0721 5.53362 14.0534 5.5315C14.0446 5.5305 14.0357 5.53025 14.0269 5.5295C14.0056 5.52763 13.9844 5.52587 13.9632 5.5255C13.9537 5.52537 13.9442 5.526 13.9347 5.52612C13.9144 5.52637 13.8941 5.52662 13.8739 5.52812C13.8616 5.52912 13.8495 5.53112 13.8372 5.5325C13.8199 5.5345 13.8024 5.53638 13.7851 5.53937C13.7712 5.54175 13.7575 5.54538 13.7436 5.54838C13.7281 5.55188 13.7125 5.555 13.6971 5.55925C13.6834 5.56312 13.6697 5.56787 13.656 5.57237C13.6406 5.57737 13.6252 5.58225 13.6102 5.58813C13.5974 5.59313 13.5847 5.59888 13.5721 5.60437C13.5564 5.61125 13.5407 5.61812 13.5255 5.62587C13.521 5.62813 13.5164 5.62975 13.512 5.63212C13.5041 5.63625 13.4969 5.64125 13.4891 5.64563C13.4744 5.65388 13.4597 5.66237 13.4455 5.67137C13.4332 5.67912 13.4212 5.68725 13.4095 5.6955C13.3966 5.7045 13.384 5.71375 13.3715 5.72337C13.3595 5.73263 13.3479 5.74225 13.3364 5.752C13.325 5.76175 13.3139 5.77187 13.3029 5.78225C13.2917 5.79275 13.2809 5.80337 13.2704 5.81437C13.2599 5.82525 13.2499 5.8365 13.2399 5.84788C13.23 5.85913 13.2204 5.8705 13.2112 5.88225C13.2017 5.89437 13.1925 5.90687 13.1835 5.9195C13.175 5.9315 13.1666 5.9435 13.1587 5.95587C13.1504 5.969 13.1424 5.98237 13.1346 5.99587C13.1271 6.00887 13.12 6.02188 13.1131 6.03525C13.1062 6.04875 13.0997 6.0625 13.0934 6.07638C13.0869 6.09062 13.0809 6.105 13.0751 6.1195C13.0724 6.12663 13.0689 6.13325 13.0662 6.1405C12.8329 6.7785 11.0247 12.1033 12.8019 19.2824C9.89312 17.6194 8.58349 17.0285 8.49137 16.9874C8.49037 16.9869 8.48937 16.9866 8.48837 16.9862C8.45762 16.9726 8.42612 16.961 8.39399 16.9508C8.38374 16.9475 8.37324 16.9451 8.36287 16.9421C8.34037 16.9358 8.31762 16.93 8.29462 16.9254C8.28262 16.923 8.27062 16.921 8.25862 16.9191C8.23612 16.9155 8.21349 16.9128 8.19074 16.9107C8.17949 16.9097 8.16837 16.9088 8.15724 16.9081C8.13124 16.9067 8.10512 16.9067 8.07899 16.9076C8.07137 16.9079 8.06362 16.9076 8.05599 16.9081C7.98799 16.912 7.91987 16.9234 7.85274 16.9426C7.84237 16.9456 7.83224 16.9495 7.82187 16.9527C7.79999 16.9599 7.77824 16.9674 7.75674 16.9761C7.74349 16.9815 7.73037 16.9876 7.71737 16.9936C7.70699 16.9984 7.69649 17.0022 7.68624 17.0075C7.67799 17.0117 7.67049 17.0168 7.66237 17.0211C7.65549 17.0249 7.64824 17.0276 7.64149 17.0316C7.63549 17.0351 7.63024 17.0394 7.62437 17.0429C7.60549 17.0544 7.58724 17.0665 7.56937 17.0791C7.55924 17.0863 7.54899 17.0931 7.53924 17.1006C7.51724 17.1175 7.49637 17.1354 7.47624 17.1539C7.47149 17.1583 7.46637 17.1622 7.46162 17.1666C7.43637 17.1907 7.41262 17.2161 7.39049 17.2428C7.38724 17.2466 7.38449 17.2509 7.38124 17.2549C7.36312 17.2773 7.34612 17.3003 7.33024 17.3241C7.32424 17.3331 7.31874 17.3425 7.31312 17.3517C7.30099 17.3714 7.28962 17.3911 7.27899 17.4115C7.27324 17.4225 7.26787 17.4335 7.26249 17.4447C7.25299 17.465 7.24437 17.4856 7.23637 17.5065C7.23212 17.5175 7.22762 17.5282 7.22374 17.5395C7.21424 17.567 7.20624 17.595 7.19937 17.6232C7.19824 17.6277 7.19674 17.6321 7.19562 17.6366C7.18799 17.6701 7.18262 17.7043 7.17862 17.7385C7.17837 17.7408 7.17774 17.7429 7.17749 17.7451C7.14874 18.0169 6.49612 24.4809 8.54987 31.5391C9.59012 35.1143 11.8392 38.1308 14.8927 40.1414C13.777 40.7018 13.0091 41.8565 13.0091 43.1878C13.0091 44.952 14.3569 46.4072 16.0769 46.5783L18.0906 57.4065C18.8011 61.227 22.1374 64 26.0235 64H38.9766C42.8626 64 46.1987 61.227 46.9094 57.4064L48.92 46.5951H50.0802C51.9591 46.5951 53.4877 45.0665 53.4877 43.1876C53.4877 41.478 52.222 40.0589 50.5785 39.817C53.3919 37.8129 55.4645 34.9274 56.4504 31.5391ZM49.8549 20.6529C48.3179 21.57 46.4867 22.6952 44.335 24.0656C44.3157 24.0779 44.2964 24.0903 44.2771 24.1025C44.0226 24.2646 43.7641 24.43 43.5006 24.599C43.487 24.6078 43.4737 24.6161 43.4602 24.6249C43.4545 24.5531 43.4477 24.4816 43.4416 24.41C43.4256 24.2189 43.4087 24.0285 43.3905 23.8395C45.568 19.261 48.0409 14.3001 50.7577 9.05987C51.2057 11.5025 51.489 15.6716 49.8549 20.6529ZM48.9666 8.44063C46.7901 12.6435 44.7705 16.6666 42.9342 20.4571C42.5891 18.4765 42.129 16.6362 41.595 14.9392C44.163 11.5181 47.0057 9.52225 48.9666 8.44063ZM39.64 14.9765C39.6465 15.0059 39.6536 15.0352 39.6631 15.0642C40.6849 18.1823 41.3335 21.4669 41.5967 24.8479C41.5987 24.8739 41.6006 24.8999 41.6026 24.926C41.6174 25.12 41.6306 25.3144 41.6427 25.5089C41.6462 25.5646 41.6499 25.6204 41.6531 25.6763C41.6561 25.7269 41.6582 25.7778 41.6611 25.8285C38.6315 28.0351 36.1467 31.0245 34.2319 34.7591C34.2272 34.768 34.2227 34.7769 34.2181 34.7858C34.1452 34.9284 34.073 35.072 34.0017 35.2169C33.99 35.2409 33.9782 35.2649 33.9665 35.2889C33.8986 35.4276 33.8312 35.5671 33.7649 35.7079C33.7531 35.7326 33.7417 35.7576 33.7301 35.7825C33.631 35.9943 33.5335 36.2081 33.4377 36.4244V3.39025C34.3647 4.53762 35.5735 6.21562 36.7889 8.427C37.9382 10.5184 38.889 12.705 39.64 14.9765ZM25.3372 15.0642C25.3467 15.0352 25.3537 15.0059 25.3604 14.9765C26.1114 12.705 27.0621 10.5184 28.2115 8.427C29.4267 6.2155 30.6356 4.5375 31.5627 3.39013V36.4243C31.4669 36.2078 31.3692 35.9934 31.2699 35.7814C31.2585 35.757 31.2472 35.7325 31.2357 35.7081C31.1692 35.5671 31.1017 35.4274 31.0336 35.2882C31.022 35.2645 31.0104 35.2406 30.9987 35.2169C30.9274 35.072 30.8552 34.9282 30.7822 34.7855C30.7777 34.7766 30.7731 34.7678 30.7685 34.7589C28.8536 31.0243 26.3689 28.035 23.3392 25.8283C23.3421 25.7775 23.3442 25.7266 23.3472 25.676C23.3505 25.6201 23.3541 25.5645 23.3576 25.5086C23.3699 25.314 23.383 25.1196 23.3977 24.9258C23.3997 24.8998 23.4016 24.8736 23.4036 24.8476C23.6667 21.4668 24.3155 18.1823 25.3372 15.0642ZM23.405 14.9392C22.871 16.6362 22.411 18.4766 22.0657 20.4573C20.2299 16.6674 18.2102 12.6443 16.0334 8.44063C17.9945 9.52225 20.8372 11.5181 23.405 14.9392ZM14.2426 9.06C16.96 14.3013 19.4329 19.2623 21.6097 23.8398C21.5915 24.0286 21.5746 24.219 21.5586 24.4101C21.5526 24.4818 21.5457 24.5532 21.54 24.625C21.5265 24.6164 21.5134 24.608 21.4999 24.5994C21.2322 24.4276 20.9696 24.2598 20.7112 24.0951C20.6982 24.0869 20.6852 24.0785 20.6724 24.0704C18.5175 22.6979 16.684 21.5711 15.1452 20.653C13.5111 15.6716 13.7944 11.5025 14.2426 9.06ZM16.7942 23.8504C16.8836 23.9056 16.9736 23.9614 17.0636 24.0171C17.2657 24.1424 17.4714 24.2701 17.6807 24.4007C17.8355 24.4974 17.991 24.5945 18.1475 24.6928C18.2684 24.7686 18.3897 24.8448 18.513 24.9223C18.7341 25.0615 18.957 25.2022 19.1814 25.3445C19.2612 25.3951 19.3407 25.4455 19.4216 25.4967C19.6879 25.6659 19.9562 25.837 20.2269 26.0103C20.2907 26.0511 20.3556 26.0928 20.42 26.1341C20.7132 26.3223 21.0081 26.5117 21.3062 26.7044C21.413 26.7734 21.5185 26.8441 21.6239 26.915C21.693 26.9618 21.7639 27.0103 21.8385 27.062C21.8395 27.0627 21.8406 27.0635 21.8416 27.0641L21.8419 27.0644C25.6077 29.676 28.5079 33.5895 30.4835 38.7176C30.4957 38.7496 30.5076 38.7821 30.5199 38.8141C30.5762 38.9619 30.6322 39.1101 30.6872 39.2599C30.7121 39.328 30.7364 39.3971 30.761 39.4656C30.7986 39.5701 30.8362 39.6745 30.8731 39.78H29.736C23.4365 36.8999 18.154 31.0424 14.8205 26.6131C12.9532 24.1321 11.4746 21.8135 10.4675 20.1248C11.9285 20.9309 14.0101 22.131 16.7942 23.8504ZM10.3502 31.0152C9.27174 27.3084 8.98499 23.7167 8.94474 21.2386C9.96749 22.9443 11.4379 25.2344 13.301 27.7124C17.3397 33.0843 21.5284 37.1274 25.7926 39.7801H18.1831C14.3539 38.1675 11.5045 34.9823 10.3502 31.0152ZM51.6129 43.1876C51.6129 44.0326 50.9254 44.7201 50.0804 44.7201H28C27.4821 44.7201 27.0625 45.1399 27.0625 45.6576C27.0625 46.1754 27.4821 46.5951 28 46.5951H47.0126L45.0657 57.0636C44.5205 59.9964 41.9596 62.125 38.9767 62.125H26.0235C23.0405 62.125 20.4795 59.9964 19.9342 57.0636L17.9874 46.5951H21.2916C21.8095 46.5951 22.2291 46.1754 22.2291 45.6576C22.2291 45.1399 21.8095 44.7201 21.2916 44.7201H16.4209C16.4166 44.72 16.4209 44.7201 16.4166 44.7201C15.5716 44.7201 14.8841 44.0326 14.8841 43.1876C14.8841 42.3426 15.5716 41.6551 16.4166 41.6551H50.0802C50.9254 41.6551 51.6129 42.3426 51.6129 43.1876ZM46.8171 39.7801H39.2052C43.1961 37.2951 47.1296 33.5856 50.9362 28.7084C51.2549 28.3001 51.1822 27.711 50.774 27.3925C50.3662 27.0742 49.7767 27.1466 49.4582 27.5548C44.847 33.4627 40.0824 37.5718 35.2962 39.7677C35.288 39.7715 35.2804 39.7762 35.2722 39.7803H34.1272C34.1641 39.6748 34.2017 39.5704 34.2394 39.4659C34.264 39.3974 34.2881 39.3283 34.3131 39.2601C34.368 39.1104 34.424 38.9621 34.4805 38.8144C34.4927 38.7824 34.5046 38.7498 34.5169 38.7179C36.4925 33.5898 39.3926 29.6763 43.1585 27.0646L43.1587 27.0644C43.1597 27.0636 43.1609 27.0629 43.1619 27.0623C43.2365 27.0105 43.3072 26.9621 43.3764 26.9154C43.4817 26.8444 43.5874 26.7736 43.6941 26.7046C43.9915 26.5125 44.2855 26.3235 44.578 26.136C44.644 26.0938 44.7102 26.0511 44.7756 26.0093C45.0446 25.8371 45.3112 25.667 45.5759 25.4989C45.6602 25.4452 45.7434 25.3926 45.8266 25.3399C46.0436 25.2024 46.2591 25.0662 46.4731 24.9315C46.6045 24.8489 46.7339 24.7675 46.8626 24.6869C47.0127 24.5927 47.1617 24.4995 47.3102 24.4069C47.5361 24.266 47.7576 24.1283 47.9751 23.9936C48.0491 23.9478 48.1231 23.9019 48.1966 23.8565C50.9869 22.133 53.0724 20.9307 54.5354 20.1238C54.1744 20.7292 53.7531 21.4151 53.2744 22.161C52.9947 22.5967 53.1211 23.1766 53.557 23.4564C53.7137 23.557 53.889 23.605 54.0625 23.605C54.3711 23.605 54.6732 23.4527 54.8522 23.1737C55.3052 22.468 55.7075 21.8161 56.0572 21.2331C56.0177 23.7084 55.7314 27.299 54.65 31.0155C53.4957 34.9823 50.6464 38.1675 46.8171 39.7801Z" fill="#008055"/>
</svg>
