<svg width="64" height="64" viewBox="0 0 64 64" fill="none" xmlns="http://www.w3.org/2000/svg">
<path d="M55.8461 29.5856C55.3537 26.1385 54.0982 23.3214 52.2155 21.4385C51.2914 20.5144 50.0854 19.9775 48.8197 19.9269C47.5264 19.8752 46.3252 20.3345 45.4394 21.2205C45.1054 21.5545 44.8335 21.9351 44.6274 22.3529L44.0569 21.7824C42.9335 20.659 41.4399 20.0403 39.8512 20.0403H38.856V16.834C39.7002 17.5049 40.7669 17.9072 41.9265 17.9072C44.6535 17.9072 46.872 15.6888 46.872 12.9618C46.872 9.85063 45.398 6.64 42.6091 3.67688C40.5459 1.4845 38.5014 0.19625 38.4154 0.1425C38.1112 -0.0475 37.7255 -0.0475 37.4216 0.1425C37.3356 0.196375 35.2911 1.4845 33.2277 3.67675C30.4389 6.63987 28.9649 9.85063 28.9649 12.9616C28.9649 15.6886 31.1835 17.9071 33.9105 17.9071C35.0701 17.9071 36.1367 17.5048 36.981 16.8339V20.0401H36.9165C35.3974 20.0401 34.077 20.9041 33.4186 22.166L31.5672 20.3146C31.2011 19.9485 30.6075 19.9485 30.2415 20.3146C29.8754 20.6807 29.8754 21.2744 30.2415 21.6404L32.973 24.3719V26.1421C31.716 26.3844 30.6267 27.1031 29.9024 28.1034C29.1781 27.1031 28.0887 26.3844 26.8319 26.1421V25.0567C26.8319 23.4681 26.2132 21.9745 25.0899 20.8511L24.5177 20.2789C24.9357 20.0728 25.3176 19.8026 25.6517 19.4685C26.5377 18.5826 26.9971 17.3821 26.9454 16.0882C26.8947 14.8226 26.3579 13.6167 25.4337 12.6925C23.551 10.8097 20.7337 9.55425 17.2866 9.06175C14.7277 8.69625 12.7249 8.8715 12.6409 8.87912C12.1902 8.92013 11.8331 9.27725 11.7921 9.728C11.7845 9.812 11.6094 11.8149 11.9749 14.3737C12.4672 17.8207 13.7227 20.638 15.6055 22.5208C16.5296 23.4449 17.7356 23.9818 19.0012 24.0324C19.0671 24.035 19.1325 24.0362 19.1979 24.0362C20.4164 24.0362 21.5407 23.5796 22.3816 22.7388C22.7157 22.4046 22.9857 22.0226 23.192 21.6046L23.7641 22.1769C24.5332 22.946 24.9569 23.9688 24.9569 25.0566V26.1423C22.9646 26.5263 21.3954 28.109 21.0305 30.1079C20.8171 30.0768 20.6011 30.0601 20.3832 30.0601C17.9325 30.0601 15.9386 32.054 15.9386 34.5046V38.6254L13.2071 41.3569C12.841 41.723 12.841 42.3166 13.2071 42.6826C13.3901 42.8656 13.6301 42.9571 13.87 42.9571C14.1099 42.9571 14.3499 42.8656 14.5329 42.6826L15.9385 41.2769V47.1655C15.0942 46.4946 14.0275 46.0923 12.868 46.0923C10.141 46.0923 7.92249 48.3107 7.92249 51.0378C7.92249 54.1489 9.39649 57.3595 12.1854 60.3226C14.2487 62.5149 16.2932 63.8031 16.3792 63.8569C16.5312 63.9519 16.7037 63.9994 16.8761 63.9994C17.0485 63.9994 17.221 63.9519 17.373 63.8569C17.459 63.803 19.5035 62.5149 21.5669 60.3226C22.901 58.9051 23.9334 57.4309 24.6484 55.938C25.1884 56.5779 25.9955 56.9852 26.8964 56.9852H38.9206C40.5426 56.9852 41.8621 55.6656 41.8621 54.0436V52.8696C41.9346 52.8525 42.0064 52.833 42.0776 52.8117C42.5992 53.9956 43.3024 55.186 44.1826 56.3596C45.7335 58.4275 47.2737 59.7199 47.3385 59.7739C47.5124 59.9188 47.7255 59.9911 47.9386 59.9911C48.1517 59.9911 48.365 59.9188 48.5387 59.7739C48.6036 59.7199 50.1437 58.4275 51.6946 56.3596C53.7839 53.574 54.8881 50.6943 54.8881 48.0315C54.8881 45.3046 52.8079 43.086 50.2509 43.086C49.7784 43.086 49.3174 43.1651 48.876 43.3149V39.2728L50.2816 40.6785C50.4646 40.8615 50.7046 40.953 50.9445 40.953C51.1844 40.953 51.4244 40.8615 51.6074 40.6785C51.9735 40.3124 51.9735 39.7188 51.6074 39.3527L48.8759 36.6213V34.588C49.411 34.7108 49.963 34.8152 50.534 34.8969C51.8265 35.0815 52.977 35.1283 53.8101 35.1283C54.6264 35.1283 55.1381 35.0834 55.1797 35.0796C55.6304 35.0386 55.9875 34.6815 56.0285 34.2309C56.0365 34.1474 56.2117 32.1444 55.8461 29.5856ZM41.9266 16.0322C40.2335 16.0322 38.8561 14.6547 38.8561 12.9618V12.8264C39.7004 13.4971 40.7671 13.8993 41.9266 13.8993C43.0671 13.8993 44.1399 13.5093 44.9952 12.8326C44.9959 12.8756 44.9972 12.9186 44.9972 12.9618C44.9971 14.6547 43.6196 16.0322 41.9266 16.0322ZM33.9105 16.0322C32.2174 16.0322 30.8399 14.6547 30.8399 12.9618C30.8399 7.53162 36.2344 3.26925 37.9194 2.07087C39.3346 3.07475 43.3572 6.2295 44.6156 10.4342C44.0795 11.4089 43.0566 12.0243 41.9266 12.0243C40.2335 12.0243 38.8561 10.6467 38.8561 8.95375V6.94963C38.8561 6.43188 38.4364 6.01213 37.9186 6.01213C37.4009 6.01213 36.9811 6.43188 36.9811 6.94963V12.9618C36.981 14.6547 35.6036 16.0322 33.9105 16.0322ZM13.6232 10.7109C14.3942 10.6961 15.6444 10.7186 17.0639 10.9246C19.1714 11.2304 22.1042 12.0154 24.1079 14.0189C24.6977 14.6088 25.0401 15.3704 25.0717 16.1636C25.1024 16.9286 24.8374 17.6316 24.3257 18.1432C23.9246 18.5444 23.4562 18.7311 23.052 18.8139L18.541 14.3029C18.1749 13.9366 17.5812 13.9366 17.2152 14.3029C16.8491 14.669 16.8491 15.2625 17.2152 15.6286L18.7557 17.1691C18.673 17.5734 18.4862 18.0417 18.0852 18.4429C17.3954 19.1326 16.3732 19.3619 15.3709 19.0671C14.4789 17.4163 14.0459 15.5912 13.837 14.1514C13.6311 12.732 13.6085 11.4822 13.6232 10.7109ZM21.0556 21.4134C20.544 21.925 19.8414 22.1899 19.076 22.1593C18.2827 22.1275 17.5211 21.7852 16.9311 21.1954C16.8762 21.1405 16.8227 21.0847 16.7696 21.0285C17.7641 20.9107 18.6986 20.481 19.4109 19.7687C19.7449 19.4347 20.0166 19.0541 20.2229 18.6364L21.7261 20.1396C21.6435 20.5439 21.4567 21.0123 21.0556 21.4134ZM36.9165 21.9153H36.981V27.1254C36.3701 26.64 35.6429 26.2959 34.848 26.1426V23.9837C34.848 22.8433 35.7759 21.9153 36.9165 21.9153ZM33.9105 27.9274C35.6036 27.9274 36.981 29.3049 36.981 30.9979C36.981 31.0426 36.9796 31.0871 36.9789 31.1318C36.135 30.462 35.069 30.0604 33.9104 30.0604C32.7507 30.0604 31.684 30.4625 30.8397 31.1334V30.9979C30.8399 29.3049 32.2174 27.9274 33.9105 27.9274ZM25.8942 27.9274C27.5874 27.9274 28.9647 29.3049 28.9647 30.9979V38.012C28.9647 38.5298 29.3845 38.9495 29.9022 38.9495C30.42 38.9495 30.8397 38.5298 30.8397 38.012V35.006C30.8397 33.3129 32.2172 31.9355 33.9104 31.9355C35.0661 31.9355 36.0744 32.5776 36.5982 33.5236C35.3385 37.7211 31.3164 40.8825 29.9022 41.8882C28.2157 40.6885 22.8236 36.427 22.8236 30.9979C22.8237 29.3049 24.2011 27.9274 25.8942 27.9274ZM20.3832 31.9355C20.5935 31.9355 20.8004 31.9618 21.0014 32.0114C21.1134 33.1162 21.4069 34.2289 21.8752 35.3341C21.3217 35.6623 20.9486 36.264 20.9486 36.9529V46.0945C20.927 46.0942 20.9057 46.0929 20.8841 46.0929C19.7245 46.0929 18.6577 46.4953 17.8136 47.1661V34.505C17.8136 33.0881 18.9664 31.9355 20.3832 31.9355ZM12.8681 47.9678C14.5612 47.9678 15.9386 49.3452 15.9386 51.0382V51.1736C15.0944 50.5029 14.0276 50.1007 12.8681 50.1007C11.7276 50.1007 10.6549 50.4907 9.79949 51.1674C9.79886 51.1244 9.79748 51.0814 9.79748 51.0382C9.79748 49.3452 11.175 47.9678 12.8681 47.9678ZM16.8754 61.9292C15.4601 60.9254 11.4375 57.7706 10.1791 53.5659C10.7154 52.5913 11.7382 51.9759 12.8681 51.9759C14.5612 51.9759 15.9386 53.3534 15.9386 55.0464V58.0524C15.9386 58.5701 16.3584 58.9899 16.8761 58.9899C17.3939 58.9899 17.8136 58.5701 17.8136 58.0524V51.0382C17.8136 49.3451 19.1911 47.9678 20.8841 47.9678C22.5771 47.9678 23.9546 49.3452 23.9546 51.0382C23.9547 56.4685 18.5602 60.7307 16.8754 61.9292ZM38.9205 55.1109H26.8962C26.3081 55.1109 25.8297 54.6324 25.8297 54.0443V51.0382C25.8297 48.9995 24.5895 47.2452 22.8241 46.4895L22.8307 37.19C23.4685 38.2404 24.264 39.276 25.2116 40.2829C27.275 42.4753 29.3195 43.7634 29.4055 43.8171C29.5575 43.9121 29.73 43.9596 29.9024 43.9596C30.0747 43.9596 30.2472 43.9121 30.3992 43.8171C30.4852 43.7634 32.5297 42.4751 34.5931 40.2829C35.6141 39.198 36.4581 38.08 37.1189 36.9459L42.9931 36.9528V43.9646C41.7835 44.858 40.9891 46.3477 40.9891 48.0322C40.9891 49.0126 41.14 50.0224 41.4334 51.046C41.2784 51.0831 41.1187 51.1027 40.9581 51.1027H28.9004C28.3826 51.1027 27.9629 51.5225 27.9629 52.0402C27.9629 52.5581 28.3826 52.9777 28.9004 52.9777H39.9871V54.0443C39.987 54.6325 39.5086 55.1109 38.9205 55.1109ZM50.251 44.9616C51.7741 44.9616 53.0132 46.3391 53.0132 48.0321C53.0132 50.8656 51.4945 53.4945 50.2204 55.201C49.3622 56.3503 48.4946 57.25 47.9386 57.785C47.3826 57.25 46.515 56.3503 45.6569 55.201C44.3827 53.4946 42.864 50.8656 42.864 48.0321C42.864 46.339 44.1031 44.9616 45.6262 44.9616C46.1935 44.9616 46.6566 45.1608 47.0011 45.3881V53.0423C47.0011 53.56 47.4209 53.9798 47.9386 53.9798C48.4564 53.9798 48.8761 53.56 48.8761 53.0423V45.3881C49.2205 45.1609 49.6837 44.9616 50.251 44.9616ZM47.0011 34.505V43.3155C46.5597 43.1657 46.0987 43.0866 45.6262 43.0866C45.368 43.0866 45.1149 43.1104 44.868 43.1539V36.9528C44.868 35.9149 44.0236 35.0705 42.9857 35.0705H41.8619V34.505C41.8619 33.471 42.4791 32.5527 43.4029 32.1501C44.4101 32.9205 45.6031 33.554 46.9564 34.0349C46.985 34.1891 47.0011 34.3461 47.0011 34.505ZM54.1976 33.2489C53.426 33.2637 52.1765 33.2411 50.757 33.0353C48.6495 32.7295 45.7166 31.9445 43.7131 29.941C42.9074 29.1353 42.5706 28.0006 42.8342 26.9797C42.9637 26.4784 42.6622 25.967 42.161 25.8376C41.6595 25.7083 41.1482 26.0095 41.0189 26.5109C40.64 27.9781 41.0062 29.5709 41.9745 30.8001C40.7597 31.6065 39.9872 32.9837 39.9872 34.5051V35.0706H38.8562V21.9153H39.8515C40.9394 21.9153 41.962 22.339 42.7312 23.1081L50.282 30.6589C50.465 30.8419 50.705 30.9335 50.9449 30.9335C51.1847 30.9335 51.4247 30.842 51.6077 30.6589C51.9739 30.2927 51.9739 29.6992 51.6077 29.3331L46.0947 23.8201C46.1775 23.4159 46.3642 22.9475 46.7654 22.5464C47.277 22.0347 47.9799 21.7699 48.745 21.8005C49.5382 21.8323 50.2999 22.1745 50.8899 22.7644C52.8934 24.7679 53.6784 27.7007 53.9841 29.8084C54.1897 31.2277 54.2124 32.4776 54.1976 33.2489Z" fill="#008055"/>
</svg>
