<svg width="67" height="64" viewBox="0 0 67 64" fill="none" xmlns="http://www.w3.org/2000/svg">
<path d="M13.4696 16.4797C16.3633 16.8851 19.0157 18.0835 21.1397 19.9454C24.7451 23.1056 29.3833 24.9583 34.2 25.1623C34.4957 25.1747 34.7907 25.1811 35.0859 25.181C39.6658 25.181 44.1622 23.6807 47.8346 20.911C49.3232 19.7883 50.6434 18.4853 51.7791 17.0307C53.0705 18.1933 54.25 19.4812 55.2887 20.8726C55.5434 21.2137 55.9337 21.3938 56.3288 21.3938C56.5986 21.3938 56.8708 21.3099 57.1037 21.1361C57.6777 20.7076 57.7956 19.8951 57.3671 19.3211C56.0067 17.4988 54.4259 15.8385 52.6785 14.3806C51.9678 12.2773 50.926 10.2948 49.5771 8.48288C46.8094 4.76459 42.9892 2.11852 38.5295 0.830627C34.2155 -0.414986 29.5268 -0.255345 25.327 1.2805C24.6544 1.52638 24.3085 2.27115 24.5545 2.94382C24.8004 3.61636 25.545 3.96236 26.2178 3.71635C29.9042 2.36816 34.021 2.22836 37.8099 3.3225C41.7205 4.45179 45.0701 6.7717 47.4966 10.0316C47.8377 10.4897 48.1534 10.9615 48.4493 11.443C48.0806 11.2327 47.7088 11.0281 47.3312 10.8344C43.5577 8.89955 39.5043 7.8425 35.2674 7.68078L32.317 5.07959C31.7797 4.60598 30.9604 4.65747 30.4866 5.19475C30.013 5.73203 30.0645 6.5515 30.6018 7.0251L31.4554 7.77753C29.4855 7.95727 27.5444 8.33634 25.6577 8.91136C24.9726 9.12015 24.5864 9.84482 24.7953 10.5299C25.004 11.2151 25.7294 11.6015 26.4138 11.3923C28.9012 10.6342 31.4943 10.2498 34.121 10.2498C36.4018 10.2498 38.6265 10.5343 40.7791 11.0941L37.6611 13.6512C37.1074 14.1053 37.0266 14.9225 37.4807 15.4763C37.7372 15.789 38.1092 15.9509 38.4842 15.9509C38.7734 15.9509 39.0647 15.8545 39.3059 15.6567L43.7093 12.0454C44.535 12.3687 45.3488 12.7326 46.1479 13.1424C47.4123 13.7907 48.6238 14.5465 49.7701 15.393C48.7661 16.6865 47.5942 17.8433 46.2725 18.8403C42.8422 21.4275 38.5932 22.7522 34.3094 22.5711C30.0814 22.3921 26.0115 20.7669 22.8492 17.9951C20.7308 16.1382 18.1733 14.8418 15.3811 14.198C15.9518 12.777 16.6927 11.4379 17.5928 10.2027C18.0145 9.62397 17.8873 8.81267 17.3085 8.39093C16.7298 7.96933 15.9183 8.09642 15.4966 8.67533C14.1426 10.5337 13.1047 12.597 12.4119 14.8079C12.2981 15.1716 12.3498 15.5669 12.5536 15.8889C12.7573 16.2106 13.0923 16.4268 13.4696 16.4797Z" fill="#006446"/>
<path d="M25.8757 52.8675C26.8098 48.1651 26.0952 43.2219 23.8634 38.9485C21.6008 34.616 17.8721 31.1774 13.3644 29.2663C11.6479 28.5385 9.85984 28.0436 8.0322 27.7874C8.39324 26.0886 8.91872 24.4243 9.60397 22.8299C9.88681 22.1719 9.58257 21.4092 8.92469 21.1264C8.26602 20.8434 7.50387 21.1478 7.22103 21.8058C6.3231 23.8952 5.67572 26.0943 5.2868 28.3366C3.82072 30.0035 2.62465 31.8973 1.72983 33.9713C-0.503584 39.1478 -0.576596 44.8951 1.52415 50.1544C3.63579 55.4415 7.68232 59.5841 12.9184 61.8195C15.5498 62.9429 18.3367 63.5104 21.151 63.5104C22.6962 63.5104 24.2501 63.3393 25.7899 62.9949C26.1617 62.9118 26.4784 62.6693 26.6553 62.3319C26.8325 61.9944 26.8522 61.5962 26.7093 61.243C25.6137 58.534 25.3253 55.6379 25.8757 52.8675ZM13.9368 59.4338C9.33981 57.4713 5.78686 53.8341 3.9329 49.1922C2.08983 44.5779 2.15325 39.5372 4.11134 34.9985C4.33764 34.4741 4.58819 33.9647 4.85741 33.4678C4.85962 33.8922 4.86818 34.3165 4.88932 34.7402C5.10044 38.9757 6.2117 43.0147 8.19029 46.7648L7.41283 50.6205C7.27122 51.3226 7.72563 52.0066 8.42774 52.1481C8.51424 52.1654 8.60048 52.1739 8.68542 52.1739C9.29001 52.1739 9.83118 51.7486 9.95529 51.1332L10.1802 50.0179C11.3207 51.6339 12.6196 53.1255 14.0608 54.4717C14.3108 54.7053 14.6287 54.8209 14.9458 54.8209C15.2926 54.8209 15.6384 54.6826 15.8938 54.4092C16.3828 53.8858 16.3548 53.0652 15.8314 52.5763C13.9313 50.8012 12.3018 48.7478 10.9883 46.473C9.84791 44.4978 8.98201 42.4288 8.39039 40.2847L12.1639 41.7064C12.3145 41.7632 12.4691 41.7901 12.6208 41.7901C13.1451 41.7901 13.6388 41.4698 13.8345 40.9501C14.087 40.2799 13.7485 39.5318 13.0782 39.2793L7.74897 37.2714C7.61605 36.3947 7.52436 35.5079 7.47962 34.6109C7.40894 33.1918 7.45757 31.7646 7.61747 30.3489C9.23982 30.5715 10.8277 31.0078 12.3518 31.654C16.3075 33.3311 19.5791 36.348 21.5642 40.1491C23.5232 43.9002 24.1507 48.2375 23.3314 52.362C22.7826 55.1252 22.9384 57.9881 23.7772 60.7283C20.4335 61.2066 17.0594 60.7668 13.9368 59.4338Z" fill="#006446"/>
<path d="M66.25 39.0503C65.7189 34.6501 63.8455 30.5922 60.8322 27.3154C60.5742 27.0348 60.2032 26.8817 59.8253 26.8975C59.4444 26.9128 59.0899 27.0949 58.8554 27.3952C57.0575 29.6985 54.6935 31.3962 52.019 32.3048C47.4795 33.847 43.5558 36.9375 40.971 41.0069C38.3502 45.1327 37.2366 50.0812 37.8353 54.9406C38.0633 56.791 38.5288 58.5869 39.2206 60.2978C37.569 60.8344 35.8649 61.2117 34.1414 61.4153C33.4302 61.4993 32.9218 62.1441 33.0058 62.8553C33.0837 63.5149 33.6438 64 34.292 64C34.3428 64 34.3942 63.997 34.4459 63.9909C36.7051 63.7239 38.934 63.1847 41.071 62.4C42.4321 62.6726 43.8167 62.8109 45.2123 62.8109C46.0477 62.8109 46.887 62.7619 47.7271 62.6639C53.3268 62.0098 58.3406 59.1994 61.845 54.7504C65.368 50.278 66.9322 44.7023 66.25 39.0503ZM59.8077 53.1455C56.733 57.0487 52.3359 59.5141 47.4262 60.0877C46.8589 60.154 46.2924 60.1917 45.7274 60.2072C46.0939 59.993 46.4571 59.7734 46.8134 59.5433C50.3759 57.2428 53.3182 54.2609 55.5766 50.6724L59.3045 49.4179C59.9833 49.1893 60.3484 48.4539 60.1199 47.7751C59.8916 47.0965 59.1564 46.7309 58.4772 46.9597L57.3989 47.3227C58.2281 45.5269 58.8703 43.6564 59.3156 41.735C59.4775 41.0373 59.0429 40.3405 58.3452 40.1788C57.6477 40.0169 56.9509 40.4515 56.7891 41.1492C56.2018 43.6827 55.2381 46.1206 53.9249 48.3952C52.7845 50.3704 51.4257 52.1547 49.8647 53.739L49.2091 49.7602C49.0927 49.0536 48.4274 48.5752 47.7187 48.6914C47.012 48.8078 46.5335 49.475 46.6499 50.1818L47.5758 55.801C46.883 56.3545 46.1609 56.8773 45.4064 57.3645C44.2127 58.1353 42.9525 58.8067 41.6464 59.3761C41.028 57.8599 40.612 56.2666 40.4096 54.6235C39.8842 50.3592 40.861 46.0174 43.1603 42.3978C45.4294 38.8257 48.8717 36.1135 52.8534 34.7607C55.5207 33.8545 57.9223 32.288 59.8759 30.1916C61.9625 32.8485 63.2683 35.9905 63.6751 39.3611C64.274 44.3235 62.9005 49.2189 59.8077 53.1455Z" fill="#006446"/>
<path d="M20.6435 6.58251C21.3597 6.58251 21.9404 6.00189 21.9404 5.28567C21.9404 4.56944 21.3597 3.98883 20.6435 3.98883C19.9273 3.98883 19.3467 4.56944 19.3467 5.28567C19.3467 6.00189 19.9273 6.58251 20.6435 6.58251Z" fill="#006446"/>
</svg>
