<svg width="65" height="64" viewBox="0 0 65 64" fill="none" xmlns="http://www.w3.org/2000/svg">
<g clip-path="url(#clip0_123_159)">
<path d="M62.035 22.48C63.6245 20.8906 64.5 18.777 64.5 16.529V10.416C64.5 5.77537 60.7246 2 56.0841 2H53.6303C53.1275 2 52.7197 2.40763 52.7197 2.91063C52.7197 3.41363 53.1275 3.82125 53.6303 3.82125H56.0841C59.7203 3.82125 62.6788 6.77975 62.6788 10.416V16.529C62.6788 18.2906 61.9928 19.9466 60.7472 21.1921L56.8835 25.0557V22.3086L59.3736 19.8185C60.2522 18.9399 60.7361 17.7716 60.7361 16.529V10.416C60.7361 7.85087 58.6492 5.76388 56.0841 5.76388H35.1967C32.6316 5.76388 30.5447 7.85087 30.5447 10.416V12.8365H28.6021V10.416C28.6021 6.77975 31.5605 3.82125 35.1968 3.82125H49.4795C49.9823 3.82125 50.3901 3.41363 50.3901 2.91063C50.3901 2.40763 49.9823 2 49.4795 2H35.1967C30.5562 2 26.7808 5.77537 26.7808 10.416V12.8861C25.5208 13.1285 24.5658 14.2387 24.5658 15.5682V23.7782L11.429 12.1027C11.5145 11.9004 11.5705 11.6855 11.5901 11.464L11.9528 7.35087C11.9965 6.85738 11.7958 6.37275 11.4161 6.0545C11.0362 5.73612 10.5237 5.62288 10.0455 5.75225L8.4137 6.19275C4.81208 7.16512 1.9707 10.0065 0.998328 13.6082L0.557828 15.24C0.262703 16.2196 1.14308 17.2666 2.15645 17.1472L6.26933 16.7844C6.46045 16.7676 6.64708 16.7244 6.8247 16.658L24.5658 36.6199V38.9269C24.5658 43.6468 28.4057 47.4866 33.1257 47.4866H40.0385L40.5031 48.4956L39.9203 49.0784C37.1407 51.8576 34.1557 54.4878 31.0478 56.8955C30.125 57.6105 29.5535 58.6887 29.4798 59.8537C29.4062 61.0189 29.8373 62.1605 30.6628 62.9859C32.3096 64.7076 35.339 64.5134 36.7532 62.601C39.162 59.4917 41.7933 56.5054 44.5741 53.7246L45.07 53.2287L49.8733 55.3324C50.571 55.6396 51.3856 55.4929 51.933 54.9444L58.8035 48.0739C59.756 47.1214 60.5553 46.0329 61.1793 44.8389C61.4122 44.3931 61.2397 43.843 60.7941 43.61C60.3483 43.3773 59.7982 43.5497 59.5653 43.9954C59.0271 45.0254 58.3375 45.9642 57.5157 46.7859L50.6452 53.6564C50.6343 53.6671 50.6185 53.6702 50.6043 53.6641L46.4527 51.8457L50.8156 47.4829C52.0975 46.2009 52.0976 44.1149 50.8156 42.8327C49.5336 41.551 47.4476 41.5509 46.1656 42.8327L41.8758 47.1226L39.9938 43.0356C39.9873 43.0214 39.9902 43.0051 40.0012 42.9941L46.8625 36.1329C48.7918 34.2035 51.3527 33.0256 54.0735 32.8161L61.396 32.2526L60.8323 39.5751C60.807 39.9059 60.7666 40.2394 60.7123 40.5667C60.6302 41.0629 60.9658 41.5316 61.462 41.6139C61.9591 41.6958 62.427 41.3604 62.5091 40.8641C62.5718 40.4849 62.6186 40.0981 62.6482 39.7149L63.2327 32.1204C63.2683 31.6577 63.1005 31.2041 62.7723 30.8761C62.4442 30.5479 61.9908 30.38 61.5282 30.416L56.8835 30.7735V27.6316L62.035 22.48ZM35.3136 61.4855C34.5328 62.5419 32.8582 62.648 31.9506 61.698C31.4948 61.2422 31.2567 60.6119 31.2973 59.9685C31.338 59.3252 31.6536 58.7299 32.1631 58.3351C35.0352 56.11 37.8028 53.6973 40.4062 51.1553L42.4932 53.2424C39.9512 55.8459 37.5386 58.6134 35.3136 61.4855ZM47.4535 44.1208C48.0253 43.5488 48.956 43.5489 49.5278 44.1206C50.0997 44.6926 50.0997 45.6231 49.5278 46.195L43.7748 51.948L41.7006 49.8736L47.4535 44.1208ZM32.366 10.416C32.366 8.855 33.6358 7.58512 35.1967 7.58512H56.084C57.6448 7.58512 58.9147 8.855 58.9147 10.416V16.529C58.9147 17.2851 58.6202 17.9961 58.0856 18.5308L56.8833 19.733V15.5684C56.8833 14.062 55.6578 12.8365 54.1515 12.8365H32.366V10.416ZM2.42945 15.295L2.7567 14.0831C3.56083 11.1047 5.91033 8.75513 8.88858 7.95113L10.1006 7.62388L9.77595 11.3039C9.7697 11.3748 9.73858 11.4415 9.68833 11.4917L6.29745 14.8826C6.24708 14.9329 6.18033 14.9641 6.10945 14.9704L2.42945 15.295ZM8.24308 15.5125L10.2575 13.4981L24.5658 26.2149V33.8783L8.24308 15.5125ZM53.9337 31.0004C50.78 31.2431 47.8113 32.6085 45.5747 34.845L42.1975 38.2222H33.9988C33.496 38.2222 33.0882 38.6299 33.0882 39.1329C33.0882 39.6359 33.496 40.0435 33.9988 40.0435H40.3762L38.7135 41.7064C38.166 42.2539 38.0157 43.0942 38.3396 43.7975L39.1997 45.6655H33.1257C29.7906 45.6655 27.0152 43.2295 26.4813 40.0436H29.8966C30.3995 40.0436 30.8072 39.636 30.8072 39.133C30.8072 38.63 30.3995 38.2224 29.8966 38.2224H26.3872V15.5684C26.3872 15.0662 26.7957 14.6577 27.2978 14.6577H54.1517C54.6538 14.6577 55.0623 15.0662 55.0623 15.5684V30.9135L53.9337 31.0004Z" fill="#008055"/>
<path d="M46.6018 19.2654C46.0815 19.0706 45.5096 19.2156 45.1447 19.6346L43.2235 21.8411L41.9055 19.1919C41.6811 18.7409 41.2286 18.4606 40.7247 18.4604C40.7247 18.4604 40.7247 18.4604 40.7246 18.4604C40.2207 18.4604 39.7682 18.7407 39.5437 19.1919L38.2258 21.8409L36.3046 19.6344C35.9398 19.2157 35.3681 19.0707 34.8475 19.2654C34.3272 19.4602 33.991 19.9451 33.991 20.5007V24.6671C33.991 28.0711 36.5305 30.8914 39.8141 31.3376V33.7833C39.8141 34.2863 40.2218 34.6939 40.7247 34.6939C41.2276 34.6939 41.6353 34.2863 41.6353 33.7833V31.3376C44.919 30.8914 47.4585 28.0712 47.4585 24.6671V20.5007C47.4583 19.9451 47.1222 19.4603 46.6018 19.2654ZM40.7246 20.9071L41.9288 23.3277L40.7246 24.7108L39.5203 23.3278L40.7246 20.9071ZM45.6371 24.6672C45.6371 27.3759 43.4333 29.5797 40.7246 29.5797C38.0158 29.5797 35.8121 27.3759 35.8121 24.6672V21.8424L39.6716 26.2748C39.9368 26.5796 40.3206 26.7542 40.7246 26.7542C41.1286 26.7542 41.5123 26.5796 41.7776 26.2748L45.6371 21.8424V24.6672Z" fill="#008055"/>
<path d="M5.9899 19.0464C5.5534 19.0464 5.15727 19.2691 4.93027 19.6423C3.50027 21.9938 2.77515 23.6429 2.77515 24.5443C2.77515 26.3169 4.21727 27.7589 5.9899 27.7589C7.76252 27.7589 9.20452 26.3169 9.20452 24.5443C9.20452 23.6429 8.47952 21.9938 7.0494 19.6423C6.82252 19.2691 6.4264 19.0464 5.9899 19.0464ZM5.99002 25.9378C5.22165 25.9378 4.59652 25.3126 4.59652 24.5444C4.59652 24.1923 5.0364 23.0936 5.9899 21.4289C6.94365 23.0938 7.3834 24.1923 7.3834 24.5444C7.3834 25.3128 6.75827 25.9378 5.99002 25.9378Z" fill="#008055"/>
<path d="M5.9899 29.6523C5.5534 29.6523 5.15727 29.8751 4.93027 30.2483C3.50027 32.6 2.77515 34.2492 2.77515 35.1502C2.77515 36.9228 4.21727 38.3648 5.9899 38.3648C7.76252 38.3648 9.20452 36.9228 9.20452 35.1502C9.20452 34.2492 8.47952 32.5998 7.0494 30.2482C6.82252 29.8751 6.4264 29.6523 5.9899 29.6523ZM5.99002 36.5437C5.22165 36.5437 4.59652 35.9186 4.59652 35.1503C4.59652 34.7983 5.0364 33.6998 5.9899 32.035C6.94365 33.7 7.3834 34.7983 7.3834 35.1503C7.3834 35.9186 6.75827 36.5437 5.99002 36.5437Z" fill="#008055"/>
</g>
<defs>
<clipPath id="clip0_123_159">
<rect width="64" height="64" fill="white" transform="translate(0.5)"/>
</clipPath>
</defs>
</svg>
