<svg width="65" height="65" viewBox="0 0 65 65" fill="none" xmlns="http://www.w3.org/2000/svg">
<path d="M49.6617 38.3886H26.1982L39.1619 31.1639C40.517 30.4058 41.0065 28.6862 40.2523 27.3293L38.3201 23.865C37.5604 22.5079 35.8391 22.0211 34.4849 22.7785L29.0923 25.7834C29.7265 24.5108 30.1212 23.263 30.2672 22.0511C30.5104 20.0332 30.0525 18.2119 28.9429 16.7841C27.1395 14.4635 23.9907 13.6921 21.2852 14.908C20.8056 15.1235 20.5916 15.6871 20.8071 16.1668C21.0227 16.6463 21.5862 16.8605 22.066 16.6449C23.9674 15.7903 26.177 16.3281 27.4393 17.9525C29.2519 20.2852 28.5566 23.9338 25.5865 27.7369L24.4366 28.3777L23.6044 26.8869C23.3907 26.5028 23.1134 26.1678 22.7871 25.8912C22.9893 24.6803 23.5531 23.1132 24.1765 22.0896C24.4499 21.6404 24.3076 21.0546 23.8584 20.7812C23.4093 20.5076 22.8235 20.6502 22.5501 21.0992C21.8792 22.2008 21.2979 23.7273 21.0056 25.0778C20.208 24.9505 19.3983 25.0909 18.6859 25.4881L18.3567 25.6717C18.226 22.9243 18.652 20.6249 19.6117 18.9666C19.8752 18.5115 19.7198 17.9291 19.2646 17.6656C18.8098 17.4025 18.2271 17.5576 17.9636 18.0127C16.69 20.2133 16.2047 23.1332 16.5164 26.6976L15.3665 27.3386C10.5083 23.7271 5.75455 22.9888 2.5651 25.3815C0.256081 27.1135 -0.613801 30.1785 0.449812 32.835C1.53501 35.5452 4.2485 37.1956 7.98676 37.5441L2.46595 40.6204C1.11162 41.3756 0.62323 43.094 1.37784 44.4516L3.30968 47.9188C3.82448 48.8413 4.78653 49.3619 5.77689 49.3619C6.24078 49.3619 6.71089 49.2476 7.14418 49.0071C7.14456 49.0069 7.14494 49.0067 7.14532 49.0064L13.3669 45.5392V61.0478C13.3669 62.9122 14.8841 64.4291 16.7491 64.4291H48.5907C50.4556 64.4291 51.973 62.9122 51.973 61.0478V40.6992C51.9728 39.4251 50.936 38.3886 49.6617 38.3886ZM17.9305 40.816L15.1088 35.7557L23.701 30.9679L26.5224 36.0277L22.2261 38.4221C22.0727 38.4632 21.9349 38.5414 21.8225 38.647L17.9305 40.816ZM35.4135 24.4414C35.5539 24.3628 35.7063 24.3255 35.857 24.3255C36.178 24.3255 36.4902 24.4947 36.6579 24.7939L38.5886 28.2556C38.8333 28.6958 38.6734 29.2551 38.2336 29.5011L28.1859 35.1006L25.3646 30.0408L35.4135 24.4414ZM19.6133 27.1517C19.8687 27.0093 20.151 26.9369 20.4379 26.9369C20.5963 26.9369 20.7558 26.959 20.913 27.0035C21.3549 27.129 21.7198 27.4164 21.9411 27.8143L22.7729 29.3043L14.1813 34.0918L13.3482 32.5972C13.1842 32.3033 13.1134 31.9736 13.1389 31.6432C13.1398 31.634 13.1409 31.625 13.1416 31.6159C13.1515 31.5105 13.1703 31.4051 13.2 31.3009C13.3253 30.8604 13.6129 30.4963 14.0107 30.2751L19.6133 27.1517ZM2.21763 32.1274C1.47356 30.2689 2.08624 28.1215 3.70781 26.9052C6.04311 25.1535 9.65061 25.7108 13.5269 28.3645L13.0846 28.611C12.3843 29.0004 11.8458 29.5991 11.5317 30.3245C10.2743 29.9285 9.14521 29.7112 7.5277 29.5341C7.00453 29.4772 6.5348 29.8543 6.47755 30.3769C6.42029 30.8997 6.79772 31.3698 7.32039 31.4271C9.09964 31.6218 10.1464 31.8642 11.2589 32.2371C11.317 32.6841 11.4593 33.12 11.685 33.5246L12.5181 35.0192L11.4786 35.5985C6.75341 36.1151 3.29762 34.8249 2.21763 32.1274ZM6.21843 47.3432C5.78387 47.5837 5.21347 47.4228 4.97277 46.9917L3.04181 43.526C2.79705 43.0857 2.95485 42.5285 3.39322 42.2841L12.2001 37.3766C12.228 37.3628 12.2551 37.3478 12.2812 37.3314L13.4455 36.6827L16.2672 41.7431L13.8713 43.0783C13.8662 43.081 13.8613 43.0839 13.8562 43.0867L6.21843 47.3432ZM15.2712 61.0479V44.4781L22.7811 40.2929H27.1715V48.7251C27.1715 49.2509 27.5978 49.6772 28.1237 49.6772C28.6495 49.6772 29.0758 49.2509 29.0758 48.7251V40.2929H36.2638V62.5249H29.0758V53.2362C29.0758 52.7104 28.6495 52.2841 28.1237 52.2841C27.5978 52.2841 27.1715 52.7104 27.1715 53.2362V62.5249H16.7491C15.9342 62.5249 15.2712 61.8623 15.2712 61.0479ZM50.0686 61.0479C50.0686 61.8623 49.4056 62.5249 48.5907 62.5249H38.1682V40.2929H49.6617C49.8822 40.2929 50.0686 40.479 50.0686 40.6992V61.0479Z" fill="#FF8764"/>
<path d="M46.1705 17.0568C46.1832 17.1738 47.3915 28.8161 43.3151 33.235C42.9585 33.6216 42.9828 34.224 43.3693 34.5805C43.5523 34.7493 43.7838 34.8327 44.0147 34.8327C44.2713 34.8327 44.5271 34.7297 44.7148 34.5261C49.3716 29.478 48.1194 17.3648 48.0637 16.8515C48.0071 16.3287 47.5377 15.9514 47.0146 16.0074C46.4918 16.0642 46.1139 16.534 46.1705 17.0568Z" fill="#FF8764"/>
<path d="M54.88 15.6417C53.2692 18.1082 52.7574 20.3094 52.7364 20.402C52.6201 20.9141 52.9406 21.4227 53.4525 21.54C53.524 21.5562 53.5952 21.5641 53.6655 21.5641C54.0991 21.5641 54.4912 21.2655 54.5929 20.8252C54.5975 20.8054 55.0687 18.8135 56.5114 16.6264C58.4098 13.7485 61.0192 11.8961 64.267 11.1208C64.7785 10.9988 65.0942 10.4852 64.9721 9.97367C64.8501 9.46218 64.3366 9.14657 63.8249 9.26858C60.1183 10.1533 57.0251 12.3571 54.88 15.6417Z" fill="#FF8764"/>
<path d="M35.3483 10.4113C35.3516 10.4344 35.3559 10.4898 35.3474 10.6015L35.1232 13.3718C35.0914 13.6656 35.0284 14.3232 35.5652 14.7294C36.1111 15.1425 36.7523 14.8835 37.0358 14.7691L39.5804 13.7085C39.6308 13.6923 39.7551 13.6918 39.8011 13.706L42.3659 14.7729C42.5273 14.8382 42.8165 14.955 43.1384 14.955C43.3619 14.955 43.6012 14.8987 43.8243 14.7297C44.3596 14.3246 44.297 13.6669 44.2651 13.3724L44.045 10.6059C44.0365 10.4945 44.0395 10.4378 44.0424 10.4127L45.891 8.18505C46.1045 7.94257 46.5262 7.45164 46.3276 6.8151C46.1261 6.16929 45.47 6.00641 45.1897 5.93684L42.3792 5.23974L40.9011 2.77241C40.7652 2.543 40.4041 1.93388 39.6987 1.93198C39.6976 1.93198 39.6965 1.93198 39.6954 1.93198C38.992 1.93198 38.6275 2.53907 38.4902 2.76796C38.49 2.76822 38.4899 2.76847 38.4898 2.76872L37.0231 5.21727L37.0098 5.23987L34.1972 5.93735C33.9177 6.00717 33.2629 6.17081 33.062 6.8165C32.864 7.45291 33.2998 7.96073 33.4978 8.18556L35.3483 10.4113ZM37.5588 7.06558C38.1937 6.90867 38.4227 6.5942 38.6195 6.25829L39.694 4.46342L40.7785 6.27352C40.9744 6.60245 41.2021 6.91057 41.8285 7.06533L43.916 7.58304L42.5717 9.20296C42.1298 9.72525 42.112 10.3043 42.1463 10.7538L42.2999 12.683L40.5373 11.9497C40.0366 11.7382 39.3607 11.7376 38.8551 11.9479L37.0895 12.6838L37.2459 10.7506C37.2769 10.3435 37.2671 9.74074 36.8254 9.20944L35.473 7.58291L37.5588 7.06558Z" fill="#FF8764"/>
<path d="M64.5099 30.075C64.7106 29.8493 65.1472 29.343 64.9501 28.7064C64.7497 28.0584 64.0913 27.8949 63.81 27.8251L61.0034 27.129L59.5224 24.6561C59.385 24.4273 59.0206 23.8201 58.3171 23.8201C58.316 23.8201 58.3148 23.8201 58.3138 23.8201C57.611 23.822 57.2499 24.4269 57.1128 24.6581L55.6433 27.1052L55.6294 27.129L52.8226 27.8251C52.5415 27.8948 51.8831 28.0583 51.6827 28.7062C51.4858 29.3429 51.9222 29.8492 52.1229 30.0748L53.9701 32.3008C53.973 32.3258 53.9762 32.3814 53.9679 32.4894L53.7435 35.2594C53.7137 35.5523 53.6526 36.2154 54.1907 36.6197C54.7355 37.029 55.3739 36.7712 55.6562 36.6571L58.2011 35.5965C58.2529 35.5799 58.3801 35.5799 58.4249 35.5938L60.9863 36.6609C61.1475 36.726 61.4365 36.8428 61.7585 36.8428C61.9811 36.8428 62.2195 36.7869 62.4423 36.6196C62.9805 36.2153 62.9194 35.5523 62.8896 35.2593L62.6655 32.4939C62.657 32.3825 62.66 32.3259 62.663 32.3007L64.5099 30.075ZM61.1922 31.0911C60.7502 31.6132 60.7324 32.1924 60.7667 32.6433L60.9229 34.5717L59.157 33.8359C58.6542 33.6264 57.9784 33.6266 57.4757 33.8359L55.7097 34.5717L55.8664 32.6386C55.9004 32.1924 55.8826 31.6132 55.4466 31.098L54.0965 29.471L56.1856 28.9529C56.8155 28.7955 57.0435 28.4819 57.2397 28.1471L58.3179 26.3506L59.3549 28.082L59.3934 28.1471C59.5894 28.482 59.8176 28.7956 60.4492 28.9533L62.5366 29.471L61.1922 31.0911Z" fill="#FF8764"/>
<path d="M54.843 10.0911C57.4695 10.0911 59.6064 7.95652 59.6064 5.33278C59.6064 2.70701 57.4695 0.57077 54.843 0.57077C52.2165 0.57077 50.0796 2.70701 50.0796 5.33278C50.0796 7.95652 52.2165 10.0911 54.843 10.0911ZM54.843 2.47507C56.4195 2.47507 57.7021 3.75704 57.7021 5.33278C57.7021 6.90649 56.4195 8.18682 54.843 8.18682C53.2665 8.18682 51.984 6.90649 51.984 5.33278C51.9839 3.75704 53.2665 2.47507 54.843 2.47507Z" fill="#FF8764"/>
</svg>
