<svg width="65" height="65" viewBox="0 0 65 65" fill="none" xmlns="http://www.w3.org/2000/svg">
<path d="M32.8212 9.01405L32.7293 9.01379C32.728 9.01379 32.727 9.01379 32.7257 9.01379C32.0262 9.01379 31.4581 9.57988 31.4562 10.2799C31.4562 10.2809 31.4562 10.2819 31.4562 10.2829C31.4559 10.9827 32.0221 11.551 32.7223 11.5529L32.8143 11.5531C32.8155 11.5531 32.8166 11.5531 32.8177 11.5531C33.5173 11.5531 34.0854 10.987 34.0873 10.287C34.0873 10.286 34.0873 10.285 34.0873 10.284C34.0875 9.58419 33.5213 9.01595 32.8212 9.01405Z" fill="#FF8764"/>
<path d="M63.6532 16.8985C62.8196 13.7291 60.3606 11.2331 57.2367 10.3845C54.0153 9.50714 45.034 9.18404 38.0668 9.06763C37.3698 9.05811 36.7878 9.6148 36.7762 10.3158C36.7645 11.0169 37.3233 11.5948 38.0244 11.6064C47.6677 11.7677 54.2538 12.2037 56.5703 12.8346C58.8212 13.446 60.5943 15.2506 61.1978 17.545C62.4457 22.2782 62.4609 32.3982 62.4609 32.4997C62.4609 32.6014 62.4457 42.7214 61.1976 47.4553C60.5943 49.749 58.8212 51.5536 56.5696 52.1653C51.917 53.4323 32.6936 53.4471 32.5 53.4471C32.3064 53.4471 13.083 53.4322 8.42969 52.165C6.17881 51.5536 4.40565 49.749 3.80225 47.4546C2.5543 42.7214 2.53906 32.6014 2.53906 32.4999C2.53906 32.3982 2.5543 22.2782 3.80237 17.5444C4.40565 15.2508 6.17881 13.4461 8.43045 12.8345C10.7977 12.1898 17.5786 11.7507 27.5241 11.5977C28.2251 11.587 28.7846 11.0099 28.7739 10.3088C28.7631 9.60781 28.1842 9.0529 27.485 9.05899C20.3034 9.16932 11.0523 9.48898 7.76407 10.3844C4.63938 11.2331 2.18042 13.7292 1.3471 16.8978C0.0153614 21.9491 0 32.0714 0 32.4999C0 32.9283 0.0153614 43.0507 1.34685 48.1011C2.18042 51.2705 4.63938 53.7666 7.76331 54.6151C12.7409 55.9706 31.6956 55.9862 32.5 55.9862C33.3044 55.9862 52.2591 55.9706 57.2359 54.6154C60.3606 53.7667 62.8196 51.2705 63.6529 48.1019C64.9846 43.0507 65 32.9283 65 32.4999C65 32.0714 64.9846 21.9491 63.6532 16.8985Z" fill="#FF8764"/>
<path d="M7.36328 29.1384C6.66212 29.1384 6.09375 29.7068 6.09375 30.4079V40.7546C6.09375 41.4558 6.66212 42.0241 7.36328 42.0241C8.06444 42.0241 8.63281 41.4558 8.63281 40.7546V30.4079C8.63281 29.7068 8.06444 29.1384 7.36328 29.1384Z" fill="#FF8764"/>
<path d="M7.36328 23.362C6.66212 23.362 6.09375 23.9304 6.09375 24.6316V24.6465C6.09375 25.3477 6.66212 25.9161 7.36328 25.9161C8.06444 25.9161 8.63281 25.3477 8.63281 24.6465V24.6316C8.63281 23.9304 8.06444 23.362 7.36328 23.362Z" fill="#FF8764"/>
<path d="M42.7966 31.5952L27.0544 22.4546C26.6616 22.2264 26.1771 22.2256 25.7835 22.4522C25.3899 22.6788 25.1473 23.0984 25.1473 23.5525V41.8337C25.1473 42.288 25.3899 42.7074 25.7835 42.934C25.9795 43.0469 26.1981 43.1032 26.4169 43.1032C26.6371 43.1032 26.8574 43.0461 27.0544 42.9316L42.7966 33.791C43.188 33.5637 43.4287 33.1456 43.4287 32.6931C43.4287 32.2406 43.1879 31.8224 42.7966 31.5952ZM27.6864 39.6285V25.7576L39.6308 32.6931L27.6864 39.6285Z" fill="#FF8764"/>
</svg>
