<?xml version="1.0" encoding="utf-8"?>
<!-- Generator: Adobe Illustrator 26.4.1, SVG Export Plug-In . SVG Version: 6.00 Build 0)  -->
<svg version="1.1" id="Capa_1" xmlns="http://www.w3.org/2000/svg" xmlns:xlink="http://www.w3.org/1999/xlink" x="0px" y="0px"
	 viewBox="0 0 190 60" style="enable-background:new 0 0 190 60;" xml:space="preserve">
<style type="text/css">
	.st0{fill:#233223;}
	.st1{fill:#FF8764;}
	.st2{fill:#F0F5F0;}
</style>
<path class="st0" d="M31.2,12.3c3.7,6.3,5.3,12.7,6,17c-0.7-0.7-1.4-1.4-2.2-2.1c-1.9-1.6-4.3-3.1-6-3.8c-0.3-0.8-2.6-6.8-3.2-23.4
	c1.5,2.4,5.3,7.9,11.8,14.1c8.1,7.8,7.5,18.9,5.3,24.3c-0.1-0.4-0.3-0.9-0.6-1.6c-0.7-1.7-1.5-3-2.5-4.4
	C38,20.4,32.4,13.9,31.2,12.3L31.2,12.3z"/>
<path class="st1" d="M17,22.2C35,23.2,39.8,34,41.3,38.6c-10.6-8.3-18.1-9.2-20.1-9.6c9.4,3,15.9,8.7,18.5,11.2
	C35,41,24.3,42.1,15.6,36c-9-5.8-14-14.9-15.6-18.3C2.2,19.1,7.5,21.8,17,22.2L17,22.2z"/>
<path class="st2" d="M58.5,27.3c0,0.7,0.2,1.3,0.6,1.7s0.9,0.6,1.6,0.6h1.1v0.5H50.5v-0.5H51c0.7,0,1.2-0.2,1.6-0.6
	c0.4-0.4,0.6-0.9,0.6-1.6V11.4c0-0.7-0.2-1.2-0.6-1.6c-0.4-0.4-0.9-0.6-1.6-0.6h-0.4V8.7h10.6c2.7,0,4.7,0.5,6.2,1.5
	c1.5,1,2.2,2.4,2.2,4.2c0,1.3-0.4,2.4-1.1,3.4c-0.8,1-1.8,1.8-3.3,2.3c-1.4,0.6-3.1,0.8-5,0.8h-1.6L58.5,27.3L58.5,27.3z M58.5,20.6
	h1.2c0.6,0,1.2-0.2,1.9-0.5c0.6-0.4,1.2-1,1.6-1.9c0.5-0.9,0.7-2.1,0.7-3.6c0-1.7-0.3-3-0.9-4c-0.6-0.9-1.5-1.4-2.7-1.4
	c-0.6,0-1.1,0.1-1.7,0.2L58.5,20.6L58.5,20.6z"/>
<path class="st2" d="M71.1,29c0.3-0.4,0.4-0.9,0.4-1.6V12.9c0-1.4-0.6-2.2-1.8-2.2v-0.4l6.6-3h0.3v20.1c0,0.7,0.1,1.2,0.4,1.6
	c0.3,0.4,0.7,0.6,1.4,0.6v0.5h-8.7v-0.5C70.4,29.6,70.9,29.4,71.1,29z"/>
<path class="st2" d="M93.5,29.7c-0.6,0.4-1.5,0.6-2.6,0.6c-1.9,0-3.1-0.8-3.4-2.4c-0.5,0.8-1.2,1.4-2.1,1.8
	c-0.8,0.4-1.8,0.6-2.8,0.6c-1.2,0-2.1-0.3-2.8-0.9c-0.7-0.6-1-1.4-1-2.4c0-1,0.3-1.9,0.9-2.5c0.6-0.6,1.5-1.2,2.7-1.8l4.9-2.5v-1.7
	c0-0.8,0-1.4,0-1.8c0-0.4-0.2-0.8-0.4-1.2c-0.2-0.4-0.6-0.6-1.2-0.6c-0.6,0-1.2,0.3-1.7,0.9c-0.5,0.6-0.7,1.3-0.7,2.2
	c0,0.2,0,0.5,0.1,0.8c0.1,0.3,0.1,0.5,0.1,0.7c0,0.6-0.2,1.1-0.6,1.5c-0.4,0.4-0.9,0.6-1.6,0.6c-0.6,0-1.1-0.2-1.5-0.6
	c-0.4-0.4-0.6-0.9-0.6-1.5c0-0.9,0.4-1.7,1.1-2.4c0.7-0.8,1.7-1.4,2.8-1.9c1.2-0.5,2.3-0.7,3.5-0.7c1.7,0,3.1,0.5,4.2,1.4
	c1.1,0.9,1.6,2.2,1.6,3.9v8.2c0,0.8,0.2,1.2,0.7,1.2c0.3,0,0.6-0.2,0.9-0.6h0.4C94.6,28.9,94.2,29.3,93.5,29.7L93.5,29.7z
	 M87.5,20.8l-0.8,0.4c-0.9,0.5-1.5,1.1-1.9,1.8c-0.4,0.8-0.6,1.6-0.6,2.5c0,0.9,0.2,1.5,0.5,1.9c0.3,0.4,0.7,0.6,1.3,0.6
	c0.6,0,1.2-0.3,1.6-0.8L87.5,20.8L87.5,20.8z"/>
<path class="st2" d="M113.5,29.6v0.5h-8.8v-0.5c0.6,0,1-0.2,1.4-0.6c0.3-0.4,0.5-0.9,0.5-1.6v-8.2c0-1.9-0.7-2.9-2.2-2.9
	c-0.4,0-0.9,0.1-1.3,0.4c-0.4,0.3-0.8,0.7-1.1,1.1v9.6c0,0.7,0.1,1.2,0.4,1.6c0.3,0.4,0.7,0.6,1.4,0.6v0.5h-8.7v-0.5
	c0.6,0,1.1-0.2,1.4-0.6c0.3-0.4,0.5-0.9,0.5-1.6v-8c0-1.4-0.6-2.2-1.8-2.2v-0.4l6.6-2.3h0.3v2.6c0.7-0.9,1.5-1.5,2.4-2
	c0.9-0.5,1.9-0.7,2.9-0.7c1.3,0,2.4,0.4,3.2,1.2s1.2,1.9,1.2,3.4v8.4C111.7,28.9,112.3,29.6,113.5,29.6L113.5,29.6z"/>
<path class="st2" d="M114.9,25.2v-8.9h-1.7v-0.4l6.5-6.4h0.3v5.3h4.2l-0.5,1.5h-3.7v8.7c0,0.8,0.2,1.5,0.6,1.9
	c0.4,0.5,0.9,0.7,1.6,0.7c0.5,0,0.9-0.1,1.3-0.3c0.4-0.2,0.7-0.5,0.9-0.8h0.5c-0.3,1.3-0.9,2.2-1.8,2.9c-0.9,0.7-2,1-3.3,1
	c-1.6,0-2.8-0.4-3.7-1.3C115.4,28.2,115,26.9,114.9,25.2L114.9,25.2z"/>
<path class="st2" d="M140.2,29.7c-0.6,0.4-1.5,0.6-2.6,0.6c-1.9,0-3.1-0.8-3.4-2.4c-0.5,0.8-1.2,1.4-2.1,1.8
	c-0.8,0.4-1.8,0.6-2.8,0.6c-1.2,0-2.1-0.3-2.8-0.9c-0.7-0.6-1-1.4-1-2.4c0-1,0.3-1.9,0.9-2.5c0.6-0.6,1.5-1.2,2.7-1.8l4.9-2.5v-1.7
	c0-0.8,0-1.4,0-1.8c0-0.4-0.2-0.8-0.4-1.2c-0.2-0.4-0.6-0.6-1.2-0.6c-0.6,0-1.2,0.3-1.7,0.9c-0.5,0.6-0.7,1.3-0.7,2.2
	c0,0.2,0,0.5,0.1,0.8c0.1,0.3,0.1,0.5,0.1,0.7c0,0.6-0.2,1.1-0.6,1.5c-0.4,0.4-0.9,0.6-1.6,0.6c-0.6,0-1.1-0.2-1.5-0.6
	c-0.4-0.4-0.6-0.9-0.6-1.5c0-0.9,0.4-1.7,1.1-2.4c0.7-0.8,1.7-1.4,2.8-1.9c1.2-0.5,2.3-0.7,3.5-0.7c1.7,0,3.1,0.5,4.2,1.4
	c1.1,0.9,1.6,2.2,1.6,3.9v8.2c0,0.8,0.2,1.2,0.7,1.2c0.3,0,0.6-0.2,0.9-0.6h0.4C141.3,28.9,140.9,29.3,140.2,29.7L140.2,29.7z
	 M134.2,20.8l-0.8,0.4c-0.9,0.5-1.5,1.1-1.9,1.8c-0.4,0.8-0.6,1.6-0.6,2.5c0,0.9,0.2,1.5,0.5,1.9c0.3,0.4,0.7,0.6,1.3,0.6
	c0.6,0,1.2-0.3,1.6-0.8L134.2,20.8L134.2,20.8z"/>
<path class="st2" d="M142.2,29v-5.1h0.4c0.5,1.7,1.3,3.1,2.3,4.2c1,1.1,2.2,1.7,3.6,1.7c0.7,0,1.3-0.2,1.7-0.5
	c0.5-0.3,0.7-0.8,0.7-1.4c0-0.4-0.1-0.8-0.4-1.1c-0.3-0.3-0.5-0.6-0.8-0.7c-0.3-0.2-0.7-0.4-1.4-0.8l-3.5-1.9
	c-0.8-0.4-1.4-1-1.8-1.7c-0.4-0.7-0.6-1.5-0.6-2.4c0-1.5,0.5-2.7,1.6-3.6c1.1-0.9,2.4-1.3,4.1-1.3c1.5,0,3.2,0.4,5,1.2v4h-0.4
	c-0.7-1.5-1.5-2.7-2.3-3.6c-0.8-0.8-1.7-1.3-2.7-1.3c-0.6,0-1.2,0.2-1.6,0.5c-0.4,0.3-0.7,0.8-0.7,1.3c0,0.6,0.2,1.1,0.7,1.4
	s1,0.7,1.8,1.2L151,21c0.6,0.3,1.1,0.6,1.5,0.9c0.4,0.3,0.8,0.7,1.1,1.3c0.4,0.6,0.5,1.3,0.5,2.1c0,1-0.3,1.8-0.8,2.6
	c-0.5,0.8-1.2,1.4-2.2,1.8c-0.9,0.5-2,0.7-3.3,0.7c-0.9,0-1.8-0.1-2.9-0.4C144,29.8,143.1,29.5,142.2,29L142.2,29z"/>
<path class="st2" d="M156.2,25.2v-8.9h-1.7v-0.4l6.5-6.4h0.3v5.3h4.2l-0.5,1.5h-3.7v8.7c0,0.8,0.2,1.5,0.6,1.9
	c0.4,0.5,0.9,0.7,1.6,0.7c0.5,0,0.9-0.1,1.3-0.3c0.4-0.2,0.7-0.5,0.9-0.8h0.5c-0.3,1.3-0.9,2.2-1.8,2.9c-0.9,0.7-2,1-3.3,1
	c-1.6,0-2.8-0.4-3.7-1.3C156.6,28.2,156.2,26.9,156.2,25.2L156.2,25.2z"/>
<path class="st2" d="M167.4,29.1c0.3-0.4,0.5-0.8,0.5-1.4v-8.2c0-1.4-0.6-2.2-1.8-2.2v-0.4l6.6-2.3h0.3v13.1c0,0.6,0.1,1.1,0.4,1.5
	c0.2,0.3,0.7,0.5,1.4,0.5v0.5h-8.7v-0.5C166.7,29.6,167.1,29.4,167.4,29.1L167.4,29.1z M167.2,10.2c0-0.9,0.3-1.6,0.9-2.2
	c0.6-0.6,1.3-0.9,2.2-0.9s1.6,0.3,2.2,0.9c0.6,0.6,0.9,1.3,0.9,2.2c0,0.9-0.3,1.6-0.9,2.2c-0.6,0.6-1.3,0.9-2.2,0.9
	s-1.6-0.3-2.2-0.9C167.5,11.8,167.2,11.1,167.2,10.2z"/>
<path class="st2" d="M176,26.6c-0.6-1.2-0.9-2.4-0.9-3.9c0-1.6,0.4-3.1,1.1-4.3c0.8-1.3,1.8-2.2,3.1-2.9c1.3-0.7,2.7-1.1,4.2-1.1
	c1.1,0,2.1,0.2,3,0.6c0.9,0.4,1.6,0.9,2.1,1.5c0.5,0.6,0.7,1.3,0.7,2.1c0,0.7-0.2,1.3-0.6,1.7c-0.4,0.4-0.9,0.6-1.6,0.6
	c-0.6,0-1.1-0.2-1.5-0.5c-0.4-0.3-0.6-0.8-0.6-1.4c0-0.2,0.1-0.5,0.2-1.1c0.1-0.5,0.2-0.9,0.2-1.2c0-0.6-0.2-1-0.5-1.3
	c-0.3-0.3-0.8-0.5-1.4-0.5c-1.1,0-2,0.5-2.6,1.5c-0.6,1-0.9,2.4-0.9,4.2c0,1.9,0.4,3.4,1.2,4.4c0.8,1,2,1.6,3.5,1.6
	c0.8,0,1.7-0.2,2.5-0.5c0.8-0.4,1.4-0.8,1.8-1.4h0.5c-0.4,1.7-1.2,3.1-2.5,4.1c-1.3,1-2.9,1.6-4.8,1.6c-1.5,0-2.7-0.3-3.8-1
	C177.5,28.7,176.6,27.8,176,26.6L176,26.6z"/>
<path class="st2" d="M52.7,54.8C51.6,53.1,51,51.2,51,49s0.6-4.1,1.7-5.8c1.1-1.7,2.6-3,4.4-3.9c1.8-0.9,3.8-1.4,5.8-1.4
	c1.1,0,2.1,0.1,2.9,0.3c0.8,0.2,1.7,0.5,2.6,0.9c0.7,0.3,1.2,0.5,1.6,0.5c0.4,0,0.6-0.1,0.8-0.4s0.3-0.6,0.3-1h0.5v8h-0.5
	c0-1.1-0.4-2.2-1.2-3.4c-0.8-1.2-1.8-2.3-3.1-3.1c-1.3-0.8-2.6-1.3-4-1.3c-2,0-3.6,0.9-4.6,2.8c-1,1.8-1.6,4.4-1.6,7.8
	c0,3.4,0.5,6,1.5,7.8c1,1.8,2.6,2.7,4.6,2.7c1.4,0,2.8-0.4,4-1.1c1.3-0.8,2.3-1.7,3.1-2.8c0.8-1.1,1.2-2.1,1.2-3h0.5v7.2h-0.5
	c0-0.4-0.2-0.7-0.4-0.9c-0.2-0.3-0.6-0.4-0.9-0.4c-0.2,0-0.5,0.1-0.8,0.1c-0.3,0.1-0.6,0.2-1,0.4c-0.9,0.4-1.7,0.6-2.4,0.8
	C65,59.9,64.1,60,63,60c-2.1,0-4-0.5-5.9-1.4C55.3,57.7,53.8,56.4,52.7,54.8L52.7,54.8z"/>
<path class="st2" d="M74.5,58.7c0.3-0.4,0.4-0.9,0.4-1.6V42.6c0-1.4-0.6-2.2-1.8-2.2v-0.4l6.6-3H80v20.1c0,0.7,0.1,1.2,0.4,1.6
	c0.3,0.4,0.7,0.6,1.4,0.6v0.5h-8.7v-0.5C73.7,59.2,74.2,59,74.5,58.7z"/>
<path class="st2" d="M99.8,58.6V59l-6.6,0.9h-0.3v-2.5c-0.6,0.9-1.3,1.5-2.2,2c-0.9,0.5-1.8,0.7-2.9,0.7c-1.4,0-2.5-0.4-3.2-1.1
	c-0.7-0.8-1.1-1.9-1.1-3.3v-6.4c0-1.4-0.6-2.2-1.8-2.2v-0.4l6.6-2.3h0.3v11c0,1.8,0.7,2.7,2.1,2.7c0.4,0,0.8-0.1,1.2-0.3
	c0.4-0.2,0.7-0.5,0.9-0.8v-7.6c0-1.4-0.6-2.2-1.8-2.2v-0.4l6.6-2.3H98v12.2C98,57.8,98.6,58.5,99.8,58.6L99.8,58.6z"/>
<path class="st2" d="M117.2,47.5c0.5,1.1,0.8,2.4,0.8,3.8c0,1.8-0.4,3.4-1.2,4.7c-0.8,1.3-1.8,2.3-3.1,3c-1.3,0.7-2.8,1-4.3,1
	c-1.8,0-3.6-0.7-5.3-2.1l-2.3,1.8h-0.5V42.6c0-1.4-0.6-2.2-1.8-2.2v-0.4l6.6-3h0.3v9.8c0.7-0.8,1.5-1.5,2.5-2c1-0.5,2-0.7,3-0.7
	c1.2,0,2.3,0.3,3.2,0.9C116,45.6,116.8,46.4,117.2,47.5L117.2,47.5z M111.9,47.5c-0.5-1-1.4-1.5-2.5-1.5c-0.5,0-1,0.1-1.6,0.4
	c-0.6,0.3-1,0.6-1.4,1v7.1c0,1.6,0.3,2.8,0.8,3.7c0.5,0.9,1.2,1.3,2.1,1.3c2.2,0,3.4-2.5,3.4-7.4C112.7,50,112.5,48.4,111.9,47.5
	L111.9,47.5z"/>
</svg>
