<svg width="190" height="60" viewBox="0 0 190 60" fill="none" xmlns="http://www.w3.org/2000/svg">
<path d="M31.2136 12.3048C34.953 18.6124 36.5617 24.9765 37.2531 29.2803C36.5475 28.5466 35.8138 27.8692 35.0236 27.2201C33.0762 25.6256 30.7338 24.1157 28.9982 23.3819C28.6736 22.5776 26.4299 16.5945 25.8373 0C27.3472 2.39887 31.1148 7.85983 37.5918 14.111C45.7056 21.9426 45.0565 33.0339 42.8552 38.3961C42.7564 38.0151 42.5447 37.4506 42.2484 36.7874C41.5146 35.1364 40.7808 33.8241 39.7649 32.3706C38.0151 20.4186 32.4271 13.9135 31.2136 12.3189V12.3048Z" fill="#008055"/>
<path d="M16.9897 22.2107C35.0235 23.1561 39.8354 33.9793 41.317 38.6359C30.7338 30.2963 23.2549 29.4073 21.2653 28.9981C30.6632 32.0178 37.1966 37.6481 39.793 40.174C35.0235 40.9783 24.3274 42.0931 15.6068 35.9971C6.61806 30.2257 1.62277 21.0536 0 17.6528C2.21543 19.0922 7.52118 21.7732 16.9897 22.2248V22.2107Z" fill="#FF8764"/>
<path d="M58.5326 27.333C58.5326 28.0526 58.716 28.6171 59.097 28.9981C59.478 29.3791 60.0142 29.5766 60.7057 29.5766H61.7922V30.0705H50.5316V29.5766H50.955C51.6182 29.5766 52.1403 29.3791 52.5354 28.9699C52.9305 28.5606 53.1281 28.0244 53.1281 27.333V11.3875C53.1281 10.7102 52.9305 10.1599 52.5354 9.75066C52.1403 9.34144 51.6182 9.14389 50.955 9.14389H50.5316V8.67822H61.1008C63.7536 8.67822 65.828 9.17211 67.2955 10.174C68.763 11.1759 69.4968 12.587 69.4968 14.4073C69.4968 15.7055 69.1158 16.8485 68.3538 17.8504C67.5918 18.8523 66.5053 19.6284 65.0942 20.1928C63.6831 20.7572 62.0039 21.0254 60.0707 21.0254H58.5185V27.3189L58.5326 27.333ZM58.5326 20.5879H59.7461C60.367 20.5879 60.9879 20.4045 61.6229 20.0517C62.2579 19.6848 62.8082 19.0498 63.2597 18.1467C63.7113 17.2295 63.9371 16.0301 63.9371 14.5343C63.9371 12.8269 63.6266 11.5004 62.9916 10.5691C62.3708 9.63778 61.4535 9.17211 60.2682 9.17211C59.7179 9.17211 59.1393 9.24267 58.5185 9.36966V20.602L58.5326 20.5879Z" fill="#233223"/>
<path d="M71.1478 29.0263C71.4442 28.6453 71.5853 28.1232 71.5853 27.46V12.9398C71.5853 11.5146 70.9785 10.7667 69.7791 10.6961V10.301L76.4253 7.33771H76.7217V27.46C76.7217 28.1373 76.8628 28.6735 77.1309 29.0404C77.399 29.4073 77.8647 29.6049 78.4997 29.6049V30.0705H69.7791V29.6049C70.3999 29.6049 70.8515 29.4073 71.1478 29.0263Z" fill="#233223"/>
<path d="M93.5421 29.7178C92.9212 30.127 92.0464 30.3245 90.9175 30.3245C88.9702 30.3245 87.8413 29.5202 87.5591 27.9257C87.0369 28.6877 86.3455 29.2944 85.4989 29.7178C84.6522 30.1411 83.7209 30.3669 82.719 30.3669C81.5337 30.3669 80.6164 30.0705 79.9532 29.4638C79.29 28.857 78.9655 28.0668 78.9655 27.079C78.9655 26.0912 79.2618 25.2164 79.8686 24.5955C80.4753 23.9746 81.3784 23.3537 82.592 22.761L87.5026 20.2916V18.5418C87.5026 17.7798 87.4885 17.1731 87.4603 16.7498C87.4321 16.3264 87.2909 15.9172 87.0511 15.5362C86.8112 15.1552 86.4302 14.9577 85.894 14.9577C85.259 14.9577 84.7086 15.2399 84.2289 15.8184C83.7632 16.3829 83.5233 17.1308 83.5233 18.0197C83.5233 18.2455 83.5515 18.4854 83.608 18.7817C83.6644 19.064 83.6926 19.2897 83.6926 19.445C83.6926 20.0376 83.481 20.5315 83.0718 20.9125C82.6484 21.2935 82.1263 21.491 81.4913 21.491C80.8563 21.491 80.3907 21.3076 80.0238 20.9407C79.6569 20.5738 79.4735 20.08 79.4735 19.445C79.4735 18.5842 79.8403 17.7799 80.56 17.0037C81.2797 16.2418 82.2251 15.6209 83.3822 15.1411C84.5393 14.6754 85.7105 14.4355 86.8958 14.4355C88.6033 14.4355 90.0002 14.9012 91.0586 15.8184C92.1169 16.7356 92.6531 18.0197 92.6531 19.6707V27.8692C92.6531 28.6312 92.8789 29.0263 93.3446 29.0263C93.6691 29.0263 93.9796 28.8288 94.2618 28.4337H94.6851C94.5581 28.8993 94.1771 29.3227 93.5421 29.7319V29.7178ZM87.5026 20.8137L86.6842 21.2371C85.8093 21.7027 85.1743 22.3095 84.7792 23.0574C84.3841 23.8194 84.1865 24.6519 84.1865 25.5832C84.1865 26.444 84.3417 27.079 84.6663 27.5164C84.9908 27.9398 85.4142 28.1514 85.9363 28.1514C86.5713 28.1514 87.0934 27.8833 87.5167 27.3612V20.8137H87.5026Z" fill="#233223"/>
<path d="M113.495 29.6049V30.0705H104.732V29.6049C105.325 29.6049 105.776 29.4073 106.087 29.0263C106.397 28.6453 106.552 28.1232 106.552 27.46V19.2333C106.552 17.286 105.833 16.2982 104.379 16.2982C103.942 16.2982 103.518 16.4393 103.095 16.7356C102.672 17.032 102.333 17.413 102.037 17.8786V27.46C102.037 28.1373 102.178 28.6735 102.446 29.0404C102.714 29.4073 103.18 29.6049 103.815 29.6049V30.0705H95.0942V29.6049C95.7151 29.6049 96.1666 29.4073 96.4629 29.0263C96.7593 28.6453 96.9145 28.1232 96.9145 27.46V19.4308C96.9145 18.0056 96.3077 17.2577 95.1083 17.1872V16.7921L101.726 14.492H102.051V17.1307C102.714 16.27 103.504 15.6068 104.45 15.1411C105.395 14.6754 106.369 14.4355 107.385 14.4355C108.725 14.4355 109.784 14.8307 110.546 15.635C111.308 16.4393 111.703 17.5823 111.703 19.0781V27.4741C111.703 28.8993 112.31 29.619 113.509 29.619L113.495 29.6049Z" fill="#233223"/>
<path d="M114.948 25.1599V16.2417H113.269V15.8466L119.788 9.45435H120.085V14.7601H124.304L123.782 16.2417H120.099V24.9341C120.099 25.7667 120.296 26.4158 120.706 26.8814C121.115 27.3471 121.651 27.5729 122.343 27.5729C122.85 27.5729 123.288 27.46 123.683 27.2483C124.064 27.0225 124.36 26.7544 124.558 26.4299H125.024C124.699 27.6999 124.092 28.6735 123.232 29.365C122.371 30.0423 121.256 30.381 119.915 30.381C118.307 30.381 117.093 29.9435 116.247 29.0686C115.4 28.1938 114.977 26.8956 114.977 25.1881L114.948 25.1599Z" fill="#233223"/>
<path d="M140.249 29.7178C139.629 30.127 138.754 30.3245 137.625 30.3245C135.677 30.3245 134.549 29.5202 134.266 27.9257C133.744 28.6877 133.053 29.2944 132.206 29.7178C131.36 30.1411 130.428 30.3669 129.426 30.3669C128.241 30.3669 127.324 30.0705 126.661 29.4638C125.997 28.857 125.673 28.0668 125.673 27.079C125.673 26.0912 125.969 25.2164 126.576 24.5955C127.183 23.9746 128.086 23.3537 129.299 22.761L134.21 20.2916V18.5418C134.21 17.7798 134.196 17.1731 134.168 16.7498C134.139 16.3264 133.998 15.9172 133.758 15.5362C133.519 15.1552 133.138 14.9577 132.601 14.9577C131.966 14.9577 131.416 15.2399 130.936 15.8184C130.471 16.3829 130.231 17.1308 130.231 18.0197C130.231 18.2455 130.259 18.4854 130.315 18.7817C130.372 19.064 130.4 19.2897 130.4 19.445C130.4 20.0376 130.188 20.5315 129.779 20.9125C129.356 21.2935 128.834 21.491 128.199 21.491C127.564 21.491 127.098 21.3076 126.731 20.9407C126.364 20.5738 126.181 20.08 126.181 19.445C126.181 18.5842 126.548 17.7799 127.267 17.0037C127.987 16.2418 128.932 15.6209 130.09 15.1411C131.247 14.6754 132.418 14.4355 133.603 14.4355C135.311 14.4355 136.708 14.9012 137.766 15.8184C138.824 16.7356 139.36 18.0197 139.36 19.6707V27.8692C139.36 28.6312 139.586 29.0263 140.052 29.0263C140.376 29.0263 140.687 28.8288 140.969 28.4337H141.392C141.265 28.8993 140.884 29.3227 140.249 29.7319V29.7178ZM134.21 20.8137L133.392 21.2371C132.517 21.7027 131.882 22.3095 131.487 23.0574C131.091 23.8194 130.894 24.6519 130.894 25.5832C130.894 26.444 131.049 27.079 131.374 27.5164C131.698 27.9398 132.122 28.1514 132.644 28.1514C133.279 28.1514 133.801 27.8833 134.224 27.3612V20.8137H134.21Z" fill="#233223"/>
<path d="M142.211 29.0404V23.9323H142.578C143.1 25.5974 143.89 27.0085 144.92 28.1514C145.95 29.2944 147.15 29.8589 148.504 29.8589C149.182 29.8589 149.76 29.6895 150.212 29.365C150.677 29.0404 150.903 28.5748 150.903 27.9821C150.903 27.5447 150.776 27.1637 150.508 26.8532C150.24 26.5287 149.986 26.2888 149.718 26.1336C149.45 25.9642 148.984 25.6961 148.307 25.3292L144.821 23.4243C144.031 22.9868 143.424 22.4083 142.987 21.6886C142.564 20.9689 142.338 20.1928 142.338 19.3321C142.338 17.8222 142.874 16.6228 143.946 15.7479C145.019 14.873 146.388 14.4355 148.025 14.4355C149.52 14.4355 151.185 14.8448 153.034 15.6491V19.699H152.667C151.919 18.1609 151.157 16.9755 150.395 16.143C149.633 15.3104 148.716 14.8871 147.658 14.8871C147.023 14.8871 146.486 15.0564 146.049 15.381C145.612 15.7055 145.386 16.143 145.386 16.6651C145.386 17.2578 145.612 17.7234 146.049 18.0762C146.486 18.429 147.079 18.81 147.827 19.2333L151.016 20.9831C151.581 21.2935 152.074 21.5757 152.47 21.8579C152.865 22.1402 153.232 22.5494 153.584 23.1279C153.937 23.6924 154.106 24.412 154.106 25.2728C154.106 26.2323 153.852 27.1072 153.344 27.8692C152.836 28.6312 152.117 29.2521 151.185 29.7037C150.254 30.1552 149.153 30.381 147.912 30.381C147.009 30.381 146.063 30.2681 145.047 30.0282C144.031 29.8024 143.086 29.4779 142.183 29.0545L142.211 29.0404Z" fill="#233223"/>
<path d="M156.167 25.1599V16.2417H154.487V15.8466L161.007 9.45435H161.303V14.7601H165.522L165 16.2417H161.317V24.9341C161.317 25.7667 161.515 26.4158 161.924 26.8814C162.333 27.3471 162.869 27.5729 163.561 27.5729C164.069 27.5729 164.506 27.46 164.901 27.2483C165.282 27.0225 165.579 26.7544 165.776 26.4299H166.242C165.917 27.6999 165.311 28.6735 164.45 29.365C163.589 30.0423 162.474 30.381 161.134 30.381C159.525 30.381 158.312 29.9435 157.465 29.0686C156.618 28.1938 156.195 26.8956 156.195 25.1881L156.167 25.1599Z" fill="#233223"/>
<path d="M167.399 29.0546C167.709 28.6877 167.865 28.222 167.865 27.6152V19.3885C167.865 17.9633 167.258 17.2154 166.058 17.1449V16.7498L172.677 14.4779H173.001V27.6152C173.001 28.2502 173.128 28.7441 173.368 29.0828C173.608 29.4214 174.088 29.5908 174.779 29.5908V30.0564H166.058V29.5908C166.651 29.5908 167.103 29.4073 167.413 29.0405L167.399 29.0546ZM167.201 10.2305C167.201 9.3556 167.484 8.62183 168.062 8.04328C168.627 7.46473 169.36 7.1684 170.235 7.1684C171.11 7.1684 171.872 7.45062 172.437 8.02917C173.001 8.59361 173.297 9.34149 173.297 10.2305C173.297 11.1195 173.001 11.8391 172.423 12.4036C171.844 12.968 171.11 13.2643 170.235 13.2643C169.36 13.2643 168.627 12.9821 168.062 12.4036C167.498 11.8391 167.201 11.1054 167.201 10.2305Z" fill="#233223"/>
<path d="M176.007 26.6134C175.414 25.4563 175.118 24.1722 175.118 22.7611C175.118 21.1383 175.499 19.699 176.261 18.429C177.023 17.1731 178.039 16.1853 179.323 15.4798C180.607 14.7742 182.018 14.4214 183.556 14.4214C184.671 14.4214 185.687 14.6049 186.576 14.9859C187.465 15.3669 188.156 15.8608 188.65 16.4817C189.144 17.1025 189.398 17.8081 189.398 18.5701C189.398 19.2756 189.201 19.826 188.805 20.2211C188.41 20.6162 187.874 20.8137 187.197 20.8137C186.604 20.8137 186.11 20.6444 185.729 20.3057C185.348 19.9671 185.151 19.5014 185.151 18.9087C185.151 18.7394 185.207 18.3725 185.32 17.8222C185.447 17.3424 185.518 16.9614 185.518 16.6651C185.518 16.0724 185.348 15.6209 185.024 15.3387C184.699 15.0423 184.233 14.8871 183.641 14.8871C182.526 14.8871 181.651 15.3951 181.044 16.4252C180.424 17.4412 180.127 18.8382 180.127 20.588C180.127 22.5212 180.536 24.0028 181.369 25.0329C182.202 26.063 183.373 26.5851 184.911 26.5851C185.743 26.5851 186.562 26.4158 187.366 26.063C188.17 25.7103 188.763 25.2446 189.158 24.6802H189.624C189.257 26.3876 188.439 27.7705 187.169 28.8147C185.913 29.8589 184.318 30.381 182.413 30.381C180.96 30.381 179.69 30.0423 178.589 29.3791C177.488 28.7159 176.642 27.7987 176.049 26.6275L176.007 26.6134Z" fill="#233223"/>
<path d="M52.6764 54.7789C51.5617 53.0997 51.0114 51.1665 51.0114 48.9934C51.0114 46.8203 51.5617 44.9012 52.6764 43.2361C53.7912 41.571 55.2446 40.2728 57.0791 39.3697C58.8994 38.4525 60.8467 38.0009 62.9069 38.0009C64.0499 38.0009 65.0236 38.1138 65.842 38.3255C66.6605 38.5512 67.5212 38.8476 68.4384 39.2145C69.1581 39.539 69.6802 39.7083 69.9907 39.7083C70.3434 39.7083 70.6256 39.5672 70.8373 39.285C71.049 39.0028 71.1477 38.6641 71.1477 38.269H71.6134V46.27H71.1477C71.1477 45.2116 70.7527 44.0686 69.9765 42.841C69.2004 41.6133 68.1703 40.5691 66.9144 39.7225C65.6586 38.8758 64.318 38.4525 62.9069 38.4525C60.889 38.4525 59.351 39.3697 58.3067 41.2041C57.2625 43.0386 56.7404 45.635 56.7404 48.9934C56.7404 52.3518 57.2484 54.9482 58.2785 56.7686C59.3086 58.5889 60.8467 59.5061 62.9069 59.5061C64.318 59.5061 65.6586 59.1251 66.9427 58.3631C68.2268 57.6011 69.271 56.6698 70.0612 55.5691C70.8514 54.4685 71.2465 53.4384 71.2465 52.5211H71.7122V59.7319H71.2465C71.2042 59.3791 71.0631 59.0687 70.8232 58.7864C70.5833 58.5042 70.2729 58.3772 69.906 58.3772C69.6661 58.3772 69.3839 58.4337 69.0875 58.5183C68.7771 58.6171 68.4667 58.7441 68.128 58.8993C67.2672 59.2521 66.477 59.5202 65.7291 59.7036C64.9812 59.8871 64.064 59.9859 62.9634 59.9859C60.8749 59.9859 58.9276 59.5343 57.1073 58.6312C55.287 57.7281 53.8194 56.444 52.7047 54.7648L52.6764 54.7789Z" fill="#233223"/>
<path d="M74.4639 58.6595C74.7603 58.2785 74.9014 57.7564 74.9014 57.0932V42.5729C74.9014 41.1477 74.2946 40.3998 73.0952 40.3293V39.9342L79.7414 36.9709H80.0378V57.0932C80.0378 57.7705 80.1789 58.3067 80.447 58.6736C80.7151 59.0405 81.1808 59.238 81.8158 59.238V59.7037H73.0952V59.238C73.716 59.238 74.1676 59.0405 74.4639 58.6595Z" fill="#233223"/>
<path d="M99.8213 58.5889V58.984L93.2032 59.873H92.8787V57.333C92.286 58.1938 91.5523 58.8429 90.6915 59.3086C89.8307 59.7742 88.8712 60 87.8411 60C86.43 60 85.3575 59.619 84.6096 58.857C83.8618 58.095 83.4949 56.9802 83.4949 55.5127V49.064C83.4949 47.6388 82.8881 46.8909 81.6887 46.8203V46.4252L88.3067 44.1251H88.6313V55.1317C88.6313 56.9379 89.3227 57.8269 90.7056 57.8269C91.143 57.8269 91.5523 57.7281 91.9474 57.5165C92.3284 57.3048 92.6388 57.0226 92.8928 56.6698V49.064C92.8928 47.6388 92.286 46.8909 91.0866 46.8203V46.4252L97.7047 44.1251H98.0292V56.3452C98.0292 57.7705 98.636 58.5183 99.8354 58.5889H99.8213Z" fill="#233223"/>
<path d="M117.248 47.5118C117.756 48.6124 118.01 49.8683 118.01 51.2935C118.01 53.1138 117.615 54.6801 116.839 55.9925C116.063 57.3048 115.005 58.2926 113.692 58.9699C112.38 59.6472 110.927 59.9859 109.346 59.9859C107.498 59.9859 105.748 59.2662 104.083 57.841L101.783 59.6896H101.317V42.5588C101.317 41.1336 100.71 40.3857 99.5109 40.3151V39.92L106.157 36.9567H106.453V46.7357C107.131 45.9031 107.977 45.2399 108.979 44.7601C109.981 44.2803 110.955 44.0405 111.929 44.0405C113.142 44.0405 114.2 44.3368 115.118 44.9436C116.035 45.5503 116.755 46.397 117.263 47.4976L117.248 47.5118ZM111.914 47.4553C111.392 46.4817 110.56 45.9878 109.417 45.9878C108.909 45.9878 108.373 46.1289 107.808 46.4111C107.244 46.6933 106.792 47.032 106.453 47.4271V54.5108C106.453 56.0913 106.707 57.3189 107.215 58.1797C107.723 59.0405 108.429 59.4779 109.36 59.4779C111.604 59.4779 112.719 56.9944 112.719 52.0414C112.719 49.953 112.451 48.429 111.929 47.4412L111.914 47.4553Z" fill="#233223"/>
</svg>
